<?xml version="1.0" standalone="no"?>
<!DOCTYPE svg PUBLIC "-//W3C//DTD SVG 1.1//EN" "http://www.w3.org/Graphics/SVG/1.1/DTD/svg11.dtd" >
<svg xmlns="http://www.w3.org/2000/svg" xmlns:xlink="http://www.w3.org/1999/xlink" version="1.1">
<metadata>
Created by FontForge 20160407 at Wed Aug  3 08:34:46 2016
 By Jimmy Wärting
Copyright (c) 2014 by S-Core Co., Ltd.. All rights reserved.
</metadata>
<defs>
<font id="CoreSansD65Heavy" horiz-adv-x="378" >
  <font-face 
    font-family="Core Sans D 65 Heavy"
    font-weight="400"
    font-stretch="normal"
    units-per-em="1000"
    panose-1="2 11 9 3 3 3 2 2 2 4"
    ascent="800"
    descent="-200"
    x-height="500"
    cap-height="700"
    bbox="-413 -245 1175 1006"
    underline-thickness="24"
    underline-position="-207"
    stemh="136"
    stemv="144"
    unicode-range="U+0008-FB04"
  />
<missing-glyph horiz-adv-x="500" 
d="M430 0h-360v750h360v-750zM145 65h210v620h-210v-620z" />
    <glyph glyph-name="f_i" unicode="fi" horiz-adv-x="625" 
d="M415 0v381h-173v-381h-144v381h-67v119h67v25c0 143 54 187 205 187h52v-119h-51c-48 0 -62 -19 -62 -71v-22h317v-500h-144zM415 580v132h144v-132h-144z" />
    <glyph glyph-name="f_l" unicode="fl" horiz-adv-x="667" 
d="M559 712v-532c0 -42 16 -61 55 -61h32v-119h-59c-119 0 -172 50 -172 167v409c-25 11 -60 17 -92 17c-63 0 -81 -19 -81 -73v-20h113v-119h-113v-381h-144v381h-67v119h67v25c0 133 61 187 189 187c44 0 95 -10 128 -25v25h144z" />
    <glyph glyph-name="f_f" unicode="ff" horiz-adv-x="689" 
d="M242 381v-381h-144v381h-67v119h67v25c0 134 50 186 183 186c29 0 62 -4 93 -11l-13 -113c-18 4 -37 6 -57 6c-48 0 -62 -19 -62 -71v-22h173v25c0 143 54 187 205 187h52v-119h-51c-48 0 -62 -19 -62 -71v-22h113v-119h-113v-381h-144v381h-173z" />
    <glyph glyph-name="f_f_i" unicode="ffi" horiz-adv-x="942" 
d="M732 0v381h-173v-381h-144v381h-173v-381h-144v381h-67v119h67v25c0 134 50 186 183 186c29 0 62 -4 93 -11l-13 -113c-18 4 -37 6 -57 6c-48 0 -62 -19 -62 -71v-22h173v25c0 143 54 187 205 187h52v-119h-51c-48 0 -62 -19 -62 -71v-22h317v-500h-144zM732 580v132h144
v-132h-144z" />
    <glyph glyph-name="f_f_l" unicode="ffl" horiz-adv-x="984" 
d="M876 712v-532c0 -42 16 -61 55 -61h32v-119h-59c-119 0 -172 50 -172 167v409c-25 11 -60 17 -92 17c-63 0 -81 -19 -81 -73v-20h113v-119h-113v-381h-144v381h-173v-381h-144v381h-67v119h67v25c0 134 50 186 183 186c29 0 62 -4 93 -11l-13 -113c-18 4 -37 6 -57 6
c-48 0 -62 -19 -62 -71v-22h173v25c0 133 61 187 189 187c44 0 95 -10 128 -25v25h144z" />
    <glyph glyph-name=".notdef" horiz-adv-x="500" 
d="M430 0h-360v750h360v-750zM145 65h210v620h-210v-620z" />
    <glyph glyph-name="quotesingle" unicode="'" horiz-adv-x="280" 
d="M88 476l-17 224h138l-17 -224h-104z" />
    <glyph glyph-name="parenleft" unicode="(" horiz-adv-x="346" 
d="M313 18l-40 -126c-123 41 -199 137 -199 272v362c0 135 76 232 199 273l40 -127c-54 -23 -95 -77 -95 -165v-324c0 -88 41 -141 95 -165z" />
    <glyph glyph-name="parenright" unicode=")" horiz-adv-x="346" 
d="M73 -108l-40 126c54 24 95 77 95 165v324c0 88 -41 142 -95 165l40 127c123 -41 199 -138 199 -273v-362c0 -135 -76 -231 -199 -272z" />
    <glyph glyph-name="asterisk" unicode="*" horiz-adv-x="534" 
d="M34 257l135 68l-135 68l55 102l121 -77l-10 135h134l-10 -135l121 77l55 -102l-135 -68l135 -68l-55 -102l-121 77l10 -135h-134l10 135l-121 -77z" />
    <glyph glyph-name="plus" unicode="+" horiz-adv-x="562" 
d="M50 267v115h161v173h141v-173h160v-115h-160v-175h-141v175h-161z" />
    <glyph glyph-name="comma" unicode="," horiz-adv-x="274" 
d="M214 148v-142c0 -74 -52 -138 -154 -140v63c50 7 72 29 74 71h-74v148h154z" />
    <glyph glyph-name="hyphen" unicode="-" horiz-adv-x="429" 
d="M50 265v118h329v-118h-329z" />
    <glyph glyph-name="period" unicode="." horiz-adv-x="274" 
d="M214 148v-148h-154v148h154z" />
    <glyph glyph-name="slash" unicode="/" horiz-adv-x="466" 
d="M465 783l-320 -876h-144l320 876h144z" />
    <glyph glyph-name="zero" unicode="0" horiz-adv-x="548" 
d="M358 242v216c0 98 -40 127 -84 127s-84 -29 -84 -127v-216c0 -98 40 -127 84 -127s84 29 84 127zM503 470v-240c0 -153 -93 -242 -229 -242s-229 89 -229 242v240c0 153 93 242 229 242s229 -89 229 -242z" />
    <glyph glyph-name="one" unicode="1" horiz-adv-x="548" 
d="M497 0h-405v121h131v424l-131 -52v134l159 73h117v-579h129v-121z" />
    <glyph glyph-name="two" unicode="2" horiz-adv-x="548" 
d="M497 499c0 -71 -22 -114 -66 -165l-183 -213h249v-121h-446v97l260 304c33 38 42 65 42 97c0 62 -32 93 -79 93s-78 -31 -78 -93v-28l-145 8v21c0 123 85 213 223 213c137 0 223 -90 223 -213z" />
    <glyph glyph-name="three" unicode="3" horiz-adv-x="548" 
d="M271 342c-18 0 -33 -5 -48 -13l-69 75l153 175h-239v121h408v-111l-134 -153c107 -12 161 -94 161 -211c0 -135 -77 -237 -229 -237s-229 100 -229 235v4l144 8v-10c0 -79 33 -116 85 -116s85 37 85 116c0 80 -32 117 -88 117z" />
    <glyph glyph-name="four" unicode="4" horiz-adv-x="548" 
d="M170 254h130v225zM517 254v-120h-73v-134h-144v134h-269v110l260 456h153v-446h73z" />
    <glyph glyph-name="five" unicode="5" horiz-adv-x="548" 
d="M47 226l144 8v-5c0 -79 31 -121 85 -121c55 0 85 39 85 127c0 93 -34 126 -86 126c-28 0 -51 -14 -64 -34h-134v373h391v-119h-247v-127c20 18 50 28 84 28c111 0 200 -78 200 -248c0 -150 -78 -246 -229 -246c-153 0 -229 99 -229 238z" />
    <glyph glyph-name="six" unicode="6" horiz-adv-x="548" 
d="M41 215c0 42 11 80 28 114l184 371h148l-128 -260c141 0 238 -98 238 -226c0 -126 -94 -226 -235 -226s-235 101 -235 227zM180 215c0 -66 38 -109 96 -109s96 43 96 109s-38 109 -96 109s-96 -43 -96 -109z" />
    <glyph glyph-name="seven" unicode="7" horiz-adv-x="548" 
d="M52 582v118h444v-99l-220 -601h-152l214 582h-286z" />
    <glyph glyph-name="eight" unicode="8" horiz-adv-x="548" 
d="M274 712c124 0 209 -82 209 -191c0 -59 -28 -107 -68 -135c57 -32 93 -95 93 -171c0 -129 -93 -227 -234 -227s-234 99 -234 227c0 77 36 140 93 171c-40 29 -68 76 -68 135c0 109 85 191 209 191zM274 438c44 0 75 32 75 78s-31 79 -75 79s-75 -33 -75 -79
s31 -78 75 -78zM275 106c57 0 96 44 96 111s-39 111 -96 111s-96 -44 -96 -111s39 -111 96 -111z" />
    <glyph glyph-name="nine" unicode="9" horiz-adv-x="548" 
d="M507 485c0 -42 -11 -80 -28 -114l-184 -371h-148l128 260c-141 0 -238 98 -238 226c0 126 94 226 235 226s235 -101 235 -227zM368 485c0 66 -38 109 -96 109s-96 -43 -96 -109s38 -109 96 -109s96 43 96 109z" />
    <glyph glyph-name="colon" unicode=":" horiz-adv-x="274" 
d="M214 148v-148h-154v148h154zM214 549v-148h-154v148h154z" />
    <glyph glyph-name="semicolon" unicode=";" horiz-adv-x="274" 
d="M214 549v-148h-154v148h154zM214 148v-142c0 -74 -52 -138 -154 -140v63c50 7 72 29 74 71h-74v148h154z" />
    <glyph glyph-name="less" unicode="&#x3c;" horiz-adv-x="562" 
d="M500 77l-438 192v104l438 192v-127l-276 -117l276 -117v-127z" />
    <glyph glyph-name="equal" unicode="=" horiz-adv-x="562" 
d="M50 365v115h462v-115h-462zM50 172v115h462v-115h-462z" />
    <glyph glyph-name="greater" unicode="&#x3e;" horiz-adv-x="562" 
d="M500 269l-438 -192v127l276 117l-276 117v127l438 -192v-104z" />
    <glyph glyph-name="question" unicode="?" horiz-adv-x="537" 
d="M270 712c130 0 210 -88 210 -201c0 -82 -28 -136 -90 -185c-42 -33 -55 -57 -55 -102v-25h-140v34c0 80 16 117 89 174c42 32 56 57 56 96c0 49 -25 82 -73 82c-47 0 -77 -30 -82 -88l-138 9c8 122 90 206 223 206zM195 0v136h140v-136h-140z" />
    <glyph glyph-name="at" unicode="@" horiz-adv-x="756" 
d="M275 215v52c0 113 52 206 182 206c52 0 99 -25 122 -61v8c0 120 -93 187 -201 187s-201 -68 -201 -190v-312c0 -118 93 -189 201 -189c42 0 81 7 112 26l52 -90c-52 -29 -107 -41 -164 -41c-165 0 -312 119 -312 279v342c0 164 147 280 312 280s312 -116 312 -277v-206
c0 -136 -71 -223 -208 -223s-207 89 -207 209zM579 232v79c-16 30 -50 50 -87 50c-59 0 -93 -40 -93 -113v-17c0 -76 26 -113 88 -113c55 0 92 36 92 114z" />
    <glyph glyph-name="A" unicode="A" horiz-adv-x="624" 
d="M420 130h-216l-38 -130h-161l227 700h160l227 -700h-161zM240 256h144l-72 246z" />
    <glyph glyph-name="B" unicode="B" horiz-adv-x="603" 
d="M323 0h-257v700h247c135 0 233 -64 233 -194c0 -69 -36 -119 -88 -141c66 -25 108 -80 108 -159c0 -147 -109 -206 -243 -206zM220 417h78c55 0 94 23 94 79c0 55 -39 78 -94 78h-78v-157zM220 300v-174h95c56 0 96 29 96 87s-40 87 -96 87h-95z" />
    <glyph glyph-name="C" unicode="C" horiz-adv-x="612" 
d="M47 270v160c0 165 104 282 265 282c146 0 244 -91 264 -237l-153 -19c-12 79 -48 120 -109 120c-75 0 -113 -56 -113 -160v-132c0 -104 38 -160 113 -160c61 0 97 41 109 120l153 -19c-20 -146 -118 -237 -264 -237c-161 0 -265 117 -265 282z" />
    <glyph glyph-name="D" unicode="D" horiz-adv-x="613" 
d="M67 0v700h235c161 0 264 -103 264 -270v-160c0 -167 -103 -270 -264 -270h-235zM412 284v132c0 105 -40 148 -112 148h-79v-428h79c72 0 112 43 112 148z" />
    <glyph glyph-name="E" unicode="E" horiz-adv-x="564" 
d="M67 0v700h455v-136h-301v-137h260v-136h-260v-155h301v-136h-455z" />
    <glyph glyph-name="F" unicode="F" horiz-adv-x="544" 
d="M67 0v700h455v-136h-301v-146h270v-136h-270v-282h-154z" />
    <glyph glyph-name="G" unicode="G" horiz-adv-x="619" 
d="M201 416v-133c0 -104 40 -160 111 -160c72 0 111 54 111 133v4h-113v120h268v-106c0 -168 -96 -286 -265 -286c-162 0 -266 116 -266 281v161c0 165 104 282 265 282c146 0 244 -91 264 -237l-153 -19c-12 79 -48 120 -109 120c-75 0 -113 -56 -113 -160z" />
    <glyph glyph-name="H" unicode="H" horiz-adv-x="640" 
d="M419 0v291h-198v-291h-154v700h154v-273h198v273h154v-700h-154z" />
    <glyph glyph-name="I" unicode="I" horiz-adv-x="302" 
d="M228 700v-700h-154v700h154z" />
    <glyph glyph-name="J" unicode="J" horiz-adv-x="554" 
d="M344 244v456h154v-473c0 -149 -94 -239 -241 -239c-126 0 -217 73 -238 216l146 17c10 -67 41 -97 89 -97c52 0 90 35 90 120z" />
    <glyph glyph-name="K" unicode="K" horiz-adv-x="621" 
d="M556 700v-20c0 -136 -34 -228 -139 -309l204 -371h-171l-155 287l-75 -49v-238h-154v700h154v-290l65 43c92 61 117 136 117 227v20h154z" />
    <glyph glyph-name="L" unicode="L" horiz-adv-x="534" 
d="M67 0v700h154v-564h301v-136h-455z" />
    <glyph glyph-name="M" unicode="M" horiz-adv-x="780" 
d="M336 172l-115 217v-389h-154v700h129l194 -363l194 363h129v-700h-154v389l-115 -217h-108z" />
    <glyph glyph-name="N" unicode="N" horiz-adv-x="669" 
d="M467 0l-246 417v-417h-154v700h135l246 -417v417h154v-700h-135z" />
    <glyph glyph-name="O" unicode="O" horiz-adv-x="624" 
d="M312 712c161 0 265 -117 265 -281v-162c0 -164 -104 -281 -265 -281s-265 117 -265 281v162c0 164 104 281 265 281zM312 124c70 0 111 53 111 159v134c0 106 -41 159 -111 159s-111 -53 -111 -159v-134c0 -106 41 -159 111 -159z" />
    <glyph glyph-name="P" unicode="P" horiz-adv-x="603" 
d="M333 240h-113v-240h-154v700h265c116 0 235 -72 235 -230c0 -157 -118 -230 -233 -230zM412 470c0 64 -42 94 -98 94h-94v-188h94c56 0 98 30 98 94z" />
    <glyph glyph-name="Q" unicode="Q" horiz-adv-x="624" 
d="M527 -32l-69 60c-41 -26 -90 -40 -146 -40c-161 0 -265 117 -265 281v162c0 164 104 281 265 281s265 -117 265 -281v-162c0 -57 -13 -109 -36 -151l67 -58zM312 124c11 0 22 1 31 4l-57 50l81 92l51 -45c3 17 5 36 5 58v134c0 106 -41 159 -111 159s-111 -53 -111 -159
v-134c0 -106 41 -159 111 -159z" />
    <glyph glyph-name="R" unicode="R" horiz-adv-x="611" 
d="M300 250h-80v-250h-154v700h265c116 0 235 -67 235 -225c0 -105 -52 -169 -121 -201l153 -274h-172zM412 475c0 64 -42 89 -98 89h-94v-178h94c56 0 98 25 98 89z" />
    <glyph glyph-name="S" unicode="S" horiz-adv-x="597" 
d="M560 203c0 -128 -93 -215 -248 -215c-133 0 -241 73 -275 218l149 19c18 -68 64 -101 125 -101c58 0 95 28 95 76c0 45 -28 69 -92 82l-55 11c-134 27 -203 97 -203 209c0 110 80 210 235 210c131 0 227 -75 252 -204l-147 -18c-14 56 -50 86 -105 86
c-53 0 -81 -31 -81 -72c0 -39 30 -66 92 -79l57 -12c137 -27 201 -98 201 -210z" />
    <glyph glyph-name="T" unicode="T" horiz-adv-x="538" 
d="M12 564v136h514v-136h-180v-564h-154v564h-180z" />
    <glyph glyph-name="U" unicode="U" horiz-adv-x="638" 
d="M214 700v-370c0 -141 22 -207 105 -207s105 66 105 207v370h154v-440c0 -165 -98 -272 -259 -272s-259 107 -259 272v440h154z" />
    <glyph glyph-name="W" unicode="W" horiz-adv-x="947" 
d="M548 700l117 -451l110 451h161l-190 -700h-151l-122 473l-121 -473h-151l-190 700h160l111 -451l117 451h149z" />
    <glyph glyph-name="X" unicode="X" horiz-adv-x="630" 
d="M448 0l-133 244l-133 -244h-166l201 361l-186 339h165l119 -223l119 223h165l-186 -339l201 -361h-166z" />
    <glyph glyph-name="Y" unicode="Y" horiz-adv-x="604" 
d="M225 0v318l-213 382h167l123 -235l123 235h167l-213 -382v-318h-154z" />
    <glyph glyph-name="Z" unicode="Z" horiz-adv-x="541" 
d="M38 109l271 455h-262v136h456v-109l-271 -455h271v-136h-465v109z" />
    <glyph glyph-name="bracketleft" unicode="[" horiz-adv-x="352" 
d="M73 -93v876h246v-118h-101v-640h101v-118h-246z" />
    <glyph glyph-name="backslash" unicode="\" horiz-adv-x="466" 
d="M321 -93l-320 876h144l320 -876h-144z" />
    <glyph glyph-name="bracketright" unicode="]" horiz-adv-x="352" 
d="M279 783v-876h-246v118h102v640h-102v118h246z" />
    <glyph glyph-name="asciicircum" unicode="^" horiz-adv-x="510" 
d="M20 475l169 225h132l169 -225h-146l-89 114l-89 -114h-146z" />
    <glyph glyph-name="underscore" unicode="_" horiz-adv-x="500" 
d="M0 -172v72h500v-72h-500z" />
    <glyph glyph-name="grave" unicode="`" horiz-adv-x="394" 
d="M214 569l-102 161h127l70 -161h-95z" />
    <glyph glyph-name="a" unicode="a" horiz-adv-x="522" 
d="M36 135v11c0 85 62 153 219 153h73v16c0 53 -29 81 -73 81c-35 0 -64 -19 -80 -53l-124 30c36 82 108 139 213 139c134 0 207 -83 207 -196v-316h-143v52c-27 -41 -71 -64 -130 -64c-94 0 -162 59 -162 147zM235 104c41 0 77 18 93 48v50h-90c-39 0 -65 -20 -65 -49v-6
c0 -25 22 -43 62 -43z" />
    <glyph glyph-name="b" unicode="b" horiz-adv-x="538" 
d="M200 0h-144v712h144v-255c23 34 68 55 120 55c106 0 179 -78 179 -197v-130c0 -119 -73 -197 -179 -197c-52 0 -97 21 -120 55v-43zM200 345v-190c15 -29 40 -48 73 -48c60 0 82 36 82 112v62c0 76 -22 112 -82 112c-33 0 -58 -19 -73 -48z" />
    <glyph glyph-name="c" unicode="c" horiz-adv-x="513" 
d="M39 200v99c0 118 93 212 224 212c117 0 202 -76 219 -177l-142 -18c-8 53 -39 77 -77 77c-44 0 -80 -32 -80 -104v-79c0 -72 36 -104 80 -104c38 0 69 24 77 77l142 -18c-17 -101 -102 -177 -219 -177c-131 0 -224 94 -224 212z" />
    <glyph glyph-name="d" unicode="d" horiz-adv-x="538" 
d="M482 0h-144v43c-23 -34 -68 -55 -120 -55c-106 0 -179 78 -179 197v130c0 119 73 197 179 197c52 0 97 -21 120 -55v255h144v-712zM338 155v190c-15 29 -40 48 -73 48c-60 0 -82 -36 -82 -112v-62c0 -76 22 -112 82 -112c33 0 58 19 73 48z" />
    <glyph glyph-name="e" unicode="e" horiz-adv-x="526" 
d="M487 205h-304v-4c0 -59 34 -94 81 -94c35 0 63 19 74 51l145 -12c-31 -100 -109 -158 -219 -158c-134 0 -225 96 -225 212v99c0 118 93 213 224 213c129 0 224 -94 224 -208v-99zM183 301h160v3c0 52 -31 89 -80 89s-80 -37 -80 -89v-3z" />
    <glyph glyph-name="f" unicode="f" horiz-adv-x="372" 
d="M31 381v119h67v25c0 143 54 187 205 187h52v-119h-51c-48 0 -62 -19 -62 -71v-22h113v-119h-113v-381h-144v381h-67z" />
    <glyph glyph-name="g" unicode="g" horiz-adv-x="538" 
d="M338 43c-23 -34 -68 -55 -120 -55c-106 0 -179 78 -179 197v130c0 119 73 197 179 197c52 0 97 -21 120 -55v43h144v-516c0 -130 -76 -216 -216 -216c-100 0 -175 50 -207 141l130 31c14 -39 40 -56 76 -56c42 0 73 27 73 105v54zM338 155v190c-15 29 -40 48 -73 48
c-60 0 -82 -36 -82 -112v-62c0 -76 22 -112 82 -112c33 0 58 19 73 48z" />
    <glyph glyph-name="h" unicode="h" horiz-adv-x="550" 
d="M500 311v-311h-144v296c0 64 -25 97 -76 97c-34 0 -65 -22 -80 -56v-337h-144v712h144v-262c24 36 69 62 126 62c108 0 174 -75 174 -201z" />
    <glyph glyph-name="i" unicode="i" horiz-adv-x="276" 
d="M66 0v500h144v-500h-144zM66 580v132h144v-132h-144z" />
    <glyph glyph-name="j" unicode="j" horiz-adv-x="294" 
d="M84 580v132h144v-132h-144zM84 -32v532h144v-545c0 -116 -53 -167 -172 -167h-73v119h45c39 0 56 19 56 61z" />
    <glyph glyph-name="k" unicode="k" horiz-adv-x="519" 
d="M466 500v-16c0 -93 -29 -149 -101 -207l155 -277h-154l-106 204l-60 -40v-164h-144v712h144v-399l24 16c69 46 102 88 102 151v20h140z" />
    <glyph glyph-name="l" unicode="l" horiz-adv-x="318" 
d="M210 712v-532c0 -42 16 -61 55 -61h32v-119h-59c-119 0 -172 50 -172 167v545h144z" />
    <glyph glyph-name="m" unicode="m" horiz-adv-x="850" 
d="M500 336v-336h-144v296c0 64 -25 97 -76 97c-34 0 -65 -22 -80 -56v-337h-144v500h144v-50c24 36 69 62 126 62c66 0 116 -29 145 -79c30 43 88 79 155 79c108 0 174 -75 174 -201v-311h-144v296c0 64 -25 97 -76 97c-33 0 -64 -24 -80 -57z" />
    <glyph glyph-name="n" unicode="n" horiz-adv-x="550" 
d="M500 311v-311h-144v296c0 64 -25 97 -76 97c-34 0 -65 -22 -80 -56v-337h-144v500h144v-50c24 36 69 62 126 62c108 0 174 -75 174 -201z" />
    <glyph glyph-name="o" unicode="o" horiz-adv-x="526" 
d="M183 289v-78c0 -72 36 -104 80 -104s80 32 80 104v78c0 72 -36 104 -80 104s-80 -32 -80 -104zM39 201v98c0 118 93 213 224 213s224 -95 224 -213v-98c0 -118 -93 -213 -224 -213s-224 95 -224 213z" />
    <glyph glyph-name="p" unicode="p" horiz-adv-x="538" 
d="M56 500h144v-43c23 34 68 55 120 55c106 0 179 -78 179 -197v-130c0 -119 -73 -197 -179 -197c-52 0 -97 21 -120 55v-261h-144v718zM200 345v-190c15 -29 40 -48 73 -48c60 0 82 36 82 112v62c0 76 -22 112 -82 112c-33 0 -58 -19 -73 -48z" />
    <glyph glyph-name="q" unicode="q" horiz-adv-x="538" 
d="M338 500h144v-718h-144v261c-23 -34 -68 -55 -120 -55c-106 0 -179 78 -179 197v130c0 119 73 197 179 197c52 0 97 -21 120 -55v43zM338 155v190c-15 29 -40 48 -73 48c-60 0 -82 -36 -82 -112v-62c0 -76 22 -112 82 -112c33 0 58 19 73 48z" />
    <glyph glyph-name="r" unicode="r" horiz-adv-x="397" 
d="M56 0v500h144v-59c30 46 75 71 129 71c20 0 41 -3 57 -11v-118c-18 6 -39 10 -62 10c-54 0 -98 -24 -124 -66v-327h-144z" />
    <glyph glyph-name="s" unicode="s" horiz-adv-x="492" 
d="M312 143c0 24 -13 42 -62 52l-42 9c-108 23 -159 70 -159 156c0 87 69 152 188 152c105 0 181 -52 206 -146l-131 -18c-8 33 -34 54 -68 54c-32 0 -51 -19 -51 -40c0 -23 17 -39 61 -48l43 -9c112 -22 159 -71 159 -157c0 -92 -73 -160 -198 -160
c-114 0 -193 55 -221 158l134 19c14 -45 44 -67 84 -67c35 0 57 19 57 45z" />
    <glyph glyph-name="t" unicode="t" horiz-adv-x="373" 
d="M228 381v-201c0 -42 16 -61 54 -61h64v-119h-91c-119 0 -171 51 -171 167v214h-67v119h67v142h144v-142h112v-119h-112z" />
    <glyph glyph-name="u" unicode="u" horiz-adv-x="550" 
d="M50 189v311h144v-296c0 -64 25 -97 76 -97c34 0 65 22 80 56v337h144v-500h-144v50c-24 -36 -69 -62 -126 -62c-108 0 -174 75 -174 201z" />
    <glyph glyph-name="v" unicode="v" horiz-adv-x="512" 
d="M327 0h-142l-179 500h148l102 -306l102 306h148z" />
    <glyph glyph-name="w" unicode="w" horiz-adv-x="800" 
d="M243 195l92 305h130l92 -305l88 305h148l-161 -500h-135l-97 322l-97 -322h-135l-161 500h148z" />
    <glyph glyph-name="x" unicode="x" horiz-adv-x="490" 
d="M174 500l71 -139l71 139h157l-133 -242l143 -258h-157l-81 153l-81 -153h-157l143 258l-133 242h157z" />
    <glyph glyph-name="y" unicode="y" horiz-adv-x="511" 
d="M176 -40l23 70l-192 470h151l104 -286l91 286h151l-195 -582c-34 -102 -83 -129 -195 -129h-45v119h34c39 0 59 11 73 52z" />
    <glyph glyph-name="z" unicode="z" horiz-adv-x="490" 
d="M447 500v-98l-219 -283h229v-119h-424v98l218 283h-207v119h403z" />
    <glyph glyph-name="braceleft" unicode="{" horiz-adv-x="355" 
d="M40 288v114h23c36 0 53 20 53 51v178c0 113 57 152 191 152h29v-114h-33c-30 0 -43 -16 -43 -52v-173c0 -39 -20 -84 -68 -99c48 -15 68 -60 68 -99v-173c0 -36 13 -52 43 -52h33v-114h-29c-134 0 -191 39 -191 152v178c0 31 -17 51 -53 51h-23z" />
    <glyph glyph-name="bar" unicode="|" horiz-adv-x="332" 
d="M91 -93v876h150v-876h-150z" />
    <glyph glyph-name="braceright" unicode="}" horiz-adv-x="355" 
d="M315 402v-114h-23c-36 0 -53 -20 -53 -51v-178c0 -113 -57 -152 -191 -152h-29v114h33c30 0 43 16 43 52v173c0 39 20 84 68 99c-48 15 -68 60 -68 99v173c0 36 -13 52 -43 52h-33v114h29c134 0 191 -39 191 -152v-178c0 -31 17 -51 53 -51h23z" />
    <glyph glyph-name="asciitilde" unicode="~" horiz-adv-x="562" 
d="M238 277c-19 20 -28 28 -44 28c-25 0 -29 -37 -31 -83l-133 9c3 132 69 194 162 194c57 0 104 -28 132 -58c19 -20 28 -28 44 -28c25 0 29 37 31 83l133 -9c-3 -132 -69 -194 -162 -194c-57 0 -104 28 -132 58z" />
    <glyph glyph-name="periodcentered" unicode="&#xb7;" horiz-adv-x="274" 
d="M214 417v-148h-154v148h154z" />
    <glyph glyph-name="twodotenleader" unicode="&#x2025;" horiz-adv-x="548" 
d="M214 148v-148h-154v148h154zM488 148v-148h-154v148h154z" />
    <glyph glyph-name="ellipsis" unicode="&#x2026;" horiz-adv-x="822" 
d="M214 148v-148h-154v148h154zM762 148v-148h-154v148h154zM488 148v-148h-154v148h154z" />
    <glyph glyph-name="dieresis" unicode="&#xa8;" horiz-adv-x="394" 
d="M159 708v-120h-118v120h118zM353 708v-120h-118v120h118z" />
    <glyph glyph-name="uni00AD" unicode="&#xad;" horiz-adv-x="429" 
d="M50 265v118h329v-118h-329z" />
    <glyph glyph-name="afii00208" unicode="&#x2015;" horiz-adv-x="1000" 
d="M900 271h-800v112h800v-112z" />
    <glyph glyph-name="quoteleft" unicode="&#x2018;" horiz-adv-x="274" 
d="M60 513v142c0 74 52 138 154 140v-63c-50 -7 -72 -29 -74 -71h74v-148h-154z" />
    <glyph glyph-name="quoteright" unicode="&#x2019;" horiz-adv-x="274" 
d="M214 795v-142c0 -74 -52 -138 -154 -140v63c50 7 72 29 74 71h-74v148h154z" />
    <glyph glyph-name="quotedblleft" unicode="&#x201c;" horiz-adv-x="476" 
d="M262 513v142c0 74 52 138 154 140v-63c-50 -7 -72 -29 -74 -71h74v-148h-154zM60 513v142c0 74 52 138 154 140v-63c-50 -7 -72 -29 -74 -71h74v-148h-154z" />
    <glyph glyph-name="quotedblright" unicode="&#x201d;" horiz-adv-x="476" 
d="M416 795v-142c0 -74 -52 -138 -154 -140v63c50 7 72 29 74 71h-74v148h154zM214 795v-142c0 -74 -52 -138 -154 -140v63c50 7 72 29 74 71h-74v148h154z" />
    <glyph glyph-name="plusminus" unicode="&#xb1;" horiz-adv-x="562" 
d="M50 329v115h161v164h141v-164h160v-115h-160v-165h-141v165h-161zM50 0v115h462v-115h-462z" />
    <glyph glyph-name="multiply" unicode="&#xd7;" horiz-adv-x="562" 
d="M419 102l-138 138l-138 -138l-84 83l139 139l-139 138l84 83l138 -138l138 138l84 -83l-139 -138l139 -139z" />
    <glyph glyph-name="divide" unicode="&#xf7;" horiz-adv-x="562" 
d="M50 267v115h462v-115h-462zM345 576v-128h-129v128h129zM216 73v128h129v-128h-129z" />
    <glyph glyph-name="notequal" unicode="&#x2260;" horiz-adv-x="562" 
d="M50 365v115h272l53 95h91l-53 -95h99v-115h-164l-43 -78h207v-115h-271l-53 -95h-91l53 95h-100v115h164l43 78h-207z" />
    <glyph glyph-name="lessequal" unicode="&#x2264;" horiz-adv-x="562" 
d="M50 0v115h462v-115h-462zM500 141l-438 192v104l438 192v-127l-276 -117l276 -117v-127z" />
    <glyph glyph-name="greaterequal" unicode="&#x2265;" horiz-adv-x="562" 
d="M512 115v-115h-462v115h462zM500 333l-438 -192v127l276 117l-276 117v127l438 -192v-104z" />
    <glyph glyph-name="infinity" unicode="&#x221e;" horiz-adv-x="746" 
d="M309 329c-39 45 -68 59 -101 59c-35 0 -58 -24 -58 -59s23 -59 58 -59c33 0 62 14 101 59zM716 329c0 -92 -65 -157 -169 -157c-56 0 -114 23 -174 89c-60 -66 -118 -89 -174 -89c-104 0 -169 65 -169 157s65 157 169 157c56 0 114 -23 174 -89c60 66 118 89 174 89
c104 0 169 -65 169 -157zM596 329c0 35 -23 59 -58 59c-33 0 -62 -14 -101 -59c39 -45 68 -59 101 -59c35 0 58 24 58 59z" />
    <glyph glyph-name="degree" unicode="&#xb0;" horiz-adv-x="362" 
d="M132 562c0 -35 23 -53 49 -53s49 18 49 53s-23 53 -49 53s-49 -18 -49 -53zM32 562c0 86 59 146 149 146s149 -60 149 -146s-59 -146 -149 -146s-149 60 -149 146z" />
    <glyph glyph-name="minute" unicode="&#x2032;" horiz-adv-x="230" 
d="M28 465l49 235h125l-76 -235h-98z" />
    <glyph glyph-name="second" unicode="&#x2033;" horiz-adv-x="401" 
d="M28 465l49 235h125l-76 -235h-98zM199 465l49 235h125l-76 -235h-98z" />
    <glyph glyph-name="partialdiff" unicode="&#x2202;" horiz-adv-x="606" 
d="M404 210v97c-25 19 -71 30 -106 30c-65 0 -105 -46 -105 -101v-26c0 -56 40 -101 105 -101c64 0 106 45 106 101zM550 480v-267c0 -129 -91 -224 -252 -224s-251 95 -251 224v20c0 128 90 224 251 224c39 0 81 -12 106 -30v49c0 71 -38 116 -102 116
c-47 0 -88 -29 -102 -90l-141 26c35 110 117 184 246 184c155 0 245 -96 245 -232z" />
    <glyph glyph-name="equivalence" unicode="&#x2261;" horiz-adv-x="562" 
d="M50 460v115h462v-115h-462zM50 267v115h462v-115h-462zM50 74v115h462v-115h-462z" />
    <glyph glyph-name="section" unicode="&#xa7;" horiz-adv-x="514" 
d="M414 139c31 -30 47 -69 47 -120c0 -100 -78 -170 -195 -170c-105 0 -189 60 -213 155l129 17c9 -40 34 -62 76 -62c37 0 60 23 60 58c0 37 -22 57 -64 67c-133 22 -206 73 -206 201c0 61 24 107 58 137c-31 30 -47 69 -47 120c0 100 78 170 195 170
c105 0 189 -60 213 -155l-129 -17c-9 40 -34 62 -76 62c-37 0 -60 -23 -60 -58c0 -37 22 -57 64 -67c133 -22 206 -73 206 -201c0 -61 -24 -107 -58 -137zM303 194c20 19 28 47 28 81c0 58 -32 75 -114 92c-20 -19 -28 -47 -28 -81c0 -58 32 -75 114 -92z" />
    <glyph glyph-name="arrowright" unicode="&#x2192;" horiz-adv-x="860" 
d="M36 264v134h565v140l223 -207l-223 -207v140h-565z" />
    <glyph glyph-name="arrowleft" unicode="&#x2190;" horiz-adv-x="860" 
d="M824 398v-134h-565v-140l-223 207l223 207v-140h565z" />
    <glyph glyph-name="arrowup" unicode="&#x2191;" horiz-adv-x="860" 
d="M497 -38h-134v565h-140l207 223l207 -223h-140v-565z" />
    <glyph glyph-name="arrowdown" unicode="&#x2193;" horiz-adv-x="860" 
d="M363 750h134v-565h140l-207 -223l-207 223h140v565z" />
    <glyph glyph-name="arrowboth" unicode="&#x2194;" horiz-adv-x="860" 
d="M259 265v-140l-223 206l223 207v-140h342v140l223 -207l-223 -206v140h-342z" />
    <glyph glyph-name="radical" unicode="&#x221a;" horiz-adv-x="603" 
d="M380 0h-99l-160 281h-65v96h140l112 -196l152 589h123z" />
    <glyph glyph-name="integral" unicode="&#x222b;" horiz-adv-x="383" 
d="M253 560v-593c0 -134 -47 -187 -184 -187h-72v119h50c49 0 63 19 63 71v593c0 134 47 187 183 187h73v-119h-50c-49 0 -63 -19 -63 -71z" />
    <glyph glyph-name="intersection" unicode="&#x2229;" horiz-adv-x="684" 
d="M342 497c-88 0 -132 -66 -132 -196v-301h-147v320c0 176 104 297 279 297s279 -121 279 -297v-320h-147v301c0 130 -44 196 -132 196z" />
    <glyph glyph-name="acute" unicode="&#xb4;" horiz-adv-x="394" 
d="M281 730l-102 -161h-95l70 161h127z" />
    <glyph glyph-name="caron" unicode="&#x2c7;" horiz-adv-x="394" 
d="M253 569h-112l-121 161h108l69 -70l69 70h108z" />
    <glyph glyph-name="breve" unicode="&#x2d8;" horiz-adv-x="394" 
d="M197 660c36 0 58 24 66 65l101 -17c-19 -94 -81 -138 -167 -138s-148 44 -167 138l101 17c8 -41 30 -65 66 -65z" />
    <glyph glyph-name="hungarumlaut" unicode="&#x2dd;" horiz-adv-x="394" 
d="M204 730l-96 -161h-85l64 161h117zM371 730l-108 -161h-90l81 161h117z" />
    <glyph glyph-name="ring" unicode="&#x2da;" horiz-adv-x="394" 
d="M164 648c0 -22 14 -35 33 -35s33 13 33 35s-14 35 -33 35s-33 -13 -33 -35zM85 648c0 68 49 109 112 109s112 -41 112 -109s-49 -109 -112 -109s-112 41 -112 109z" />
    <glyph glyph-name="dotaccent" unicode="&#x2d9;" horiz-adv-x="394" 
d="M258 709v-123h-122v123h122z" />
    <glyph glyph-name="cedilla" unicode="&#xb8;" horiz-adv-x="394" 
d="M64 -197l51 67c16 -14 37 -22 57 -22s31 9 31 24c0 18 -29 30 -74 32l-10 13l38 83h98l-18 -44c47 -15 74 -47 74 -95c0 -62 -45 -106 -129 -106c-45 0 -89 18 -118 48z" />
    <glyph glyph-name="ogonek" unicode="&#x2db;" horiz-adv-x="394" 
d="M150 0h112c-60 -35 -82 -73 -82 -100v-5c0 -16 12 -29 30 -29c16 0 34 9 50 25l68 -69c-33 -37 -81 -58 -132 -58c-77 0 -130 44 -130 109v7c0 45 32 92 84 120z" />
    <glyph glyph-name="exclamdown" unicode="&#xa1;" horiz-adv-x="343" 
d="M97 -93l22 368h105l22 -368v-107h-149v107zM101 361v139h141v-139h-141z" />
    <glyph glyph-name="questiondown" unicode="&#xbf;" horiz-adv-x="537" 
d="M267 -211c-130 0 -210 88 -210 201c0 82 28 136 90 185c42 33 55 57 55 102v25h140v-34c0 -80 -16 -117 -89 -174c-42 -32 -56 -57 -56 -96c0 -49 25 -82 73 -82c47 0 77 30 82 88l138 -9c-8 -122 -90 -206 -223 -206zM342 501v-136h-140v136h140z" />
    <glyph glyph-name="summation" unicode="&#x2211;" horiz-adv-x="603" 
d="M37 3l163 322l-163 298v117h539v-120h-370l144 -273v-44l-141 -294h367v-120h-539v114z" />
    <glyph glyph-name="product" unicode="&#x220f;" horiz-adv-x="640" 
d="M419 -111v715h-198v-715h-154v851h506v-851h-154z" />
    <glyph glyph-name="currency" unicode="&#xa4;" horiz-adv-x="654" 
d="M218 322c0 -71 47 -117 109 -117s109 46 109 117s-47 117 -109 117s-109 -46 -109 -117zM96 322c0 45 11 84 36 119l-85 87l83 83l92 -92c30 15 68 26 105 26s75 -11 105 -26l92 92l83 -83l-85 -87c25 -35 36 -74 36 -119s-11 -84 -36 -119l85 -87l-83 -83l-92 92
c-30 -15 -68 -26 -105 -26s-75 11 -105 26l-92 -92l-83 83l85 87c-25 35 -36 74 -36 119z" />
    <glyph glyph-name="uni2109" unicode="&#x2109;" horiz-adv-x="865" 
d="M387 0v700h456v-136h-301v-146h270v-136h-270v-282h-155zM131 562c0 -36 23 -54 49 -54c25 0 49 18 49 54c0 35 -24 53 -49 53c-26 0 -49 -18 -49 -53zM32 562c0 86 58 146 148 146c89 0 148 -60 148 -146c0 -87 -59 -146 -148 -146c-90 0 -148 59 -148 146z" />
    <glyph glyph-name="perthousand" unicode="&#x2030;" horiz-adv-x="1231" 
d="M362 560v-79c0 -82 -54 -152 -153 -152s-153 70 -153 152v79c0 82 54 152 153 152s153 -70 153 -152zM249 485v71c0 39 -15 58 -40 58s-40 -19 -40 -58v-71c0 -39 15 -58 40 -58s40 19 40 58zM641 700l-292 -700h-116l292 700h116zM512 140v79c0 82 54 152 153 152
s153 -70 153 -152v-79c0 -82 -54 -152 -153 -152s-153 70 -153 152zM625 215v-71c0 -39 15 -58 40 -58s40 19 40 58v71c0 39 -15 58 -40 58s-40 -19 -40 -58zM869 140v79c0 82 54 152 153 152s153 -70 153 -152v-79c0 -82 -54 -152 -153 -152s-153 70 -153 152zM982 215v-71
c0 -39 15 -58 40 -58s40 19 40 58v71c0 39 -15 58 -40 58s-40 -19 -40 -58z" />
    <glyph glyph-name="paragraph" unicode="&#xb6;" horiz-adv-x="518" 
d="M255 267h-21c-127 0 -192 78 -192 212v9c0 134 65 212 192 212h216v-831h-78v756h-39v-756h-78v398z" />
    <glyph glyph-name="dagger" unicode="&#x2020;" horiz-adv-x="574" 
d="M358 465v-596h-142v596h-149v115h149v168h142v-168h149v-115h-149z" />
    <glyph glyph-name="daggerdbl" unicode="&#x2021;" horiz-adv-x="574" 
d="M507 152v-115h-149v-168h-142v168h-149v115h149v313h-149v115h149v168h142v-168h149v-115h-149v-313h149z" />
    <glyph glyph-name="arrowupdn" unicode="&#x2195;" horiz-adv-x="860" 
d="M363 527h-140l207 223l207 -223h-140v-342h140l-207 -223l-207 223h140v342z" />
    <glyph glyph-name="afii61352" unicode="&#x2116;" horiz-adv-x="932" 
d="M355 0l-148 363v-363h-141v700h127l148 -363v363h141v-700h-127zM887 363v-72c0 -104 -76 -168 -181 -168s-181 64 -181 168v72c0 104 76 168 181 168s181 -64 181 -168zM540 0v96h331v-96h-331zM749 299v56c0 35 -12 63 -43 63s-43 -28 -43 -63v-56c0 -35 12 -63 43 -63
s43 28 43 63z" />
    <glyph glyph-name="trademark" unicode="&#x2122;" horiz-adv-x="648" 
d="M11 614v86h258v-86h-82v-248h-94v248h-82zM427 441l-38 79v-154h-94v334h78l84 -168l84 168h78v-334h-94v154l-38 -79h-60z" />
    <glyph glyph-name="uni2121" unicode="&#x2121;" horiz-adv-x="997" 
d="M538 -12c-123 0 -197 75 -197 191v134c0 116 74 199 197 199c122 0 196 -83 196 -199v-114h-256v-16c0 -52 22 -81 63 -81c28 0 55 15 64 58l126 -19c-26 -98 -91 -153 -193 -153zM12 579v121h405v-121h-134v-579h-137v579h-134zM910 712v-549c0 -34 12 -49 45 -49h21
v-114h-42c-102 0 -155 52 -155 154v558h131zM597 305v14c0 47 -17 79 -59 79s-60 -32 -60 -79v-14h119z" />
    <glyph glyph-name="Euro" unicode="&#x20ac;" horiz-adv-x="641" 
d="M229 318h128l-13 -70h-114c8 -81 46 -124 112 -124c61 0 97 41 109 120l153 -19c-20 -146 -118 -237 -264 -237c-154 0 -256 106 -265 260h-59v70h59v45h-59v70h59c1 163 105 279 265 279c146 0 244 -91 264 -237l-153 -19c-12 79 -48 120 -109 120
c-71 0 -109 -50 -113 -143h148l-13 -70h-135v-45z" />
    <glyph glyph-name="registered" unicode="&#xae;" horiz-adv-x="754" 
d="M377 -12c-196 0 -332 128 -332 342v40c0 214 136 342 332 342s332 -128 332 -342v-40c0 -214 -136 -342 -332 -342zM377 660c-173 0 -276 -113 -276 -298v-24c0 -185 103 -298 276 -298s276 113 276 298v24c0 185 -103 298 -276 298zM442 139l-76 147h-33v-147h-105v419
h165c69 0 144 -45 144 -136c0 -59 -32 -98 -73 -119l92 -164h-114zM332 378h50c30 0 51 16 51 45c0 28 -21 43 -51 43h-50v-88z" />
    <glyph glyph-name="afii61289" unicode="&#x2113;" horiz-adv-x="549" 
d="M307 107c32 0 60 22 71 61l136 -26c-38 -103 -109 -154 -210 -154c-105 0 -183 62 -198 142c-21 -5 -44 -11 -67 -15l-23 126c32 5 61 11 88 19v258c0 119 73 194 190 194s190 -75 190 -194v-11c0 -126 -61 -248 -239 -329c1 -44 24 -71 62 -71zM343 502v7
c0 54 -16 83 -49 83s-49 -29 -49 -83v-185c68 48 98 111 98 178z" />
    <glyph glyph-name="Omega" unicode="&#x2126;" horiz-adv-x="644" 
d="M322 576c-67 0 -110 -48 -110 -145v-148c0 -77 22 -121 78 -151v-132h-227v136h69c-47 30 -74 71 -74 139v169c0 161 106 268 264 268s264 -107 264 -268v-169c0 -68 -27 -109 -74 -139h69v-136h-227v132c56 30 78 74 78 151v148c0 97 -43 145 -110 145z" />
    <glyph glyph-name="AE" unicode="&#xc6;" horiz-adv-x="903" 
d="M861 700v-136h-301v-137h260v-136h-260v-156h301v-135h-455v130h-189l-60 -130h-177l342 700h539zM275 256h131v282z" />
    <glyph glyph-name="Eth" unicode="&#xd0;" horiz-adv-x="613" 
d="M67 395v305h235c161 0 264 -103 264 -270v-160c0 -167 -103 -270 -264 -270h-235v305h-67v90h67zM221 395h100v-90h-100v-169h79c72 0 112 43 112 148v132c0 105 -40 148 -112 148h-79v-169z" />
    <glyph glyph-name="ordfeminine" unicode="&#xaa;" horiz-adv-x="414" 
d="M35 434v7c0 66 49 114 160 114h56v12c0 28 -18 52 -51 52c-24 0 -41 -14 -53 -33l-104 19c24 59 80 103 163 103c109 0 159 -63 159 -141v-234h-114v28c-24 -26 -54 -37 -92 -37c-71 0 -124 47 -124 110zM189 416c24 0 47 8 62 23v36h-64c-28 0 -42 -11 -42 -30v-2
c0 -18 15 -27 44 -27z" />
    <glyph glyph-name="Hbar" unicode="&#x126;" horiz-adv-x="640" 
d="M6 604h61v96h154v-96h198v96h154v-96h61v-91h-61v-513h-154v291h-198v-291h-154v513h-61v91zM221 427h198v86h-198v-86z" />
    <glyph glyph-name="Ldot" unicode="&#x13f;" horiz-adv-x="534" 
d="M67 0v700h154v-564h301v-136h-455zM460 439v-123h-122v123h122z" />
    <glyph glyph-name="Lslash" unicode="&#x141;" horiz-adv-x="534" 
d="M-3 285l70 37v378h154v-297l166 87v-89l-166 -87v-178h301v-136h-455v233l-70 -37v89z" />
    <glyph glyph-name="Oslash" unicode="&#xd8;" horiz-adv-x="624" 
d="M69 -32l52 97c-48 50 -74 121 -74 204v162c0 164 104 281 265 281c52 0 98 -12 137 -34l29 54h77l-52 -97c47 -50 74 -121 74 -204v-162c0 -164 -104 -281 -265 -281c-52 0 -99 12 -137 34l-29 -54h-77zM312 124c70 0 111 53 111 159v134c0 22 -2 41 -5 59l-175 -327
c18 -17 41 -25 69 -25zM201 283c0 -22 1 -42 5 -59l175 327c-18 16 -42 25 -69 25c-70 0 -111 -53 -111 -159v-134z" />
    <glyph glyph-name="OE" unicode="&#x152;" horiz-adv-x="909" 
d="M311 0c-161 0 -264 103 -264 270v160c0 167 103 270 264 270h556v-136h-301v-137h260v-136h-260v-155h301v-136h-556zM201 416v-132c0 -105 40 -148 112 -148h99v428h-99c-72 0 -112 -43 -112 -148z" />
    <glyph glyph-name="ordmasculine" unicode="&#xba;" horiz-adv-x="414" 
d="M256 485v62c0 45 -20 65 -50 65s-50 -20 -50 -65v-62c0 -45 20 -65 50 -65s50 20 50 65zM376 555v-78c0 -87 -72 -153 -170 -153s-170 66 -170 153v78c0 87 72 153 170 153s170 -66 170 -153z" />
    <glyph glyph-name="Thorn" unicode="&#xde;" horiz-adv-x="603" 
d="M66 700h154v-123h111c116 0 235 -72 235 -230c0 -157 -118 -230 -233 -230h-113v-117h-154v700zM412 347c0 64 -42 94 -98 94h-94v-188h94c56 0 98 30 98 94z" />
    <glyph glyph-name="Tbar" unicode="&#x166;" horiz-adv-x="538" 
d="M91 389h101v175h-180v136h514v-136h-180v-175h101v-90h-101v-299h-154v299h-101v90z" />
    <glyph glyph-name="Eng" unicode="&#x14a;" horiz-adv-x="669" 
d="M602 700v-747c0 -109 -45 -165 -178 -165h-65v133h47c30 0 42 18 42 49v63l-227 384v-417h-154v700h135l246 -417v417h154z" />
    <glyph glyph-name="onehalf" unicode="&#xbd;" horiz-adv-x="960" 
d="M344 237h-277v97h79v242l-79 -34v106l107 52h91v-366h79v-97zM710 700l-342 -700h-118l342 700h118zM927 329c0 -45 -19 -80 -47 -112l-104 -120h151v-97h-312v75l168 197c19 22 26 39 26 56c0 33 -14 46 -38 46s-39 -15 -39 -48v-23l-117 7v17c0 84 62 144 156 144
c92 0 156 -57 156 -142z" />
    <glyph glyph-name="onethird" unicode="&#x2153;" horiz-adv-x="960" 
d="M344 237h-277v97h79v242l-79 -34v106l107 52h91v-366h79v-97zM710 700l-342 -700h-118l342 700h118zM734 204l-53 59l86 102h-142v98h287v-84l-79 -89c65 -15 97 -68 97 -142c0 -90 -58 -156 -160 -156c-106 0 -160 70 -160 167l118 5v-15c0 -39 19 -60 42 -60
c27 0 42 20 42 60c0 44 -16 65 -44 65c-9 0 -21 -2 -34 -10z" />
    <glyph glyph-name="twothirds" unicode="&#x2154;" horiz-adv-x="960" 
d="M348 566c0 -45 -19 -80 -47 -112l-104 -120h151v-97h-312v75l168 197c19 22 26 39 26 56c0 33 -14 46 -38 46s-39 -15 -39 -48v-23l-117 7v17c0 84 62 144 156 144c92 0 156 -57 156 -142zM710 700l-342 -700h-118l342 700h118zM734 204l-53 59l86 102h-142v98h287v-84
l-79 -89c65 -15 97 -68 97 -142c0 -90 -58 -156 -160 -156c-106 0 -160 70 -160 167l118 5v-15c0 -39 19 -60 42 -60c27 0 42 20 42 60c0 44 -16 65 -44 65c-9 0 -21 -2 -34 -10z" />
    <glyph glyph-name="onequarter" unicode="&#xbc;" horiz-adv-x="960" 
d="M344 237h-277v97h79v242l-79 -34v106l107 52h91v-366h79v-97zM710 700l-342 -700h-118l342 700h118zM685 174h64v111zM915 174v-94h-47v-80h-119v80h-172v79l172 304h119v-289h47z" />
    <glyph glyph-name="threequarters" unicode="&#xbe;" horiz-adv-x="960" 
d="M155 441l-53 59l86 102h-142v98h287v-84l-79 -89c65 -15 97 -68 97 -142c0 -90 -58 -156 -160 -156c-106 0 -160 70 -160 167l118 5v-15c0 -39 19 -60 42 -60c27 0 42 20 42 60c0 44 -16 65 -44 65c-9 0 -21 -2 -34 -10zM710 700l-342 -700h-118l342 700h118zM685 174h64
v111zM915 174v-94h-47v-80h-119v80h-172v79l172 304h119v-289h47z" />
    <glyph glyph-name="oneeighth" unicode="&#x215b;" horiz-adv-x="960" 
d="M344 237h-277v97h79v242l-79 -34v106l107 52h91v-366h79v-97zM710 700l-342 -700h-118l342 700h118zM761 209c-29 0 -50 -22 -50 -61c0 -38 21 -62 50 -62s50 24 50 62c0 39 -21 61 -50 61zM761 380c-24 0 -40 -18 -40 -45c0 -25 16 -44 40 -44s40 19 40 44
c0 27 -16 45 -40 45zM761 -8c-98 0 -163 65 -163 155c0 48 21 87 58 109c-24 17 -41 47 -41 85c0 76 58 130 146 130s146 -54 146 -130c0 -38 -17 -68 -41 -85c38 -22 58 -61 58 -109c0 -90 -65 -155 -163 -155z" />
    <glyph glyph-name="threeeighths" unicode="&#x215c;" horiz-adv-x="960" 
d="M155 441l-53 59l86 102h-142v98h287v-84l-79 -89c65 -15 97 -68 97 -142c0 -90 -58 -156 -160 -156c-106 0 -160 70 -160 167l118 5v-15c0 -39 19 -60 42 -60c27 0 42 20 42 60c0 44 -16 65 -44 65c-9 0 -21 -2 -34 -10zM710 700l-342 -700h-118l342 700h118zM761 209
c-29 0 -50 -22 -50 -61c0 -38 21 -62 50 -62s50 24 50 62c0 39 -21 61 -50 61zM761 380c-24 0 -40 -18 -40 -45c0 -25 16 -44 40 -44s40 19 40 44c0 27 -16 45 -40 45zM761 -8c-98 0 -163 65 -163 155c0 48 21 87 58 109c-24 17 -41 47 -41 85c0 76 58 130 146 130
s146 -54 146 -130c0 -38 -17 -68 -41 -85c38 -22 58 -61 58 -109c0 -90 -65 -155 -163 -155z" />
    <glyph glyph-name="fiveeighths" unicode="&#x215d;" horiz-adv-x="960" 
d="M354 394c0 -101 -56 -165 -160 -165c-93 0 -160 61 -160 160l119 5v-5c0 -44 16 -63 41 -63s41 18 41 69c0 52 -17 69 -41 69c-16 0 -30 -8 -38 -21h-103v257h277v-95h-157v-53c10 6 25 9 39 9c79 0 142 -51 142 -167zM710 700l-342 -700h-118l342 700h118zM761 209
c-29 0 -50 -22 -50 -61c0 -38 21 -62 50 -62s50 24 50 62c0 39 -21 61 -50 61zM761 380c-24 0 -40 -18 -40 -45c0 -25 16 -44 40 -44s40 19 40 44c0 27 -16 45 -40 45zM761 -8c-98 0 -163 65 -163 155c0 48 21 87 58 109c-24 17 -41 47 -41 85c0 76 58 130 146 130
s146 -54 146 -130c0 -38 -17 -68 -41 -85c38 -22 58 -61 58 -109c0 -90 -65 -155 -163 -155z" />
    <glyph glyph-name="seveneighths" unicode="&#x215e;" horiz-adv-x="960" 
d="M33 605v95h312v-73l-143 -390h-123l135 368h-181zM710 700l-342 -700h-118l342 700h118zM761 209c-29 0 -50 -22 -50 -61c0 -38 21 -62 50 -62s50 24 50 62c0 39 -21 61 -50 61zM761 380c-24 0 -40 -18 -40 -45c0 -25 16 -44 40 -44s40 19 40 44c0 27 -16 45 -40 45z
M761 -8c-98 0 -163 65 -163 155c0 48 21 87 58 109c-24 17 -41 47 -41 85c0 76 58 130 146 130s146 -54 146 -130c0 -38 -17 -68 -41 -85c38 -22 58 -61 58 -109c0 -90 -65 -155 -163 -155z" />
    <glyph glyph-name="ae" unicode="&#xe6;" horiz-adv-x="814" 
d="M235 104c41 0 77 18 93 48v50h-90c-39 0 -65 -20 -65 -49v-6c0 -25 22 -43 62 -43zM471 301h160v3c0 52 -31 89 -80 89s-80 -37 -80 -89v-3zM626 158l145 -12c-31 -100 -108 -158 -218 -158c-71 0 -129 29 -166 73c-42 -49 -116 -73 -189 -73c-94 0 -162 59 -162 147v11
c0 85 62 153 219 153h73v16c0 53 -29 81 -73 81c-35 0 -64 -19 -80 -53l-124 30c36 82 108 139 213 139c57 0 112 -24 144 -66c32 40 88 66 144 66c129 0 223 -94 223 -208v-99h-304v-4c0 -59 34 -94 81 -94c35 0 63 19 74 51z" />
    <glyph glyph-name="dcroat" unicode="&#x111;" horiz-adv-x="538" 
d="M219 657h119v55h144v-55h61v-89h-61v-568h-144v43c-23 -34 -68 -55 -120 -55c-106 0 -179 78 -179 197v130c0 119 73 197 179 197c52 0 97 -21 120 -55v111h-119v89zM338 155v190c-15 29 -40 48 -73 48c-60 0 -82 -36 -82 -112v-62c0 -76 22 -112 82 -112
c33 0 58 19 73 48z" />
    <glyph glyph-name="eth" unicode="&#xf0;" horiz-adv-x="528" 
d="M121 612l91 19l-38 81h149l25 -53l103 21l15 -64l-89 -19l59 -123c24 -51 53 -111 53 -179v-100c0 -111 -81 -207 -225 -207s-225 96 -225 207v110c0 109 80 205 211 205c6 0 15 -1 20 -2l-29 61l-105 -21zM184 285v-70c0 -76 35 -108 80 -108s80 32 80 108v70
c0 75 -35 107 -80 107s-80 -32 -80 -107z" />
    <glyph glyph-name="hbar" unicode="&#x127;" horiz-adv-x="550" 
d="M-3 657h59v55h144v-55h120v-89h-120v-118c24 36 69 62 126 62c108 0 174 -75 174 -201v-311h-144v296c0 64 -25 97 -76 97c-34 0 -65 -22 -80 -56v-337h-144v568h-59v89z" />
    <glyph glyph-name="dotlessi" unicode="&#x131;" horiz-adv-x="276" 
d="M66 0v500h144v-500h-144z" />
    <glyph glyph-name="kgreenlandic" unicode="&#x138;" horiz-adv-x="519" 
d="M466 500v-16c0 -93 -29 -149 -101 -207l155 -277h-154l-106 204l-60 -40v-164h-144v500h144v-187l24 16c69 46 102 88 102 151v20h140z" />
    <glyph glyph-name="ldot" unicode="&#x140;" horiz-adv-x="417" 
d="M210 712v-532c0 -42 16 -61 55 -61h32v-119h-59c-119 0 -172 50 -172 167v545h144zM391 439v-123h-122v123h122z" />
    <glyph glyph-name="lslash" unicode="&#x142;" horiz-adv-x="301" 
d="M210 712v-285l78 43v-90l-78 -43v-157c0 -42 16 -61 55 -61h32v-119h-59c-119 0 -172 50 -172 167v92l-62 -33v90l62 33v363h144z" />
    <glyph glyph-name="oslash" unicode="&#xf8;" horiz-adv-x="526" 
d="M71 -38l42 78c-46 39 -73 96 -73 161v98c0 118 92 213 223 213c35 0 67 -7 95 -19l25 45h72l-42 -78c46 -39 73 -97 73 -161v-98c0 -118 -92 -213 -223 -213c-35 0 -67 7 -95 18l-24 -44h-73zM184 289v-78c0 -13 1 -25 3 -35l112 208c-11 6 -23 9 -36 9
c-44 0 -79 -32 -79 -104zM342 289c0 12 -1 24 -3 34l-112 -208c10 -6 23 -8 36 -8c44 0 79 32 79 104v78z" />
    <glyph glyph-name="oe" unicode="&#x153;" horiz-adv-x="830" 
d="M183 289v-78c0 -72 36 -104 80 -104c43 0 80 30 80 98v84c0 72 -36 104 -80 104s-80 -32 -80 -104zM487 301h160v3c0 52 -31 89 -80 89s-80 -37 -80 -89v-3zM642 158l145 -12c-31 -100 -109 -158 -219 -158c-63 0 -118 23 -153 65c-34 -42 -90 -65 -152 -65
c-131 0 -224 95 -224 213v98c0 118 93 213 224 213c63 0 118 -24 153 -67c34 43 89 67 151 67c129 0 224 -94 224 -208v-99h-304v-4c0 -59 34 -94 81 -94c35 0 63 19 74 51z" />
    <glyph glyph-name="germandbls" unicode="&#xdf;" horiz-adv-x="601" 
d="M285 290l-21 110c67 17 102 47 102 97v2c0 39 -26 79 -72 79c-50 0 -78 -33 -78 -108v-470h-154v488c0 147 95 224 232 224c146 0 226 -88 226 -197v-11c0 -52 -29 -103 -79 -128c84 -26 137 -91 137 -182v-14c0 -120 -83 -192 -209 -192c-51 0 -95 11 -129 32l36 120
c25 -13 47 -19 74 -19c42 0 74 23 74 72v3c0 62 -51 94 -139 94z" />
    <glyph glyph-name="thorn" unicode="&#xfe;" horiz-adv-x="538" 
d="M56 712h144v-255c23 34 68 55 120 55c106 0 179 -78 179 -197v-130c0 -119 -73 -197 -179 -197c-52 0 -97 21 -120 55v-261h-144v930zM200 345v-190c15 -29 40 -48 73 -48c60 0 82 36 82 112v62c0 76 -22 112 -82 112c-33 0 -58 -19 -73 -48z" />
    <glyph glyph-name="tbar" unicode="&#x167;" horiz-adv-x="373" 
d="M26 313h58v68h-67v119h67v142h144v-142h112v-119h-112v-68h82v-88h-82v-45c0 -42 16 -61 54 -61h64v-119h-91c-119 0 -171 51 -171 167v58h-58v88z" />
    <glyph glyph-name="eng" unicode="&#x14b;" horiz-adv-x="550" 
d="M500 311v-355c0 -117 -53 -168 -172 -168h-73v119h47c38 0 54 19 54 61v328c0 64 -25 97 -76 97c-34 0 -65 -22 -80 -56v-337h-144v500h144v-50c24 36 69 62 126 62c108 0 174 -75 174 -201z" />
    <glyph glyph-name="napostrophe" unicode="&#x149;" horiz-adv-x="638" 
d="M588 311v-311h-144v296c0 64 -25 97 -76 97c-34 0 -65 -22 -80 -56v-337h-144v500h144v-50c24 36 69 62 126 62c108 0 174 -75 174 -201zM145 712v-129c0 -69 -47 -125 -140 -127v56c46 6 66 26 68 65h-68v135h140z" />
    <glyph glyph-name="onesuperior" unicode="&#xb9;" 
d="M344 237h-277v97h79v242l-79 -34v106l107 52h91v-366h79v-97z" />
    <glyph glyph-name="twosuperior" unicode="&#xb2;" 
d="M348 566c0 -45 -19 -80 -47 -112l-104 -120h151v-97h-312v75l168 197c19 22 26 39 26 56c0 33 -14 46 -38 46s-39 -15 -39 -48v-23l-117 7v17c0 84 62 144 156 144c92 0 156 -57 156 -142z" />
    <glyph glyph-name="threesuperior" unicode="&#xb3;" 
d="M155 441l-53 59l86 102h-142v98h287v-84l-79 -89c65 -15 97 -68 97 -142c0 -90 -58 -156 -160 -156c-106 0 -160 70 -160 167l118 5v-15c0 -39 19 -60 42 -60c27 0 42 20 42 60c0 44 -16 65 -44 65c-9 0 -21 -2 -34 -10z" />
    <glyph glyph-name="foursuperior" unicode="&#x2074;" 
d="M128 411h64v111zM358 411v-94h-47v-80h-119v80h-172v79l172 304h119v-289h47z" />
    <glyph glyph-name="uni207F" unicode="&#x207f;" 
d="M35 237v351h116v-34c18 26 48 41 79 41c74 0 112 -48 112 -131v-227h-116v212c0 32 -12 50 -34 50c-18 0 -32 -10 -41 -29v-233h-116z" />
    <glyph glyph-name="oneinferior" unicode="&#x2081;" 
d="M344 -126h-277v97h79v242l-79 -34v106l107 52h91v-366h79v-97z" />
    <glyph glyph-name="twoinferior" unicode="&#x2082;" 
d="M348 203c0 -45 -19 -80 -47 -112l-104 -120h151v-97h-312v75l168 197c19 22 26 39 26 56c0 33 -14 46 -38 46s-39 -15 -39 -48v-23l-117 7v17c0 84 62 144 156 144c92 0 156 -57 156 -142z" />
    <glyph glyph-name="threeinferior" unicode="&#x2083;" 
d="M155 78l-53 59l86 102h-142v98h287v-84l-79 -89c65 -15 97 -68 97 -142c0 -90 -58 -156 -160 -156c-106 0 -160 70 -160 167l118 5v-15c0 -39 19 -60 42 -60c27 0 42 20 42 60c0 44 -16 65 -44 65c-9 0 -21 -2 -34 -10z" />
    <glyph glyph-name="fourinferior" unicode="&#x2084;" 
d="M128 48h64v111zM358 48v-94h-47v-80h-119v80h-172v79l172 304h119v-289h47z" />
    <glyph glyph-name="afii10017" unicode="&#x410;" horiz-adv-x="624" 
d="M420 130h-216l-38 -130h-161l227 700h160l227 -700h-161zM240 256h144l-72 246z" />
    <glyph glyph-name="afii10018" unicode="&#x411;" horiz-adv-x="597" 
d="M319 0h-253v700h427v-136h-273v-138h99c156 0 243 -82 243 -213s-87 -213 -243 -213zM408 213c0 47 -31 77 -102 77h-86v-154h86c71 0 102 30 102 77z" />
    <glyph glyph-name="afii10019" unicode="&#x412;" horiz-adv-x="603" 
d="M323 0h-257v700h247c135 0 233 -64 233 -194c0 -69 -36 -119 -88 -141c66 -25 108 -80 108 -159c0 -147 -109 -206 -243 -206zM220 417h78c55 0 94 23 94 79c0 55 -39 78 -94 78h-78v-157zM220 300v-174h95c56 0 96 29 96 87s-40 87 -96 87h-95z" />
    <glyph glyph-name="afii10020" unicode="&#x413;" horiz-adv-x="549" 
d="M66 0v700h476v-136h-322v-564h-154z" />
    <glyph glyph-name="afii10021" unicode="&#x414;" horiz-adv-x="655" 
d="M631 136v-256h-154v120h-306v-120h-154v256h71c29 91 40 195 40 291v273h430v-564h73zM245 136h159v428h-122v-146c0 -91 -12 -194 -37 -282z" />
    <glyph glyph-name="afii10022" unicode="&#x415;" horiz-adv-x="564" 
d="M67 0v700h455v-136h-301v-137h260v-136h-260v-155h301v-136h-455z" />
    <glyph glyph-name="afii10023" unicode="&#x401;" horiz-adv-x="564" 
d="M67 0v700h455v-136h-301v-137h260v-136h-260v-155h301v-136h-455zM255 902v-120h-118v120h118zM449 902v-120h-118v120h118z" />
    <glyph glyph-name="afii10024" unicode="&#x416;" horiz-adv-x="872" 
d="M359 0v248l-62 41l-125 -289h-167l172 375c-85 71 -115 139 -115 273v52h154v-52c0 -94 17 -140 91 -191l52 -36v279h154v-279l52 36c74 51 91 97 91 191v52h154v-52c0 -134 -30 -202 -115 -273l172 -375h-167l-125 289l-62 -41v-248h-154z" />
    <glyph glyph-name="afii10025" unicode="&#x417;" horiz-adv-x="582" 
d="M378 509c0 42 -29 67 -77 67c-54 0 -87 -31 -100 -86l-149 18c25 131 119 204 249 204c147 0 231 -86 231 -200c0 -68 -30 -119 -92 -146c71 -28 111 -86 111 -163c0 -121 -84 -215 -248 -215c-132 0 -242 70 -271 219l148 19c21 -71 62 -102 122 -102s95 32 95 80
c0 65 -47 93 -123 93h-45v136h45c68 0 104 25 104 76z" />
    <glyph glyph-name="afii10026" unicode="&#x418;" horiz-adv-x="669" 
d="M448 417l-246 -417h-135v700h154v-417l246 417h135v-700h-154v417z" />
    <glyph glyph-name="afii10027" unicode="&#x419;" horiz-adv-x="669" 
d="M448 417l-246 -417h-135v700h154v-417l246 417h135v-700h-154v417zM334 852c36 0 58 24 66 65l101 -17c-19 -94 -81 -138 -167 -138s-148 44 -167 138l101 17c8 -41 30 -65 66 -65z" />
    <glyph glyph-name="afii10028" unicode="&#x41a;" horiz-adv-x="621" 
d="M556 700v-20c0 -136 -34 -228 -139 -309l204 -371h-171l-155 287l-75 -49v-238h-154v700h154v-290l65 43c92 61 117 136 117 227v20h154z" />
    <glyph glyph-name="afii10029" unicode="&#x41b;" horiz-adv-x="693" 
d="M116 185v515h510v-700h-154v564h-202v-409c0 -116 -52 -167 -172 -167h-82v136h45c39 0 55 19 55 61z" />
    <glyph glyph-name="afii10030" unicode="&#x41c;" horiz-adv-x="780" 
d="M336 172l-115 217v-389h-154v700h129l194 -363l194 363h129v-700h-154v389l-115 -217h-108z" />
    <glyph glyph-name="afii10031" unicode="&#x41d;" horiz-adv-x="640" 
d="M419 0v291h-198v-291h-154v700h154v-273h198v273h154v-700h-154z" />
    <glyph glyph-name="afii10032" unicode="&#x41e;" horiz-adv-x="624" 
d="M312 712c161 0 265 -117 265 -281v-162c0 -164 -104 -281 -265 -281s-265 117 -265 281v162c0 164 104 281 265 281zM312 124c70 0 111 53 111 159v134c0 106 -41 159 -111 159s-111 -53 -111 -159v-134c0 -106 41 -159 111 -159z" />
    <glyph glyph-name="afii10033" unicode="&#x41f;" horiz-adv-x="640" 
d="M419 0v564h-198v-564h-154v700h506v-700h-154z" />
    <glyph glyph-name="afii10034" unicode="&#x420;" horiz-adv-x="603" 
d="M333 240h-113v-240h-154v700h265c116 0 235 -72 235 -230c0 -157 -118 -230 -233 -230zM412 470c0 64 -42 94 -98 94h-94v-188h94c56 0 98 30 98 94z" />
    <glyph glyph-name="afii10035" unicode="&#x421;" horiz-adv-x="612" 
d="M47 270v160c0 165 104 282 265 282c146 0 244 -91 264 -237l-153 -19c-12 79 -48 120 -109 120c-75 0 -113 -56 -113 -160v-132c0 -104 38 -160 113 -160c61 0 97 41 109 120l153 -19c-20 -146 -118 -237 -264 -237c-161 0 -265 117 -265 282z" />
    <glyph glyph-name="afii10036" unicode="&#x422;" horiz-adv-x="538" 
d="M12 564v136h514v-136h-180v-564h-154v564h-180z" />
    <glyph glyph-name="afii10037" unicode="&#x423;" horiz-adv-x="568" 
d="M200 179l19 51l-202 470h163l112 -292l101 292h164l-221 -577c-38 -99 -91 -123 -177 -123h-60v136h44c27 0 45 11 57 43z" />
    <glyph glyph-name="afii10038" unicode="&#x424;" horiz-adv-x="754" 
d="M303 487h-14c-67 0 -105 -55 -105 -130v-14c0 -75 38 -130 105 -130h14v274zM451 0h-148v83h-14c-151 0 -253 111 -253 245v44c0 134 102 245 253 245h14v83h148v-83h14c151 0 253 -111 253 -245v-44c0 -134 -102 -245 -253 -245h-14v-83zM465 487h-14v-274h14
c67 0 105 55 105 130v14c0 75 -38 130 -105 130z" />
    <glyph glyph-name="afii10039" unicode="&#x425;" horiz-adv-x="630" 
d="M448 0l-133 244l-133 -244h-166l201 361l-186 339h165l119 -223l119 223h165l-186 -339l201 -361h-166z" />
    <glyph glyph-name="afii10040" unicode="&#x426;" horiz-adv-x="670" 
d="M646 136v-256h-154v120h-425v700h154v-564h198v564h154v-564h73z" />
    <glyph glyph-name="afii10041" unicode="&#x427;" horiz-adv-x="612" 
d="M51 454v246h154v-221c0 -74 25 -105 86 -105c38 0 72 12 100 32v294h154v-700h-154v278c-36 -26 -89 -40 -141 -40c-130 0 -199 73 -199 216z" />
    <glyph glyph-name="afii10042" unicode="&#x428;" horiz-adv-x="972" 
d="M751 136v564h154v-700h-838v700h154v-564h188v564h154v-564h188z" />
    <glyph glyph-name="afii10043" unicode="&#x429;" horiz-adv-x="1002" 
d="M751 136v564h154v-564h73v-256h-154v120h-757v700h154v-564h188v564h154v-564h188z" />
    <glyph glyph-name="afii10044" unicode="&#x42a;" horiz-adv-x="722" 
d="M446 0h-253v564h-182v136h336v-274h99c156 0 243 -82 243 -213s-87 -213 -243 -213zM535 213c0 47 -31 77 -102 77h-86v-154h86c71 0 102 30 102 77z" />
    <glyph glyph-name="afii10045" unicode="&#x42b;" horiz-adv-x="855" 
d="M789 700v-700h-154v700h154zM66 0h253c156 0 243 82 243 213s-87 213 -243 213h-99v274h-154v-700zM408 213c0 -47 -31 -77 -102 -77h-86v154h86c71 0 102 -30 102 -77z" />
    <glyph glyph-name="afii10046" unicode="&#x42c;" horiz-adv-x="595" 
d="M319 0h-253v700h154v-274h99c156 0 243 -82 243 -213s-87 -213 -243 -213zM408 213c0 47 -31 77 -102 77h-86v-154h86c71 0 102 30 102 77z" />
    <glyph glyph-name="afii10047" unicode="&#x42d;" horiz-adv-x="612" 
d="M255 418h156c0 102 -38 158 -113 158c-61 0 -97 -41 -109 -120l-153 19c20 146 118 237 264 237c161 0 265 -117 265 -282v-160c0 -165 -104 -282 -265 -282c-146 0 -244 91 -264 237l153 19c12 -79 48 -120 109 -120c75 0 113 55 113 158h-156v136z" />
    <glyph glyph-name="afii10048" unicode="&#x42e;" horiz-adv-x="859" 
d="M547 712c161 0 265 -117 265 -281v-162c0 -164 -104 -281 -265 -281s-265 117 -265 281v13h-62v-282h-154v700h154v-282h62v13c0 164 104 281 265 281zM547 124c70 0 111 53 111 159v134c0 106 -41 159 -111 159s-111 -53 -111 -159v-134c0 -106 41 -159 111 -159z" />
    <glyph glyph-name="afii10049" unicode="&#x42f;" horiz-adv-x="611" 
d="M391 250h-80l-126 -250h-172l153 274c-69 32 -121 96 -121 201c0 158 119 225 235 225h265v-700h-154v250zM199 475c0 -64 42 -89 98 -89h94v178h-94c-56 0 -98 -25 -98 -89z" />
    <glyph glyph-name="afii10065" unicode="&#x430;" horiz-adv-x="522" 
d="M36 135v11c0 85 62 153 219 153h73v16c0 53 -29 81 -73 81c-35 0 -64 -19 -80 -53l-124 30c36 82 108 139 213 139c134 0 207 -83 207 -196v-316h-143v52c-27 -41 -71 -64 -130 -64c-94 0 -162 59 -162 147zM235 104c41 0 77 18 93 48v50h-90c-39 0 -65 -20 -65 -49v-6
c0 -25 22 -43 62 -43z" />
    <glyph glyph-name="afii10066" unicode="&#x431;" horiz-adv-x="529" 
d="M346 214v72c0 72 -26 107 -76 107c-35 0 -61 -16 -78 -44v-135c0 -75 29 -106 77 -106s77 31 77 106zM490 302v-104c0 -113 -72 -209 -221 -209s-221 96 -221 209v252c0 140 50 202 186 227l186 35l26 -105l-186 -34c-48 -9 -67 -31 -67 -86v-24c24 29 67 49 113 49
c120 0 184 -96 184 -210z" />
    <glyph glyph-name="afii10067" unicode="&#x432;" horiz-adv-x="494" 
d="M293 0h-236v500h223c115 0 173 -60 173 -142c0 -43 -22 -80 -57 -97c46 -21 70 -62 70 -109c0 -89 -55 -152 -173 -152zM194 311h70c34 0 51 14 51 40s-17 40 -51 40h-70v-80zM328 157c0 31 -21 47 -58 47h-76v-95h76c37 0 58 15 58 48z" />
    <glyph glyph-name="afii10068" unicode="&#x433;" horiz-adv-x="435" 
d="M201 381v-381h-144v500h361v-119h-217z" />
    <glyph glyph-name="afii10069" unicode="&#x434;" horiz-adv-x="529" 
d="M515 118v-228h-144v110h-220v-110h-144v228h58c18 65 26 138 26 215v167h366v-382h58zM206 118h111v266h-86v-61c0 -72 -8 -141 -25 -205z" />
    <glyph glyph-name="afii10070" unicode="&#x435;" horiz-adv-x="526" 
d="M487 205h-304v-4c0 -59 34 -94 81 -94c35 0 63 19 74 51l145 -12c-31 -100 -109 -158 -219 -158c-134 0 -225 96 -225 212v99c0 118 93 213 224 213c129 0 224 -94 224 -208v-99zM183 301h160v3c0 52 -31 89 -80 89s-80 -37 -80 -89v-3z" />
    <glyph glyph-name="afii10071" unicode="&#x451;" horiz-adv-x="526" 
d="M487 205h-304v-4c0 -59 34 -94 81 -94c35 0 63 19 74 51l145 -12c-31 -100 -109 -158 -219 -158c-134 0 -225 96 -225 212v99c0 118 93 213 224 213c129 0 224 -94 224 -208v-99zM183 301h160v3c0 52 -31 89 -80 89s-80 -37 -80 -89v-3zM226 703v-120h-118v120h118z
M420 703v-120h-118v120h118z" />
    <glyph glyph-name="afii10072" unicode="&#x436;" horiz-adv-x="688" 
d="M272 0v162l-43 28l-83 -190h-144l123 263c-59 60 -79 104 -79 210v27h135v-15c0 -91 19 -129 73 -165l18 -12v192h144v-192l18 12c54 36 73 74 73 165v15h135v-27c0 -106 -20 -150 -79 -210l123 -263h-144l-83 190l-43 -28v-162h-144z" />
    <glyph glyph-name="afii10073" unicode="&#x437;" horiz-adv-x="470" 
d="M232 402c-31 0 -51 -19 -60 -51l-130 17c24 94 99 144 196 144c112 0 187 -62 187 -156c0 -42 -20 -82 -61 -100c52 -16 76 -61 76 -112c0 -91 -75 -156 -200 -156c-108 0 -187 52 -217 155l135 19c12 -38 35 -64 78 -64c37 0 60 19 60 48c0 33 -22 56 -76 56h-50v110h45
c44 0 66 17 66 48c0 24 -18 42 -49 42z" />
    <glyph glyph-name="afii10074" unicode="&#x438;" horiz-adv-x="542" 
d="M195 233l170 267h120v-500h-138v267l-170 -267h-120v500h138v-267z" />
    <glyph glyph-name="afii10075" unicode="&#x439;" horiz-adv-x="542" 
d="M195 233l170 267h120v-500h-138v267l-170 -267h-120v500h138v-267zM271 655c36 0 58 24 66 65l101 -17c-19 -94 -81 -138 -167 -138s-148 44 -167 138l101 17c8 -41 30 -65 66 -65z" />
    <glyph glyph-name="afii10076" unicode="&#x43a;" horiz-adv-x="519" 
d="M466 500v-16c0 -93 -29 -149 -101 -207l155 -277h-154l-106 204l-60 -40v-164h-144v500h144v-187l24 16c69 46 102 88 102 151v20h140z" />
    <glyph glyph-name="afii10077" unicode="&#x43b;" horiz-adv-x="564" 
d="M92 164v336h415v-500h-144v372h-127v-219c0 -111 -56 -165 -172 -165h-52v118h32c33 0 48 20 48 58z" />
    <glyph glyph-name="afii10078" unicode="&#x43c;" horiz-adv-x="630" 
d="M281 102l-86 159v-262h-138v500h119l139 -256l139 256h119v-500h-138v262l-86 -159h-68z" />
    <glyph glyph-name="afii10079" unicode="&#x43d;" horiz-adv-x="532" 
d="M475 500v-500h-144v192h-130v-192h-144v500h144v-180h130v180h144z" />
    <glyph glyph-name="afii10080" unicode="&#x43e;" horiz-adv-x="526" 
d="M183 289v-78c0 -72 36 -104 80 -104s80 32 80 104v78c0 72 -36 104 -80 104s-80 -32 -80 -104zM39 201v98c0 118 93 213 224 213s224 -95 224 -213v-98c0 -118 -93 -213 -224 -213s-224 95 -224 213z" />
    <glyph glyph-name="afii10081" unicode="&#x43f;" horiz-adv-x="537" 
d="M480 500v-500h-144v372h-135v-372h-144v500h423z" />
    <glyph glyph-name="afii10082" unicode="&#x440;" horiz-adv-x="538" 
d="M56 500h144v-43c23 34 68 55 120 55c106 0 179 -78 179 -197v-130c0 -119 -73 -197 -179 -197c-52 0 -97 21 -120 55v-261h-144v718zM200 345v-190c15 -29 40 -48 73 -48c60 0 82 36 82 112v62c0 76 -22 112 -82 112c-33 0 -58 -19 -73 -48z" />
    <glyph glyph-name="afii10083" unicode="&#x441;" horiz-adv-x="513" 
d="M39 200v99c0 118 93 212 224 212c117 0 202 -76 219 -177l-142 -18c-8 53 -39 77 -77 77c-44 0 -80 -32 -80 -104v-79c0 -72 36 -104 80 -104c38 0 69 24 77 77l142 -18c-17 -101 -102 -177 -219 -177c-131 0 -224 94 -224 212z" />
    <glyph glyph-name="afii10084" unicode="&#x442;" horiz-adv-x="455" 
d="M12 382v118h431v-118h-144v-382h-143v382h-144z" />
    <glyph glyph-name="afii10085" unicode="&#x443;" horiz-adv-x="511" 
d="M176 -40l23 70l-192 470h151l104 -286l91 286h151l-195 -582c-34 -102 -83 -129 -195 -129h-45v119h34c39 0 59 11 73 52z" />
    <glyph glyph-name="afii10086" unicode="&#x444;" horiz-adv-x="820" 
d="M338 712h144v-255c23 34 68 55 120 55c106 0 179 -78 179 -197v-130c0 -119 -73 -197 -179 -197c-52 0 -97 21 -120 55v-261h-144v261c-23 -34 -68 -55 -120 -55c-106 0 -179 78 -179 197v130c0 119 73 197 179 197c52 0 97 -21 120 -55v255zM338 155v190
c-15 29 -40 48 -73 48c-60 0 -82 -36 -82 -112v-62c0 -76 22 -112 82 -112c33 0 58 19 73 48zM482 345v-190c15 -29 40 -48 73 -48c60 0 82 36 82 112v62c0 76 -22 112 -82 112c-33 0 -58 -19 -73 -48z" />
    <glyph glyph-name="afii10087" unicode="&#x445;" horiz-adv-x="490" 
d="M174 500l71 -139l71 139h157l-133 -242l143 -258h-157l-81 153l-81 -153h-157l143 258l-133 242h157z" />
    <glyph glyph-name="afii10088" unicode="&#x446;" horiz-adv-x="553" 
d="M539 118v-228h-144v110h-338v500h144v-382h136v382h144v-382h58z" />
    <glyph glyph-name="afii10089" unicode="&#x447;" horiz-adv-x="520" 
d="M47 341v159h144v-141c0 -66 13 -99 66 -99c23 0 44 8 62 18v222h144v-500h-144v166c-25 -15 -60 -25 -95 -25c-121 0 -177 74 -177 200z" />
    <glyph glyph-name="afii10090" unicode="&#x448;" horiz-adv-x="786" 
d="M729 500v-500h-672v500h144v-382h120v382h144v-382h120v382h144z" />
    <glyph glyph-name="afii10091" unicode="&#x449;" horiz-adv-x="802" 
d="M729 500v-382h58v-228h-144v110h-586v500h144v-382h120v382h144v-382h120v382h144z" />
    <glyph glyph-name="afii10092" unicode="&#x44a;" horiz-adv-x="583" 
d="M378 0h-229v384h-137v116h281v-168h85c108 0 184 -60 184 -166s-76 -166 -184 -166zM418 166c0 37 -24 50 -63 50h-62v-100h62c39 0 63 13 63 50z" />
    <glyph glyph-name="afii10093" unicode="&#x44b;" horiz-adv-x="724" 
d="M523 0v500h144v-500h-144zM57 0h229c108 0 184 60 184 166s-76 166 -184 166h-85v168h-144v-500zM326 166c0 -37 -24 -50 -63 -50h-62v100h62c39 0 63 -13 63 -50z" />
    <glyph glyph-name="afii10094" unicode="&#x44c;" horiz-adv-x="491" 
d="M286 0h-229v500h144v-168h85c108 0 184 -60 184 -166s-76 -166 -184 -166zM326 166c0 37 -24 50 -63 50h-62v-100h62c39 0 63 13 63 50z" />
    <glyph glyph-name="afii10095" unicode="&#x44d;" horiz-adv-x="513" 
d="M217 303h112c-4 62 -38 90 -79 90c-38 0 -69 -24 -77 -77l-142 18c17 101 102 177 219 177c131 0 224 -94 224 -212v-99c0 -118 -93 -212 -224 -212c-117 0 -202 76 -219 177l142 18c8 -53 39 -77 77 -77c41 0 75 27 79 89h-112v108z" />
    <glyph glyph-name="afii10096" unicode="&#x44e;" horiz-adv-x="734" 
d="M200 500v-192h47c4 114 96 204 224 204c131 0 224 -95 224 -213v-98c0 -118 -93 -213 -224 -213c-127 0 -218 88 -224 201h-47v-189h-143v500h143zM391 289v-78c0 -72 36 -104 80 -104s80 32 80 104v78c0 72 -36 104 -80 104s-80 -32 -80 -104z" />
    <glyph glyph-name="afii10097" unicode="&#x44f;" horiz-adv-x="512" 
d="M261 174l-94 -174h-148l109 198c-53 26 -87 74 -87 139c0 104 86 163 193 163h221v-500h-144v174h-50zM242 287h69v101h-69c-33 0 -57 -19 -57 -51s24 -50 57 -50z" />
    <glyph glyph-name="AEacute" unicode="&#x1fc;" horiz-adv-x="903" 
d="M861 700v-136h-301v-137h260v-136h-260v-156h301v-135h-455v130h-189l-60 -130h-177l342 700h539zM275 256h131v282zM694 924l-102 -161h-95l70 161h127z" />
    <glyph glyph-name="Aacute" unicode="&#xc1;" horiz-adv-x="624" 
d="M420 130h-216l-38 -130h-161l227 700h160l227 -700h-161zM240 256h144l-72 246zM451 924l-102 -161h-95l70 161h127z" />
    <glyph glyph-name="Abreve" unicode="&#x102;" horiz-adv-x="624" 
d="M420 130h-216l-38 -130h-161l227 700h160l227 -700h-161zM240 256h144l-72 246zM312 852c36 0 58 24 66 65l101 -17c-19 -94 -81 -138 -167 -138s-148 44 -167 138l101 17c8 -41 30 -65 66 -65z" />
    <glyph glyph-name="Acircumflex" unicode="&#xc2;" horiz-adv-x="624" 
d="M420 130h-216l-38 -130h-161l227 700h160l227 -700h-161zM240 256h144l-72 246zM256 924h112l121 -161h-108l-69 70l-69 -70h-108z" />
    <glyph glyph-name="Adieresis" unicode="&#xc4;" horiz-adv-x="624" 
d="M420 130h-216l-38 -130h-161l227 700h160l227 -700h-161zM240 256h144l-72 246zM274 902v-120h-118v120h118zM468 902v-120h-118v120h118z" />
    <glyph glyph-name="Agrave" unicode="&#xc0;" horiz-adv-x="624" 
d="M420 130h-216l-38 -130h-161l227 700h160l227 -700h-161zM240 256h144l-72 246zM275 763l-102 161h127l70 -161h-95z" />
    <glyph glyph-name="Amacron" unicode="&#x100;" horiz-adv-x="624" 
d="M420 130h-216l-38 -130h-161l227 700h160l227 -700h-161zM240 256h144l-72 246zM158 797v91h308v-91h-308z" />
    <glyph glyph-name="Aogonek" unicode="&#x104;" horiz-adv-x="624" 
d="M458 0l-38 130h-216l-38 -130h-161l227 700h160l227 -700h-49c-60 -35 -82 -73 -82 -100v-5c0 -16 12 -29 30 -29c16 0 34 9 50 25l68 -69c-33 -37 -81 -58 -132 -58c-77 0 -130 44 -130 109v7c0 45 32 92 84 120zM240 256h144l-72 246z" />
    <glyph glyph-name="Aring" unicode="&#xc5;" horiz-adv-x="624" 
d="M420 130h-216l-38 -130h-161l227 700h160l227 -700h-161zM240 256h144l-72 246zM279 842c0 -22 14 -35 33 -35s33 13 33 35s-14 35 -33 35s-33 -13 -33 -35zM200 842c0 68 49 109 112 109s112 -41 112 -109s-49 -109 -112 -109s-112 41 -112 109z" />
    <glyph glyph-name="Aringacute" unicode="&#x1fa;" horiz-adv-x="624" 
d="M200 756c0 68 49 109 112 109s112 -41 112 -109c0 -34 -12 -61 -32 -79h12l215 -677h-161l-38 130h-216l-38 -130h-161l215 677h11c-19 18 -31 45 -31 79zM240 256h144l-72 246zM444 1006l-87 -115h-96l54 115h129zM279 756c0 -22 14 -35 33 -35s33 13 33 35
s-14 35 -33 35s-33 -13 -33 -35z" />
    <glyph glyph-name="Atilde" unicode="&#xc3;" horiz-adv-x="624" 
d="M420 130h-216l-38 -130h-161l227 700h160l227 -700h-161zM240 256h144l-72 246zM292 801c-12 12 -23 20 -35 20c-16 0 -26 -15 -29 -45l-88 8c7 80 51 124 113 124c28 0 56 -9 79 -30c12 -12 23 -20 35 -20c16 0 26 15 29 45l88 -8c-7 -80 -51 -124 -113 -124
c-28 0 -56 9 -79 30z" />
    <glyph glyph-name="Cacute" unicode="&#x106;" horiz-adv-x="612" 
d="M47 270v160c0 165 104 282 265 282c146 0 244 -91 264 -237l-153 -19c-12 79 -48 120 -109 120c-75 0 -113 -56 -113 -160v-132c0 -104 38 -160 113 -160c61 0 97 41 109 120l153 -19c-20 -146 -118 -237 -264 -237c-161 0 -265 117 -265 282zM427 924l-102 -161h-95
l70 161h127z" />
    <glyph glyph-name="Ccaron" unicode="&#x10c;" horiz-adv-x="612" 
d="M47 270v160c0 165 104 282 265 282c146 0 244 -91 264 -237l-153 -19c-12 79 -48 120 -109 120c-75 0 -113 -56 -113 -160v-132c0 -104 38 -160 113 -160c61 0 97 41 109 120l153 -19c-20 -146 -118 -237 -264 -237c-161 0 -265 117 -265 282zM365 763h-112l-121 161h108
l69 -70l69 70h108z" />
    <glyph glyph-name="Ccedilla" unicode="&#xc7;" horiz-adv-x="612" 
d="M178 -197l51 67c16 -14 37 -22 57 -22s31 9 31 24c0 18 -29 30 -74 32l-10 13l34 75c-135 19 -220 129 -220 278v160c0 165 104 282 265 282c146 0 244 -91 264 -237l-153 -19c-12 79 -48 120 -109 120c-75 0 -113 -56 -113 -160v-132c0 -104 38 -160 113 -160
c61 0 97 41 109 120l153 -19c-18 -127 -94 -213 -210 -232l-15 -37c47 -15 74 -47 74 -95c0 -62 -45 -106 -129 -106c-45 0 -89 18 -118 48z" />
    <glyph glyph-name="Ccircumflex" unicode="&#x108;" horiz-adv-x="612" 
d="M47 270v160c0 165 104 282 265 282c146 0 244 -91 264 -237l-153 -19c-12 79 -48 120 -109 120c-75 0 -113 -56 -113 -160v-132c0 -104 38 -160 113 -160c61 0 97 41 109 120l153 -19c-20 -146 -118 -237 -264 -237c-161 0 -265 117 -265 282zM266 924h112l121 -161h-108
l-69 70l-69 -70h-108z" />
    <glyph glyph-name="Cdotaccent" unicode="&#x10a;" horiz-adv-x="612" 
d="M47 430v-160c0 -165 104 -282 265 -282c146 0 244 91 264 237l-153 19c-12 -79 -48 -120 -109 -120c-75 0 -113 56 -113 160v132c0 104 38 160 113 160c61 0 97 -41 109 -120l153 19c-20 146 -118 237 -264 237c-161 0 -265 -117 -265 -282zM370 903v-123h-122v123h122z
" />
    <glyph glyph-name="Dcaron" unicode="&#x10e;" horiz-adv-x="613" 
d="M67 0v700h235c161 0 264 -103 264 -270v-160c0 -167 -103 -270 -264 -270h-235zM412 284v132c0 105 -40 148 -112 148h-79v-428h79c72 0 112 43 112 148zM349 763h-112l-121 161h108l69 -70l69 70h108z" />
    <glyph glyph-name="Dcroat" unicode="&#x110;" horiz-adv-x="613" 
d="M67 395v305h235c161 0 264 -103 264 -270v-160c0 -167 -103 -270 -264 -270h-235v305h-67v90h67zM221 395h100v-90h-100v-169h79c72 0 112 43 112 148v132c0 105 -40 148 -112 148h-79v-169z" />
    <glyph glyph-name="Eacute" unicode="&#xc9;" horiz-adv-x="564" 
d="M67 0v700h455v-136h-301v-137h260v-136h-260v-155h301v-136h-455zM425 924l-102 -161h-95l70 161h127z" />
    <glyph glyph-name="Ebreve" unicode="&#x114;" horiz-adv-x="564" 
d="M67 0v700h455v-136h-301v-137h260v-136h-260v-155h301v-136h-455zM293 852c36 0 58 24 66 65l101 -17c-19 -94 -81 -138 -167 -138s-148 44 -167 138l101 17c8 -41 30 -65 66 -65z" />
    <glyph glyph-name="Ecaron" unicode="&#x11a;" horiz-adv-x="564" 
d="M67 0v700h455v-136h-301v-137h260v-136h-260v-155h301v-136h-455zM349 763h-112l-121 161h108l69 -70l69 70h108z" />
    <glyph glyph-name="Ecircumflex" unicode="&#xca;" horiz-adv-x="564" 
d="M67 0v700h455v-136h-301v-137h260v-136h-260v-155h301v-136h-455zM240 924h112l121 -161h-108l-69 70l-69 -70h-108z" />
    <glyph glyph-name="Edieresis" unicode="&#xcb;" horiz-adv-x="564" 
d="M67 0v700h455v-136h-301v-137h260v-136h-260v-155h301v-136h-455zM258 902v-120h-118v120h118zM452 902v-120h-118v120h118z" />
    <glyph glyph-name="Edotaccent" unicode="&#x116;" horiz-adv-x="564" 
d="M67 0v700h455v-136h-301v-137h260v-136h-260v-155h301v-136h-455zM354 903v-123h-122v123h122z" />
    <glyph glyph-name="Egrave" unicode="&#xc8;" horiz-adv-x="564" 
d="M67 0v700h455v-136h-301v-137h260v-136h-260v-155h301v-136h-455zM279 763l-102 161h127l70 -161h-95z" />
    <glyph glyph-name="Emacron" unicode="&#x112;" horiz-adv-x="564" 
d="M67 0v700h455v-136h-301v-137h260v-136h-260v-155h301v-136h-455zM139 797v91h308v-91h-308z" />
    <glyph glyph-name="Eogonek" unicode="&#x118;" horiz-adv-x="564" 
d="M67 0v700h455v-136h-301v-137h260v-136h-260v-155h301v-136h-71c-60 -35 -82 -73 -82 -100v-5c0 -16 12 -29 30 -29c17 0 34 9 51 25l67 -69c-33 -37 -81 -58 -132 -58c-77 0 -130 44 -130 109v7c0 45 32 92 84 120h-272z" />
    <glyph glyph-name="Gbreve" unicode="&#x11e;" horiz-adv-x="619" 
d="M201 416v-133c0 -104 40 -160 111 -160c72 0 111 54 111 133v4h-113v120h268v-106c0 -168 -96 -286 -265 -286c-162 0 -266 116 -266 281v161c0 165 104 282 265 282c146 0 244 -91 264 -237l-153 -19c-12 79 -48 120 -109 120c-75 0 -113 -56 -113 -160zM304 852
c36 0 58 24 66 65l101 -17c-19 -94 -81 -138 -167 -138s-148 44 -167 138l101 17c8 -41 30 -65 66 -65z" />
    <glyph glyph-name="Gcircumflex" unicode="&#x11c;" horiz-adv-x="619" 
d="M201 283v133c0 104 38 160 113 160c61 0 97 -41 109 -120l153 19c-20 146 -118 237 -264 237c-161 0 -265 -117 -265 -282v-161c0 -165 104 -281 266 -281c169 0 265 118 265 286v106h-268v-120h113v-4c0 -79 -39 -133 -111 -133c-71 0 -111 56 -111 160zM260 924h112
l121 -161h-108l-69 70l-69 -70h-108z" />
    <glyph glyph-name="Gcommaaccent" unicode="&#x122;" horiz-adv-x="619" 
d="M201 416v-133c0 -104 40 -160 111 -160c72 0 111 54 111 133v4h-113v120h268v-106c0 -168 -96 -286 -265 -286c-162 0 -266 116 -266 281v161c0 165 104 282 265 282c146 0 244 -91 264 -237l-153 -19c-12 79 -48 120 -109 120c-75 0 -113 -56 -113 -160zM317 -210h-96
l44 161h128z" />
    <glyph glyph-name="Gdotaccent" unicode="&#x120;" horiz-adv-x="619" 
d="M201 283v133c0 104 38 160 113 160c61 0 97 -41 109 -120l153 19c-20 146 -118 237 -264 237c-161 0 -265 -117 -265 -282v-161c0 -165 104 -281 266 -281c169 0 265 118 265 286v106h-268v-120h113v-4c0 -79 -39 -133 -111 -133c-71 0 -111 56 -111 160zM365 903v-123
h-122v123h122z" />
    <glyph glyph-name="Hcircumflex" unicode="&#x124;" horiz-adv-x="640" 
d="M419 0v291h-198v-291h-154v700h154v-273h198v273h154v-700h-154zM276 924h112l121 -161h-108l-69 70l-69 -70h-108z" />
    <glyph glyph-name="Iacute" unicode="&#xcd;" horiz-adv-x="302" 
d="M228 700v-700h-154v700h154zM282 924l-102 -161h-95l70 161h127z" />
    <glyph glyph-name="Ibreve" unicode="&#x12c;" horiz-adv-x="302" 
d="M228 700v-700h-154v700h154zM151 852c36 0 58 24 66 65l101 -17c-19 -94 -81 -138 -167 -138s-148 44 -167 138l101 17c8 -41 30 -65 66 -65z" />
    <glyph glyph-name="Icircumflex" unicode="&#xce;" horiz-adv-x="302" 
d="M228 700v-700h-154v700h154zM95 924h112l121 -161h-108l-69 70l-69 -70h-108z" />
    <glyph glyph-name="Idieresis" unicode="&#xcf;" horiz-adv-x="302" 
d="M228 700v-700h-154v700h154zM113 902v-120h-118v120h118zM307 902v-120h-118v120h118z" />
    <glyph glyph-name="Idotaccent" unicode="&#x130;" horiz-adv-x="302" 
d="M228 700v-700h-154v700h154zM212 903v-123h-122v123h122z" />
    <glyph glyph-name="Igrave" unicode="&#xcc;" horiz-adv-x="302" 
d="M228 700v-700h-154v700h154zM122 763l-102 161h127l70 -161h-95z" />
    <glyph glyph-name="Imacron" unicode="&#x12a;" horiz-adv-x="302" 
d="M228 700v-700h-154v700h154zM-3 797v91h308v-91h-308z" />
    <glyph glyph-name="Iogonek" unicode="&#x12e;" horiz-adv-x="302" 
d="M117 0h-43v700h154v-700c-60 -35 -82 -73 -82 -100v-5c0 -16 11 -29 29 -29c17 0 34 9 51 25l67 -69c-33 -37 -81 -58 -132 -58c-77 0 -129 44 -129 109v7c0 45 33 92 85 120z" />
    <glyph glyph-name="Itilde" unicode="&#x128;" horiz-adv-x="302" 
d="M228 700v-700h-154v700h154zM131 801c-12 12 -23 20 -35 20c-16 0 -26 -15 -29 -45l-88 8c7 80 51 124 113 124c28 0 56 -9 79 -30c12 -12 23 -20 35 -20c16 0 26 15 29 45l88 -8c-7 -80 -51 -124 -113 -124c-28 0 -56 9 -79 30z" />
    <glyph glyph-name="Jcircumflex" unicode="&#x134;" horiz-adv-x="554" 
d="M344 244v456h154v-473c0 -149 -94 -239 -241 -239c-126 0 -217 73 -238 216l146 17c10 -67 41 -97 89 -97c52 0 90 35 90 120zM365 924h112l121 -161h-108l-69 70l-69 -70h-108z" />
    <glyph glyph-name="Kcommaaccent" unicode="&#x136;" horiz-adv-x="621" 
d="M556 700v-20c0 -136 -34 -228 -139 -309l204 -371h-171l-155 287l-75 -49v-238h-154v700h154v-290l65 43c92 61 117 136 117 227v20h154zM325 -210h-96l44 161h128z" />
    <glyph glyph-name="Lacute" unicode="&#x139;" horiz-adv-x="534" 
d="M67 0v700h154v-564h301v-136h-455zM276 924l-102 -161h-95l70 161h127z" />
    <glyph glyph-name="Lcaron" unicode="&#x13d;" horiz-adv-x="534" 
d="M67 0v700h154v-564h301v-136h-455zM479 712v-129c0 -69 -47 -125 -140 -127v56c46 6 66 26 68 65h-68v135h140z" />
    <glyph glyph-name="Lcommaaccent" unicode="&#x13b;" horiz-adv-x="534" 
d="M67 0v700h154v-564h301v-136h-455zM296 -210h-96l44 161h128z" />
    <glyph glyph-name="Nacute" unicode="&#x143;" horiz-adv-x="669" 
d="M467 0l-246 417v-417h-154v700h135l246 -417v417h154v-700h-135zM454 924l-102 -161h-95l70 161h127z" />
    <glyph glyph-name="Ncaron" unicode="&#x147;" horiz-adv-x="669" 
d="M467 0l-246 417v-417h-154v700h135l246 -417v417h154v-700h-135zM390 763h-112l-121 161h108l69 -70l69 70h108z" />
    <glyph glyph-name="Ncommaaccent" unicode="&#x145;" horiz-adv-x="669" 
d="M467 0l-246 417v-417h-154v700h135l246 -417v417h154v-700h-135zM342 -210h-96l44 161h128z" />
    <glyph glyph-name="Ntilde" unicode="&#xd1;" horiz-adv-x="669" 
d="M467 0l-246 417v-417h-154v700h135l246 -417v417h154v-700h-135zM314 801c-12 12 -23 20 -35 20c-16 0 -26 -15 -29 -45l-88 8c7 80 51 124 113 124c28 0 56 -9 79 -30c12 -12 23 -20 35 -20c16 0 26 15 29 45l88 -8c-7 -80 -51 -124 -113 -124c-28 0 -56 9 -79 30z" />
    <glyph glyph-name="Oacute" unicode="&#xd3;" horiz-adv-x="624" 
d="M312 712c161 0 265 -117 265 -281v-162c0 -164 -104 -281 -265 -281s-265 117 -265 281v162c0 164 104 281 265 281zM312 124c70 0 111 53 111 159v134c0 106 -41 159 -111 159s-111 -53 -111 -159v-134c0 -106 41 -159 111 -159zM438 924l-102 -161h-95l70 161h127z" />
    <glyph glyph-name="Obreve" unicode="&#x14e;" horiz-adv-x="624" 
d="M312 712c161 0 265 -117 265 -281v-162c0 -164 -104 -281 -265 -281s-265 117 -265 281v162c0 164 104 281 265 281zM312 124c70 0 111 53 111 159v134c0 106 -41 159 -111 159s-111 -53 -111 -159v-134c0 -106 41 -159 111 -159zM312 852c36 0 58 24 66 65l101 -17
c-19 -94 -81 -138 -167 -138s-148 44 -167 138l101 17c8 -41 30 -65 66 -65z" />
    <glyph glyph-name="Ocircumflex" unicode="&#xd4;" horiz-adv-x="624" 
d="M312 712c161 0 265 -117 265 -281v-162c0 -164 -104 -281 -265 -281s-265 117 -265 281v162c0 164 104 281 265 281zM312 124c70 0 111 53 111 159v134c0 106 -41 159 -111 159s-111 -53 -111 -159v-134c0 -106 41 -159 111 -159zM256 924h112l121 -161h-108l-69 70
l-69 -70h-108z" />
    <glyph glyph-name="Odieresis" unicode="&#xd6;" horiz-adv-x="624" 
d="M312 712c161 0 265 -117 265 -281v-162c0 -164 -104 -281 -265 -281s-265 117 -265 281v162c0 164 104 281 265 281zM312 124c70 0 111 53 111 159v134c0 106 -41 159 -111 159s-111 -53 -111 -159v-134c0 -106 41 -159 111 -159zM274 902v-120h-118v120h118zM468 902
v-120h-118v120h118z" />
    <glyph glyph-name="Ograve" unicode="&#xd2;" horiz-adv-x="624" 
d="M312 712c161 0 265 -117 265 -281v-162c0 -164 -104 -281 -265 -281s-265 117 -265 281v162c0 164 104 281 265 281zM312 124c70 0 111 53 111 159v134c0 106 -41 159 -111 159s-111 -53 -111 -159v-134c0 -106 41 -159 111 -159zM288 763l-102 161h127l70 -161h-95z" />
    <glyph glyph-name="Ohungarumlaut" unicode="&#x150;" horiz-adv-x="624" 
d="M312 712c161 0 265 -117 265 -281v-162c0 -164 -104 -281 -265 -281s-265 117 -265 281v162c0 164 104 281 265 281zM312 124c70 0 111 53 111 159v134c0 106 -41 159 -111 159s-111 -53 -111 -159v-134c0 -106 41 -159 111 -159zM357 924l-96 -161h-85l64 161h117z
M524 924l-108 -161h-90l81 161h117z" />
    <glyph glyph-name="Omacron" unicode="&#x14c;" horiz-adv-x="624" 
d="M312 712c161 0 265 -117 265 -281v-162c0 -164 -104 -281 -265 -281s-265 117 -265 281v162c0 164 104 281 265 281zM312 124c70 0 111 53 111 159v134c0 106 -41 159 -111 159s-111 -53 -111 -159v-134c0 -106 41 -159 111 -159zM158 797v91h308v-91h-308z" />
    <glyph glyph-name="Oslashacute" unicode="&#x1fe;" horiz-adv-x="624" 
d="M69 -32l52 97c-48 50 -74 121 -74 204v162c0 164 104 281 265 281c52 0 98 -12 137 -34l29 54h77l-52 -97c47 -50 74 -121 74 -204v-162c0 -164 -104 -281 -265 -281c-52 0 -99 12 -137 34l-29 -54h-77zM312 124c70 0 111 53 111 159v134c0 22 -2 41 -5 59l-175 -327
c18 -17 41 -25 69 -25zM201 283c0 -22 1 -42 5 -59l175 327c-18 16 -42 25 -69 25c-70 0 -111 -53 -111 -159v-134zM438 924l-102 -161h-95l70 161h127z" />
    <glyph glyph-name="Otilde" unicode="&#xd5;" horiz-adv-x="624" 
d="M312 712c161 0 265 -117 265 -281v-162c0 -164 -104 -281 -265 -281s-265 117 -265 281v162c0 164 104 281 265 281zM312 124c70 0 111 53 111 159v134c0 106 -41 159 -111 159s-111 -53 -111 -159v-134c0 -106 41 -159 111 -159zM292 801c-12 12 -23 20 -35 20
c-16 0 -26 -15 -29 -45l-88 8c7 80 51 124 113 124c28 0 56 -9 79 -30c12 -12 23 -20 35 -20c16 0 26 15 29 45l88 -8c-7 -80 -51 -124 -113 -124c-28 0 -56 9 -79 30z" />
    <glyph glyph-name="Racute" unicode="&#x154;" horiz-adv-x="611" 
d="M300 250h-80v-250h-154v700h265c116 0 235 -67 235 -225c0 -105 -52 -169 -121 -201l153 -274h-172zM412 475c0 64 -42 89 -98 89h-94v-178h94c56 0 98 25 98 89zM417 924l-102 -161h-95l70 161h127z" />
    <glyph glyph-name="Rcaron" unicode="&#x158;" horiz-adv-x="611" 
d="M300 250h-80v-250h-154v700h265c116 0 235 -67 235 -225c0 -105 -52 -169 -121 -201l153 -274h-172zM412 475c0 64 -42 89 -98 89h-94v-178h94c56 0 98 25 98 89zM339 763h-112l-121 161h108l69 -70l69 70h108z" />
    <glyph glyph-name="Rcommaaccent" unicode="&#x156;" horiz-adv-x="611" 
d="M300 250h-80v-250h-154v700h265c116 0 235 -67 235 -225c0 -105 -52 -169 -121 -201l153 -274h-172zM412 475c0 64 -42 89 -98 89h-94v-178h94c56 0 98 25 98 89zM317 -210h-96l44 161h128z" />
    <glyph glyph-name="Sacute" unicode="&#x15a;" horiz-adv-x="597" 
d="M560 203c0 -128 -93 -215 -248 -215c-133 0 -241 73 -275 218l149 19c18 -68 64 -101 125 -101c58 0 95 28 95 76c0 45 -28 69 -92 82l-55 11c-134 27 -203 97 -203 209c0 110 80 210 235 210c131 0 227 -75 252 -204l-147 -18c-14 56 -50 86 -105 86
c-53 0 -81 -31 -81 -72c0 -39 30 -66 92 -79l57 -12c137 -27 201 -98 201 -210zM400 924l-102 -161h-95l70 161h127z" />
    <glyph glyph-name="Scaron" unicode="&#x160;" horiz-adv-x="597" 
d="M560 203c0 -128 -93 -215 -248 -215c-133 0 -241 73 -275 218l149 19c18 -68 64 -101 125 -101c58 0 95 28 95 76c0 45 -28 69 -92 82l-55 11c-134 27 -203 97 -203 209c0 110 80 210 235 210c131 0 227 -75 252 -204l-147 -18c-14 56 -50 86 -105 86
c-53 0 -81 -31 -81 -72c0 -39 30 -66 92 -79l57 -12c137 -27 201 -98 201 -210zM347 763h-112l-121 161h108l69 -70l69 70h108z" />
    <glyph glyph-name="Scedilla" unicode="&#x15e;" horiz-adv-x="597" 
d="M186 -197l51 67c16 -14 37 -22 57 -22s31 9 31 24c0 18 -29 30 -74 32l-10 13l33 73c-115 12 -207 85 -237 216l149 19c18 -68 64 -101 125 -101c57 0 95 27 95 76c0 45 -28 69 -92 82l-55 11c-134 27 -203 97 -203 209c0 110 80 210 235 210c131 0 227 -75 252 -204
l-147 -18c-14 56 -48 86 -102 86c-56 0 -84 -31 -84 -72c0 -39 30 -66 92 -79l57 -12c137 -27 201 -98 201 -210c0 -110 -69 -190 -186 -210l-15 -37c47 -15 74 -47 74 -95c0 -62 -45 -106 -129 -106c-45 0 -89 18 -118 48z" />
    <glyph glyph-name="Scircumflex" unicode="&#x15c;" horiz-adv-x="597" 
d="M560 203c0 -128 -93 -215 -248 -215c-133 0 -241 73 -275 218l149 19c18 -68 64 -101 125 -101c58 0 95 28 95 76c0 45 -28 69 -92 82l-55 11c-134 27 -203 97 -203 209c0 110 80 210 235 210c131 0 227 -75 252 -204l-147 -18c-14 56 -50 86 -105 86
c-53 0 -81 -31 -81 -72c0 -39 30 -66 92 -79l57 -12c137 -27 201 -98 201 -210zM243 924h112l121 -161h-108l-69 70l-69 -70h-108z" />
    <glyph glyph-name="Tcaron" unicode="&#x164;" horiz-adv-x="538" 
d="M12 564v136h514v-136h-180v-564h-154v564h-180zM324 763h-112l-121 161h108l69 -70l69 70h108z" />
    <glyph glyph-name="Tcommaaccent" unicode="&#x162;" horiz-adv-x="538" 
d="M128 -197l51 67c16 -14 37 -22 57 -22s31 9 31 24c0 18 -29 30 -74 32l-10 13l38 83h-29v564h-180v136h514v-136h-180v-564h-27l-18 -44c47 -15 74 -47 74 -95c0 -62 -45 -106 -129 -106c-45 0 -89 18 -118 48z" />
    <glyph glyph-name="Uacute" unicode="&#xda;" horiz-adv-x="638" 
d="M214 700v-370c0 -141 22 -207 105 -207s105 66 105 207v370h154v-440c0 -165 -98 -272 -259 -272s-259 107 -259 272v440h154zM454 924l-102 -161h-95l70 161h127z" />
    <glyph glyph-name="Ubreve" unicode="&#x16c;" horiz-adv-x="638" 
d="M214 700v-370c0 -141 22 -207 105 -207s105 66 105 207v370h154v-440c0 -165 -98 -272 -259 -272s-259 107 -259 272v440h154zM319 852c36 0 58 24 66 65l101 -17c-19 -94 -81 -138 -167 -138s-148 44 -167 138l101 17c8 -41 30 -65 66 -65z" />
    <glyph glyph-name="Ucircumflex" unicode="&#xdb;" horiz-adv-x="638" 
d="M214 700v-370c0 -141 22 -207 105 -207s105 66 105 207v370h154v-440c0 -165 -98 -272 -259 -272s-259 107 -259 272v440h154zM263 924h112l121 -161h-108l-69 70l-69 -70h-108z" />
    <glyph glyph-name="Udieresis" unicode="&#xdc;" horiz-adv-x="638" 
d="M214 700v-370c0 -141 22 -207 105 -207s105 66 105 207v370h154v-440c0 -165 -98 -272 -259 -272s-259 107 -259 272v440h154zM281 902v-120h-118v120h118zM475 902v-120h-118v120h118z" />
    <glyph glyph-name="Ugrave" unicode="&#xd9;" horiz-adv-x="638" 
d="M214 700v-370c0 -141 22 -207 105 -207s105 66 105 207v370h154v-440c0 -165 -98 -272 -259 -272s-259 107 -259 272v440h154zM286 763l-102 161h127l70 -161h-95z" />
    <glyph glyph-name="Uhungarumlaut" unicode="&#x170;" horiz-adv-x="638" 
d="M214 700v-370c0 -141 22 -207 105 -207s105 66 105 207v370h154v-440c0 -165 -98 -272 -259 -272s-259 107 -259 272v440h154zM374 924l-96 -161h-85l64 161h117zM541 924l-108 -161h-90l81 161h117z" />
    <glyph glyph-name="Umacron" unicode="&#x16a;" horiz-adv-x="638" 
d="M214 700v-370c0 -141 22 -207 105 -207s105 66 105 207v370h154v-440c0 -165 -98 -272 -259 -272s-259 107 -259 272v440h154zM165 797v91h308v-91h-308z" />
    <glyph glyph-name="Uogonek" unicode="&#x172;" horiz-adv-x="638" 
d="M214 700v-370c0 -141 22 -207 105 -207s105 66 105 207v370h154v-440c0 -131 -62 -226 -168 -259c-56 -34 -77 -75 -77 -101v-5c0 -16 12 -29 30 -29c16 0 34 9 50 25l68 -69c-33 -37 -81 -58 -132 -58c-77 0 -130 44 -130 109v7c0 40 25 82 67 110
c-141 13 -226 116 -226 270v440h154z" />
    <glyph glyph-name="Uring" unicode="&#x16e;" horiz-adv-x="638" 
d="M214 700v-370c0 -141 22 -207 105 -207s105 66 105 207v370h154v-440c0 -165 -98 -272 -259 -272s-259 107 -259 272v440h154zM286 842c0 -22 14 -35 33 -35s33 13 33 35s-14 35 -33 35s-33 -13 -33 -35zM207 842c0 68 49 109 112 109s112 -41 112 -109
s-49 -109 -112 -109s-112 41 -112 109z" />
    <glyph glyph-name="Utilde" unicode="&#x168;" horiz-adv-x="638" 
d="M214 700v-370c0 -141 22 -207 105 -207s105 66 105 207v370h154v-440c0 -165 -98 -272 -259 -272s-259 107 -259 272v440h154zM299 801c-12 12 -23 20 -35 20c-16 0 -26 -15 -29 -45l-88 8c7 80 51 124 113 124c28 0 56 -9 79 -30c12 -12 23 -20 35 -20c16 0 26 15 29 45
l88 -8c-7 -80 -51 -124 -113 -124c-28 0 -56 9 -79 30z" />
    <glyph glyph-name="Wcircumflex" unicode="&#x174;" horiz-adv-x="947" 
d="M548 700l117 -451l110 451h161l-190 -700h-151l-122 473l-121 -473h-151l-190 700h160l111 -451l117 451h149zM417 924h112l121 -161h-108l-69 70l-69 -70h-108z" />
    <glyph glyph-name="Yacute" unicode="&#xdd;" horiz-adv-x="604" 
d="M225 0v318l-213 382h167l123 -235l123 235h167l-213 -382v-318h-154zM437 924l-102 -161h-95l70 161h127z" />
    <glyph glyph-name="Ycircumflex" unicode="&#x176;" horiz-adv-x="604" 
d="M225 0v318l-213 382h167l123 -235l123 235h167l-213 -382v-318h-154zM246 924h112l121 -161h-108l-69 70l-69 -70h-108z" />
    <glyph glyph-name="Ydieresis" unicode="&#x178;" horiz-adv-x="604" 
d="M225 0v318l-213 382h167l123 -235l123 235h167l-213 -382v-318h-154zM264 902v-120h-118v120h118zM458 902v-120h-118v120h118z" />
    <glyph glyph-name="Zacute" unicode="&#x179;" horiz-adv-x="541" 
d="M38 109l271 455h-262v136h456v-109l-271 -455h271v-136h-465v109zM412 924l-102 -161h-95l70 161h127z" />
    <glyph glyph-name="Zcaron" unicode="&#x17d;" horiz-adv-x="541" 
d="M38 109l271 455h-262v136h456v-109l-271 -455h271v-136h-465v109zM328 763h-112l-121 161h108l69 -70l69 70h108z" />
    <glyph glyph-name="Zdotaccent" unicode="&#x17b;" horiz-adv-x="541" 
d="M38 109l271 455h-262v136h456v-109l-271 -455h271v-136h-465v109zM341 903v-123h-122v123h122z" />
    <glyph glyph-name="aacute" unicode="&#xe1;" horiz-adv-x="522" 
d="M36 135v11c0 85 62 153 219 153h73v16c0 53 -29 81 -73 81c-35 0 -64 -19 -80 -53l-124 30c36 82 108 139 213 139c134 0 207 -83 207 -196v-316h-143v52c-27 -41 -71 -64 -130 -64c-94 0 -162 59 -162 147zM235 104c41 0 77 18 93 48v50h-90c-39 0 -65 -20 -65 -49v-6
c0 -25 22 -43 62 -43zM383 725l-102 -161h-95l70 161h127z" />
    <glyph glyph-name="abreve" unicode="&#x103;" horiz-adv-x="522" 
d="M36 135v11c0 85 62 153 219 153h73v16c0 53 -29 81 -73 81c-35 0 -64 -19 -80 -53l-124 30c36 82 108 139 213 139c134 0 207 -83 207 -196v-316h-143v52c-27 -41 -71 -64 -130 -64c-94 0 -162 59 -162 147zM235 104c41 0 77 18 93 48v50h-90c-39 0 -65 -20 -65 -49v-6
c0 -25 22 -43 62 -43zM269 655c36 0 58 24 66 65l101 -17c-19 -94 -81 -138 -167 -138s-148 44 -167 138l101 17c8 -41 30 -65 66 -65z" />
    <glyph glyph-name="acircumflex" unicode="&#xe2;" horiz-adv-x="522" 
d="M36 135v11c0 85 62 153 219 153h73v16c0 53 -29 81 -73 81c-35 0 -64 -19 -80 -53l-124 30c36 82 108 139 213 139c134 0 207 -83 207 -196v-316h-143v52c-27 -41 -71 -64 -130 -64c-94 0 -162 59 -162 147zM235 104c41 0 77 18 93 48v50h-90c-39 0 -65 -20 -65 -49v-6
c0 -25 22 -43 62 -43zM219 725h112l121 -161h-108l-69 70l-69 -70h-108z" />
    <glyph glyph-name="acutecomb" unicode="&#x301;" horiz-adv-x="0" 
d="M-139 730l-102 -161h-95l70 161h127z" />
    <glyph glyph-name="adieresis" unicode="&#xe4;" horiz-adv-x="522" 
d="M36 135v11c0 85 62 153 219 153h73v16c0 53 -29 81 -73 81c-35 0 -64 -19 -80 -53l-124 30c36 82 108 139 213 139c134 0 207 -83 207 -196v-316h-143v52c-27 -41 -71 -64 -130 -64c-94 0 -162 59 -162 147zM235 104c41 0 77 18 93 48v50h-90c-39 0 -65 -20 -65 -49v-6
c0 -25 22 -43 62 -43zM225 703v-120h-118v120h118zM419 703v-120h-118v120h118z" />
    <glyph glyph-name="aeacute" unicode="&#x1fd;" horiz-adv-x="814" 
d="M235 104c41 0 77 18 93 48v50h-90c-39 0 -65 -20 -65 -49v-6c0 -25 22 -43 62 -43zM471 301h160v3c0 52 -31 89 -80 89s-80 -37 -80 -89v-3zM626 158l145 -12c-31 -100 -108 -158 -218 -158c-71 0 -129 29 -166 73c-42 -49 -116 -73 -189 -73c-94 0 -162 59 -162 147v11
c0 85 62 153 219 153h73v16c0 53 -29 81 -73 81c-35 0 -64 -19 -80 -53l-124 30c36 82 108 139 213 139c57 0 112 -24 144 -66c32 40 88 66 144 66c129 0 223 -94 223 -208v-99h-304v-4c0 -59 34 -94 81 -94c35 0 63 19 74 51zM535 725l-102 -161h-95l70 161h127z" />
    <glyph glyph-name="agrave" unicode="&#xe0;" horiz-adv-x="522" 
d="M36 135v11c0 85 62 153 219 153h73v16c0 53 -29 81 -73 81c-35 0 -64 -19 -80 -53l-124 30c36 82 108 139 213 139c134 0 207 -83 207 -196v-316h-143v52c-27 -41 -71 -64 -130 -64c-94 0 -162 59 -162 147zM235 104c41 0 77 18 93 48v50h-90c-39 0 -65 -20 -65 -49v-6
c0 -25 22 -43 62 -43zM239 564l-102 161h127l70 -161h-95z" />
    <glyph glyph-name="amacron" unicode="&#x101;" horiz-adv-x="522" 
d="M36 135v11c0 85 62 153 219 153h73v16c0 53 -29 81 -73 81c-35 0 -64 -19 -80 -53l-124 30c36 82 108 139 213 139c134 0 207 -83 207 -196v-316h-143v52c-27 -41 -71 -64 -130 -64c-94 0 -162 59 -162 147zM235 104c41 0 77 18 93 48v50h-90c-39 0 -65 -20 -65 -49v-6
c0 -25 22 -43 62 -43zM108 598v91h308v-91h-308z" />
    <glyph glyph-name="aogonek" unicode="&#x105;" horiz-adv-x="522" 
d="M328 0v52c-27 -41 -71 -64 -130 -64c-94 0 -162 59 -162 147v11c0 85 62 153 219 153h73v16c0 53 -29 81 -73 81c-35 0 -64 -19 -80 -53l-124 30c36 82 108 139 213 139c134 0 207 -83 207 -196v-316h-31c-60 -35 -82 -73 -82 -100v-5c0 -16 12 -29 30 -29
c16 0 34 9 50 25l68 -69c-33 -37 -81 -58 -132 -58c-77 0 -130 44 -130 109v7c0 45 32 92 84 120zM235 104c41 0 77 18 93 48v50h-90c-39 0 -65 -20 -65 -49v-6c0 -25 22 -43 62 -43z" />
    <glyph glyph-name="approxequal" unicode="&#x2248;" horiz-adv-x="562" 
d="M238 169c-19 20 -28 28 -44 28c-25 0 -29 -37 -31 -83l-133 9c3 132 69 194 162 194c57 0 104 -28 132 -58c19 -20 28 -28 44 -28c25 0 29 37 31 83l133 -9c-3 -132 -69 -194 -162 -194c-57 0 -104 28 -132 58zM238 384c-19 20 -28 28 -44 28c-25 0 -29 -37 -31 -83
l-133 9c3 132 69 194 162 194c57 0 104 -28 132 -58c19 -20 28 -28 44 -28c25 0 29 37 31 83l133 -9c-3 -132 -69 -194 -162 -194c-57 0 -104 28 -132 58z" />
    <glyph glyph-name="aring" unicode="&#xe5;" horiz-adv-x="522" 
d="M36 135v11c0 85 62 153 219 153h73v16c0 53 -29 81 -73 81c-35 0 -64 -19 -80 -53l-124 30c36 82 108 139 213 139c134 0 207 -83 207 -196v-316h-143v52c-27 -41 -71 -64 -130 -64c-94 0 -162 59 -162 147zM235 104c41 0 77 18 93 48v50h-90c-39 0 -65 -20 -65 -49v-6
c0 -25 22 -43 62 -43zM243 647c0 -22 14 -35 33 -35s33 13 33 35s-14 35 -33 35s-33 -13 -33 -35zM164 647c0 68 49 109 112 109s112 -41 112 -109s-49 -109 -112 -109s-112 41 -112 109z" />
    <glyph glyph-name="aringacute" unicode="&#x1fb;" horiz-adv-x="522" 
d="M408 897l-87 -115h-96l54 115h129zM36 135v11c0 85 62 153 219 153h73v16c0 53 -29 81 -73 81c-35 0 -64 -19 -80 -53l-124 30c36 82 108 139 213 139c134 0 207 -83 207 -196v-316h-143v52c-27 -41 -71 -64 -130 -64c-94 0 -162 59 -162 147zM235 104c41 0 77 18 93 48
v50h-90c-39 0 -65 -20 -65 -49v-6c0 -25 22 -43 62 -43zM243 647c0 -22 14 -35 33 -35s33 13 33 35s-14 35 -33 35s-33 -13 -33 -35zM164 647c0 68 49 109 112 109s112 -41 112 -109s-49 -109 -112 -109s-112 41 -112 109z" />
    <glyph glyph-name="arrowupdnbse" unicode="&#x21a8;" horiz-adv-x="860" 
d="M363 527h-140l207 223l207 -223h-140v-342h140l-178 -191h178v-82h-413v82h176l-177 191h140v342z" />
    <glyph glyph-name="atilde" unicode="&#xe3;" horiz-adv-x="522" 
d="M36 135v11c0 85 62 153 219 153h73v16c0 53 -29 81 -73 81c-35 0 -64 -19 -80 -53l-124 30c36 82 108 139 213 139c134 0 207 -83 207 -196v-316h-143v52c-27 -41 -71 -64 -130 -64c-94 0 -162 59 -162 147zM235 104c41 0 77 18 93 48v50h-90c-39 0 -65 -20 -65 -49v-6
c0 -25 22 -43 62 -43zM243 602c-12 12 -23 20 -35 20c-16 0 -26 -15 -29 -45l-88 8c7 80 51 124 113 124c28 0 56 -9 79 -30c12 -12 23 -20 35 -20c16 0 26 15 29 45l88 -8c-7 -80 -51 -124 -113 -124c-28 0 -56 9 -79 30z" />
    <glyph glyph-name="brokenbar" unicode="&#xa6;" horiz-adv-x="332" 
d="M91 395v388h150v-388h-150zM91 -93v388h150v-388h-150z" />
    <glyph glyph-name="bullet" unicode="&#x2022;" 
d="M47 326c0 78 64 142 142 142s142 -64 142 -142s-64 -142 -142 -142s-142 64 -142 142z" />
    <glyph glyph-name="cacute" unicode="&#x107;" horiz-adv-x="513" 
d="M39 200v99c0 118 93 212 224 212c117 0 202 -76 219 -177l-142 -18c-8 53 -39 77 -77 77c-44 0 -80 -32 -80 -104v-79c0 -72 36 -104 80 -104c38 0 69 24 77 77l142 -18c-17 -101 -102 -177 -219 -177c-131 0 -224 94 -224 212zM377 725l-102 -161h-95l70 161h127z" />
    <glyph glyph-name="ccaron" unicode="&#x10d;" horiz-adv-x="513" 
d="M39 200v99c0 118 93 212 224 212c117 0 202 -76 219 -177l-142 -18c-8 53 -39 77 -77 77c-44 0 -80 -32 -80 -104v-79c0 -72 36 -104 80 -104c38 0 69 24 77 77l142 -18c-17 -101 -102 -177 -219 -177c-131 0 -224 94 -224 212zM317 564h-112l-121 161h108l69 -70l69 70
h108z" />
    <glyph glyph-name="ccedilla" unicode="&#xe7;" horiz-adv-x="513" 
d="M39 200v99c0 118 93 212 224 212c117 0 202 -76 219 -177l-142 -18c-8 53 -39 77 -77 77c-44 0 -80 -32 -80 -104v-79c0 -72 36 -104 80 -104c38 0 69 24 77 77l142 -18c-14 -85 -76 -152 -165 -171l-15 -38c47 -15 74 -47 74 -95c0 -62 -45 -106 -129 -106
c-45 0 -89 18 -118 48l51 67c16 -14 37 -22 57 -22s31 9 31 24c0 18 -29 30 -74 32l-10 13l34 75c-107 18 -179 104 -179 208z" />
    <glyph glyph-name="ccircumflex" unicode="&#x109;" horiz-adv-x="513" 
d="M39 200v99c0 118 93 212 224 212c117 0 202 -76 219 -177l-142 -18c-8 53 -39 77 -77 77c-44 0 -80 -32 -80 -104v-79c0 -72 36 -104 80 -104c38 0 69 24 77 77l142 -18c-17 -101 -102 -177 -219 -177c-131 0 -224 94 -224 212zM205 725h112l121 -161h-108l-69 70
l-69 -70h-108z" />
    <glyph glyph-name="cdotaccent" unicode="&#x10b;" horiz-adv-x="513" 
d="M39 299v-99c0 -118 93 -212 224 -212c117 0 202 76 219 177l-142 18c-8 -53 -39 -77 -77 -77c-44 0 -80 32 -80 104v79c0 72 36 104 80 104c38 0 69 -24 77 -77l142 18c-17 101 -102 177 -219 177c-131 0 -224 -94 -224 -212zM322 704v-123h-122v123h122z" />
    <glyph glyph-name="cent" unicode="&#xa2;" horiz-adv-x="513" 
d="M39 200v99c0 97 63 178 158 203v87h128v-86c84 -21 143 -87 157 -169l-142 -18c-8 53 -39 77 -77 77c-44 0 -80 -32 -80 -104v-79c0 -72 36 -104 80 -104c38 0 69 24 77 77l142 -18c-14 -82 -73 -148 -157 -169v-85h-128v86c-95 25 -158 106 -158 203z" />
    <glyph glyph-name="circumflex" unicode="&#x2c6;" horiz-adv-x="394" 
d="M141 730h112l121 -161h-108l-69 70l-69 -70h-108z" />
    <glyph glyph-name="colonmonetary" unicode="&#x20a1;" horiz-adv-x="612" 
d="M225 699v95h68v-83c6 1 12 1 19 1c5 0 11 0 17 -1v83h68v-94c98 -29 163 -110 179 -225l-153 -19c-12 79 -48 120 -109 120c-75 0 -113 -56 -113 -160v-132c0 -104 38 -160 113 -160c61 0 97 41 109 120l153 -19c-16 -116 -81 -197 -179 -225v-94h-68v83
c-6 -1 -12 -1 -17 -1c-7 0 -13 0 -19 1v-83h-68v95c-111 34 -178 136 -178 269v160c0 133 67 234 178 269z" />
    <glyph glyph-name="copyright" unicode="&#xa9;" horiz-adv-x="754" 
d="M377 -12c-196 0 -332 128 -332 342v40c0 214 136 342 332 342s332 -128 332 -342v-40c0 -214 -136 -342 -332 -342zM377 660c-173 0 -276 -113 -276 -298v-24c0 -185 103 -298 276 -298s276 113 276 298v24c0 185 -103 298 -276 298zM218 302v96c0 100 62 170 162 170
c89 0 149 -55 161 -147l-101 -11c-8 44 -30 66 -59 66c-38 0 -59 -27 -59 -86v-79c0 -59 21 -87 59 -87c29 0 51 22 59 67l101 -12c-12 -91 -72 -146 -161 -146c-100 0 -162 69 -162 169z" />
    <glyph glyph-name="dcaron" unicode="&#x10f;" horiz-adv-x="685" 
d="M482 0h-144v43c-23 -34 -68 -55 -120 -55c-106 0 -179 78 -179 197v130c0 119 73 197 179 197c52 0 97 -21 120 -55v255h144v-712zM338 155v190c-15 29 -40 48 -73 48c-60 0 -82 -36 -82 -112v-62c0 -76 22 -112 82 -112c33 0 58 19 73 48zM679 712v-129
c0 -69 -47 -125 -140 -127v56c46 6 66 26 68 65h-68v135h140z" />
    <glyph glyph-name="dong" unicode="&#x20ab;" horiz-adv-x="552" 
d="M40 195v101c0 130 74 207 180 207c52 0 98 -21 121 -54v109h-120v89h120v53h144v-53h62v-89h-62v-558h-144v42c-23 -34 -69 -54 -121 -54c-106 0 -180 77 -180 207zM341 156v179c-15 29 -40 48 -74 48c-55 0 -83 -33 -83 -104v-67c0 -71 28 -104 83 -104
c34 0 59 19 74 48zM123 -159v86h351v-86h-351z" />
    <glyph glyph-name="eacute" unicode="&#xe9;" horiz-adv-x="526" 
d="M487 205h-304v-4c0 -59 34 -94 81 -94c35 0 63 19 74 51l145 -12c-31 -100 -109 -158 -219 -158c-134 0 -225 96 -225 212v99c0 118 93 213 224 213c129 0 224 -94 224 -208v-99zM183 301h160v3c0 52 -31 89 -80 89s-80 -37 -80 -89v-3zM391 725l-102 -161h-95l70 161
h127z" />
    <glyph glyph-name="ebreve" unicode="&#x115;" horiz-adv-x="526" 
d="M487 205h-304v-4c0 -59 34 -94 81 -94c35 0 63 19 74 51l145 -12c-31 -100 -109 -158 -219 -158c-134 0 -225 96 -225 212v99c0 118 93 213 224 213c129 0 224 -94 224 -208v-99zM183 301h160v3c0 52 -31 89 -80 89s-80 -37 -80 -89v-3zM263 655c36 0 58 24 66 65
l101 -17c-19 -94 -81 -138 -167 -138s-148 44 -167 138l101 17c8 -41 30 -65 66 -65z" />
    <glyph glyph-name="ecaron" unicode="&#x11b;" horiz-adv-x="526" 
d="M487 205h-304v-4c0 -59 34 -94 81 -94c35 0 63 19 74 51l145 -12c-31 -100 -109 -158 -219 -158c-134 0 -225 96 -225 212v99c0 118 93 213 224 213c129 0 224 -94 224 -208v-99zM183 301h160v3c0 52 -31 89 -80 89s-80 -37 -80 -89v-3zM319 564h-112l-121 161h108
l69 -70l69 70h108z" />
    <glyph glyph-name="ecircumflex" unicode="&#xea;" horiz-adv-x="526" 
d="M487 205h-304v-4c0 -59 34 -94 81 -94c35 0 63 19 74 51l145 -12c-31 -100 -109 -158 -219 -158c-134 0 -225 96 -225 212v99c0 118 93 213 224 213c129 0 224 -94 224 -208v-99zM183 301h160v3c0 52 -31 89 -80 89s-80 -37 -80 -89v-3zM207 725h112l121 -161h-108
l-69 70l-69 -70h-108z" />
    <glyph glyph-name="edieresis" unicode="&#xeb;" horiz-adv-x="526" 
d="M487 204h-304v-4c0 -59 34 -94 81 -94c35 0 63 19 74 51l145 -12c-31 -100 -109 -158 -219 -158c-134 0 -225 96 -225 212v99c0 118 93 213 224 213c129 0 224 -94 224 -208v-99zM183 300h160v3c0 52 -31 89 -80 89s-80 -37 -80 -89v-3zM225 703v-120h-118v120h118z
M419 703v-120h-118v120h118z" />
    <glyph glyph-name="edotaccent" unicode="&#x117;" horiz-adv-x="526" 
d="M487 205h-304v-4c0 -59 34 -94 81 -94c35 0 63 19 74 51l145 -12c-31 -100 -109 -158 -219 -158c-134 0 -225 96 -225 212v99c0 118 93 213 224 213c129 0 224 -94 224 -208v-99zM183 301h160v3c0 52 -31 89 -80 89s-80 -37 -80 -89v-3zM324 704v-123h-122v123h122z" />
    <glyph glyph-name="egrave" unicode="&#xe8;" horiz-adv-x="526" 
d="M487 205h-304v-4c0 -59 34 -94 81 -94c35 0 63 19 74 51l145 -12c-31 -100 -109 -158 -219 -158c-134 0 -225 96 -225 212v99c0 118 93 213 224 213c129 0 224 -94 224 -208v-99zM183 301h160v3c0 52 -31 89 -80 89s-80 -37 -80 -89v-3zM238 564l-102 161h127l70 -161
h-95z" />
    <glyph glyph-name="emacron" unicode="&#x113;" horiz-adv-x="526" 
d="M487 205h-304v-4c0 -59 34 -94 81 -94c35 0 63 19 74 51l145 -12c-31 -100 -109 -158 -219 -158c-134 0 -225 96 -225 212v99c0 118 93 213 224 213c129 0 224 -94 224 -208v-99zM183 301h160v3c0 52 -31 89 -80 89s-80 -37 -80 -89v-3zM109 598v91h308v-91h-308z" />
    <glyph glyph-name="emdash" unicode="&#x2014;" horiz-adv-x="1000" 
d="M1000 271h-1000v112h1000v-112z" />
    <glyph glyph-name="endash" unicode="&#x2013;" horiz-adv-x="500" 
d="M500 270h-500v112h500v-112z" />
    <glyph glyph-name="eogonek" unicode="&#x119;" horiz-adv-x="526" 
d="M487 205h-304v-4c0 -59 34 -94 81 -94c35 0 63 19 74 51l145 -12c-23 -73 -70 -124 -137 -146c-57 -33 -80 -69 -80 -100v-5c0 -16 12 -29 30 -29c16 0 34 9 50 25l68 -69c-33 -37 -81 -58 -132 -58c-77 0 -130 44 -130 109v7c0 41 26 83 70 112
c-111 17 -183 104 -183 208v99c0 118 93 213 224 213c129 0 224 -94 224 -208v-99zM183 301h160v3c0 52 -31 89 -80 89s-80 -37 -80 -89v-3z" />
    <glyph glyph-name="estimated" unicode="&#x212e;" horiz-adv-x="738" 
d="M391 44c84 0 164 47 200 107l64 -15c-57 -91 -150 -148 -263 -148c-232 0 -350 154 -350 362c0 197 119 362 332 362c205 0 320 -164 320 -367v-27h-469v-221c41 -35 99 -53 166 -53zM371 654c-57 0 -108 -18 -146 -48v-230h291v231c-37 30 -88 47 -145 47z" />
    <glyph glyph-name="exclamdbl" unicode="&#x203c;" horiz-adv-x="581" 
d="M119 225l-22 368v107h149v-107l-22 -368h-105zM101 0v139h141v-139h-141zM357 225l-22 368v107h149v-107l-22 -368h-105zM339 0v139h141v-139h-141z" />
    <glyph glyph-name="florin" unicode="&#x192;" horiz-adv-x="372" 
d="M98 -22v403h-67v119h67v25c0 143 54 187 205 187h52v-119h-51c-48 0 -62 -19 -62 -71v-22h113v-119h-113v-406c0 -143 -54 -187 -205 -187h-52v119h51c48 0 62 19 62 71z" />
    <glyph glyph-name="fraction" unicode="&#x2044;" horiz-adv-x="174" 
d="M317 700l-342 -700h-118l342 700h118z" />
    <glyph glyph-name="franc" unicode="&#x20a3;" horiz-adv-x="544" 
d="M6 439h61v261h455v-136h-301v-125h193v-71h-193v-51h193v-71h-193v-246h-154v246h-61v71h61v51h-61v71z" />
    <glyph glyph-name="gbreve" unicode="&#x11f;" horiz-adv-x="538" 
d="M338 43c-23 -34 -68 -55 -120 -55c-106 0 -179 78 -179 197v130c0 119 73 197 179 197c52 0 97 -21 120 -55v43h144v-516c0 -130 -76 -216 -216 -216c-100 0 -175 50 -207 141l130 31c14 -39 40 -56 76 -56c42 0 73 27 73 105v54zM338 155v190c-15 29 -40 48 -73 48
c-60 0 -82 -36 -82 -112v-62c0 -76 22 -112 82 -112c33 0 58 19 73 48zM270 655c36 0 58 24 66 65l101 -17c-19 -94 -81 -138 -167 -138s-148 44 -167 138l101 17c8 -41 30 -65 66 -65z" />
    <glyph glyph-name="gcircumflex" unicode="&#x11d;" horiz-adv-x="538" 
d="M338 43c-23 -34 -68 -55 -120 -55c-106 0 -179 78 -179 197v130c0 119 73 197 179 197c52 0 97 -21 120 -55v43h144v-516c0 -130 -76 -216 -216 -216c-100 0 -175 50 -207 141l130 31c14 -39 40 -56 76 -56c42 0 73 27 73 105v54zM338 155v190c-15 29 -40 48 -73 48
c-60 0 -82 -36 -82 -112v-62c0 -76 22 -112 82 -112c33 0 58 19 73 48zM226 725h112l121 -161h-108l-69 70l-69 -70h-108z" />
    <glyph glyph-name="gcommaaccent" unicode="&#x123;" horiz-adv-x="538" 
d="M338 43c-23 -34 -68 -55 -120 -55c-106 0 -179 78 -179 197v130c0 119 73 197 179 197c52 0 97 -21 120 -55v43h144v-516c0 -130 -76 -216 -216 -216c-100 0 -175 50 -207 141l130 31c14 -39 40 -56 76 -56c42 0 73 27 73 105v54zM338 155v190c-15 29 -40 48 -73 48
c-60 0 -82 -36 -82 -112v-62c0 -76 22 -112 82 -112c33 0 58 19 73 48zM273 712h96l-44 -161h-128z" />
    <glyph glyph-name="gdotaccent" unicode="&#x121;" horiz-adv-x="538" 
d="M338 43c-23 -34 -68 -55 -120 -55c-106 0 -179 78 -179 197v130c0 119 73 197 179 197c52 0 97 -21 120 -55v43h144v-516c0 -130 -76 -216 -216 -216c-100 0 -175 50 -207 141l130 31c14 -39 40 -56 76 -56c42 0 73 27 73 105v54zM338 155v190c-15 29 -40 48 -73 48
c-60 0 -82 -36 -82 -112v-62c0 -76 22 -112 82 -112c33 0 58 19 73 48zM331 704v-123h-122v123h122z" />
    <glyph glyph-name="gravecomb" unicode="&#x300;" horiz-adv-x="0" 
d="M-233 569l-102 161h127l70 -161h-95z" />
    <glyph glyph-name="guillemotleft" unicode="&#xab;" horiz-adv-x="535" 
d="M268 385l-123 -74l123 -74v-118l-238 157v70l238 157v-118zM505 385l-123 -74l123 -74v-118l-238 157v70l238 157v-118z" />
    <glyph glyph-name="guillemotright" unicode="&#xbb;" horiz-adv-x="535" 
d="M390 311l-123 74v118l238 -157v-70l-238 -157v118zM153 311l-123 74v118l238 -157v-70l-238 -157v118z" />
    <glyph glyph-name="guilsinglleft" unicode="&#x2039;" horiz-adv-x="298" 
d="M268 385l-123 -74l123 -74v-118l-238 157v70l238 157v-118z" />
    <glyph glyph-name="guilsinglright" unicode="&#x203a;" horiz-adv-x="298" 
d="M153 311l-123 74v118l238 -157v-70l-238 -157v118z" />
    <glyph glyph-name="hcircumflex" unicode="&#x125;" horiz-adv-x="550" 
d="M500 311v-311h-144v296c0 64 -25 97 -76 97c-34 0 -65 -22 -80 -56v-337h-144v712h144v-262c24 36 69 62 126 62c108 0 174 -75 174 -201zM71 924h112l121 -161h-108l-69 70l-69 -70h-108z" />
    <glyph glyph-name="house" unicode="&#x2302;" horiz-adv-x="628" 
d="M567 0h-506v326l253 290l253 -290v-326zM193 99h242v189l-121 143l-121 -143v-189z" />
    <glyph glyph-name="iacute" unicode="&#xed;" horiz-adv-x="276" 
d="M66 0v500h144v-500h-144zM277 725l-102 -161h-95l70 161h127z" />
    <glyph glyph-name="ibreve" unicode="&#x12d;" horiz-adv-x="276" 
d="M66 0v500h144v-500h-144zM138 655c36 0 58 24 66 65l101 -17c-19 -94 -81 -138 -167 -138s-148 44 -167 138l101 17c8 -41 30 -65 66 -65z" />
    <glyph glyph-name="icircumflex" unicode="&#xee;" horiz-adv-x="276" 
d="M66 0v500h144v-500h-144zM82 725h112l121 -161h-108l-69 70l-69 -70h-108z" />
    <glyph glyph-name="idieresis" unicode="&#xef;" horiz-adv-x="276" 
d="M66 0v500h144v-500h-144zM100 703v-120h-118v120h118zM294 703v-120h-118v120h118z" />
    <glyph glyph-name="igrave" unicode="&#xec;" horiz-adv-x="276" 
d="M66 0v500h144v-500h-144zM101 564l-102 161h127l70 -161h-95z" />
    <glyph glyph-name="imacron" unicode="&#x12b;" horiz-adv-x="276" 
d="M66 0v500h144v-500h-144zM-16 598v91h308v-91h-308z" />
    <glyph glyph-name="Delta" unicode="&#x2206;" horiz-adv-x="624" 
d="M347 700l272 -700h-614l272 700h70zM420 126l-108 320l-108 -320h216z" />
    <glyph glyph-name="iogonek" unicode="&#x12f;" horiz-adv-x="276" 
d="M66 0v500h144v-500c-60 -35 -82 -73 -82 -100v-5c0 -16 12 -29 30 -29c17 0 34 9 51 25l67 -69c-33 -37 -81 -58 -132 -58c-77 0 -130 44 -130 109v7c0 45 32 92 85 120h-33zM66 580v132h144v-132h-144z" />
    <glyph glyph-name="itilde" unicode="&#x129;" horiz-adv-x="276" 
d="M66 0v500h144v-500h-144zM118 602c-12 12 -23 20 -35 20c-16 0 -26 -15 -29 -45l-88 8c7 80 51 124 113 124c28 0 56 -9 79 -30c12 -12 23 -20 35 -20c16 0 26 15 29 45l88 -8c-7 -80 -51 -124 -113 -124c-28 0 -56 9 -79 30z" />
    <glyph glyph-name="jcircumflex" unicode="&#x135;" horiz-adv-x="294" 
d="M85 -33v533h143v-545c0 -116 -53 -167 -172 -167h-73v118h46c39 0 56 19 56 61zM100 725h112l121 -161h-108l-69 70l-69 -70h-108z" />
    <glyph glyph-name="kcommaaccent" unicode="&#x137;" horiz-adv-x="519" 
d="M466 500v-16c0 -93 -29 -149 -101 -207l155 -277h-154l-106 204l-60 -40v-164h-144v712h144v-399l24 16c69 46 102 88 102 151v20h140zM280 -210h-96l44 161h128z" />
    <glyph glyph-name="lacute" unicode="&#x13a;" horiz-adv-x="318" 
d="M210 712v-532c0 -42 16 -61 55 -61h32v-119h-59c-119 0 -172 50 -172 167v545h144zM277 924l-102 -161h-95l70 161h127z" />
    <glyph glyph-name="lcaron" unicode="&#x13e;" horiz-adv-x="409" 
d="M210 712v-532c0 -42 16 -61 55 -61h32v-119h-59c-119 0 -172 50 -172 167v545h144zM403 712v-129c0 -69 -47 -125 -140 -127v56c46 6 66 26 68 65h-68v135h140z" />
    <glyph glyph-name="lcommaaccent" unicode="&#x13c;" horiz-adv-x="318" 
d="M210 712v-532c0 -42 16 -61 55 -61h32v-119h-59c-119 0 -172 50 -172 167v545h144zM188 -210h-96l44 161h128z" />
    <glyph glyph-name="lira" unicode="&#x20a4;" horiz-adv-x="594" 
d="M41 227v70h60v48h-60v70h60v65c0 141 78 232 221 232c132 0 217 -78 228 -211l-154 -18c-6 72 -33 93 -74 93c-42 0 -67 -30 -67 -103v-58h159v-70h-159v-48h159v-70h-160c-3 -41 -15 -69 -31 -91h334v-136h-511v116c32 31 51 67 54 111h-59z" />
    <glyph glyph-name="logicalnot" unicode="&#xac;" horiz-adv-x="562" 
d="M48 267v115h463v-257h-141v142h-322z" />
    <glyph glyph-name="longs" unicode="&#x17f;" horiz-adv-x="372" 
d="M31 381v119h67v25c0 143 54 187 205 187h52v-119h-51c-48 0 -62 -19 -62 -71v-522h-144v381h-67z" />
    <glyph glyph-name="lozenge" unicode="&#x25ca;" horiz-adv-x="568" 
d="M528 302l-244 -459l-244 459l244 459zM160 302l124 -239l124 239l-124 239z" />
    <glyph glyph-name="minus" unicode="&#x2212;" horiz-adv-x="562" 
d="M50 267v115h462v-115h-462z" />
    <glyph glyph-name="mu" unicode="&#xb5;" horiz-adv-x="555" 
d="M200 500v-286c0 -64 20 -107 74 -107c31 0 66 18 81 57v336h144v-500h-144v57c-16 -43 -50 -69 -88 -69c-28 0 -52 11 -67 31v-237h-144v718h144z" />
    <glyph glyph-name="nacute" unicode="&#x144;" horiz-adv-x="550" 
d="M500 311v-311h-144v296c0 64 -25 97 -76 97c-34 0 -65 -22 -80 -56v-337h-144v500h144v-50c24 36 69 62 126 62c108 0 174 -75 174 -201zM404 725l-102 -161h-95l70 161h127z" />
    <glyph glyph-name="uni00A0" unicode="&#xa0;" horiz-adv-x="260" 
 />
    <glyph glyph-name="ncaron" unicode="&#x148;" horiz-adv-x="550" 
d="M500 311v-311h-144v296c0 64 -25 97 -76 97c-34 0 -65 -22 -80 -56v-337h-144v500h144v-50c24 36 69 62 126 62c108 0 174 -75 174 -201zM330 564h-112l-121 161h108l69 -70l69 70h108z" />
    <glyph glyph-name="ncommaaccent" unicode="&#x146;" horiz-adv-x="550" 
d="M500 311v-311h-144v296c0 64 -25 97 -76 97c-34 0 -65 -22 -80 -56v-337h-144v500h144v-50c24 36 69 62 126 62c108 0 174 -75 174 -201zM268 -210h-96l44 161h128z" />
    <glyph glyph-name="ntilde" unicode="&#xf1;" horiz-adv-x="550" 
d="M500 311v-311h-144v296c0 64 -25 97 -76 97c-34 0 -65 -22 -80 -56v-337h-144v500h144v-50c24 36 69 62 126 62c108 0 174 -75 174 -201zM254 602c-12 12 -23 20 -35 20c-16 0 -26 -15 -29 -45l-88 8c7 80 51 124 113 124c28 0 56 -9 79 -30c12 -12 23 -20 35 -20
c16 0 26 15 29 45l88 -8c-7 -80 -51 -124 -113 -124c-28 0 -56 9 -79 30z" />
    <glyph glyph-name="oacute" unicode="&#xf3;" horiz-adv-x="526" 
d="M183 289v-78c0 -72 36 -104 80 -104s80 32 80 104v78c0 72 -36 104 -80 104s-80 -32 -80 -104zM39 201v98c0 118 93 213 224 213s224 -95 224 -213v-98c0 -118 -93 -213 -224 -213s-224 95 -224 213zM390 725l-102 -161h-95l70 161h127z" />
    <glyph glyph-name="obreve" unicode="&#x14f;" horiz-adv-x="526" 
d="M183 289v-78c0 -72 36 -104 80 -104s80 32 80 104v78c0 72 -36 104 -80 104s-80 -32 -80 -104zM39 201v98c0 118 93 213 224 213s224 -95 224 -213v-98c0 -118 -93 -213 -224 -213s-224 95 -224 213zM263 655c36 0 58 24 66 65l101 -17c-19 -94 -81 -138 -167 -138
s-148 44 -167 138l101 17c8 -41 30 -65 66 -65z" />
    <glyph glyph-name="ocircumflex" unicode="&#xf4;" horiz-adv-x="526" 
d="M183 289v-78c0 -72 36 -104 80 -104s80 32 80 104v78c0 72 -36 104 -80 104s-80 -32 -80 -104zM39 201v98c0 118 93 213 224 213s224 -95 224 -213v-98c0 -118 -93 -213 -224 -213s-224 95 -224 213zM207 725h112l121 -161h-108l-69 70l-69 -70h-108z" />
    <glyph glyph-name="odieresis" unicode="&#xf6;" horiz-adv-x="526" 
d="M183 289v-78c0 -72 36 -104 80 -104s80 32 80 104v78c0 72 -36 104 -80 104s-80 -32 -80 -104zM39 201v98c0 118 93 213 224 213s224 -95 224 -213v-98c0 -118 -93 -213 -224 -213s-224 95 -224 213zM225 703v-120h-118v120h118zM419 703v-120h-118v120h118z" />
    <glyph glyph-name="ograve" unicode="&#xf2;" horiz-adv-x="526" 
d="M183 289v-78c0 -72 36 -104 80 -104s80 32 80 104v78c0 72 -36 104 -80 104s-80 -32 -80 -104zM39 201v98c0 118 93 213 224 213s224 -95 224 -213v-98c0 -118 -93 -213 -224 -213s-224 95 -224 213zM238 564l-102 161h127l70 -161h-95z" />
    <glyph glyph-name="ohungarumlaut" unicode="&#x151;" horiz-adv-x="526" 
d="M183 289v-78c0 -72 36 -104 80 -104s80 32 80 104v78c0 72 -36 104 -80 104s-80 -32 -80 -104zM39 201v98c0 118 93 213 224 213s224 -95 224 -213v-98c0 -118 -93 -213 -224 -213s-224 95 -224 213zM318 725l-96 -161h-85l64 161h117zM485 725l-108 -161h-90l81 161h117
z" />
    <glyph glyph-name="omacron" unicode="&#x14d;" horiz-adv-x="526" 
d="M183 289v-78c0 -72 36 -104 80 -104s80 32 80 104v78c0 72 -36 104 -80 104s-80 -32 -80 -104zM39 201v98c0 118 93 213 224 213s224 -95 224 -213v-98c0 -118 -93 -213 -224 -213s-224 95 -224 213zM109 598v91h308v-91h-308z" />
    <glyph glyph-name="onedotenleader" unicode="&#x2024;" horiz-adv-x="274" 
d="M214 148v-148h-154v148h154z" />
    <glyph glyph-name="orthogonal" unicode="&#x221f;" horiz-adv-x="568" 
d="M552 120v-120h-485v575h146v-455h339z" />
    <glyph glyph-name="oslashacute" unicode="&#x1ff;" horiz-adv-x="526" 
d="M71 -38l42 78c-46 39 -73 96 -73 161v98c0 118 92 213 223 213c35 0 67 -7 95 -19l25 45h72l-42 -78c46 -39 73 -97 73 -161v-98c0 -118 -92 -213 -223 -213c-35 0 -67 7 -95 18l-24 -44h-73zM184 289v-78c0 -13 1 -25 3 -35l112 208c-11 6 -23 9 -36 9
c-44 0 -79 -32 -79 -104zM342 289c0 12 -1 24 -3 34l-112 -208c10 -6 23 -8 36 -8c44 0 79 32 79 104v78zM391 725l-102 -161h-95l70 161h127z" />
    <glyph glyph-name="otilde" unicode="&#xf5;" horiz-adv-x="526" 
d="M183 289v-78c0 -72 36 -104 80 -104s80 32 80 104v78c0 72 -36 104 -80 104s-80 -32 -80 -104zM39 201v98c0 118 93 213 224 213s224 -95 224 -213v-98c0 -118 -93 -213 -224 -213s-224 95 -224 213zM243 602c-12 12 -23 20 -35 20c-16 0 -26 -15 -29 -45l-88 8
c7 80 51 124 113 124c28 0 56 -9 79 -30c12 -12 23 -20 35 -20c16 0 26 15 29 45l88 -8c-7 -80 -51 -124 -113 -124c-28 0 -56 9 -79 30z" />
    <glyph glyph-name="macron" unicode="&#xaf;" horiz-adv-x="394" 
d="M43 602v91h308v-91h-308z" />
    <glyph glyph-name="peseta" unicode="&#x20a7;" horiz-adv-x="1118" 
d="M898 0h-216c-107 0 -158 50 -158 167v220h-54c-24 -104 -122 -146 -214 -146h-43v-241h-147v700h190c106 0 211 -64 224 -200h44v142h140v-142h82v-40c29 32 74 52 136 52c93 0 161 -46 187 -144l-120 -17c-9 35 -31 49 -62 49c-29 0 -46 -15 -46 -37
c0 -23 17 -35 61 -45l31 -7c104 -23 149 -69 149 -152c0 -89 -56 -159 -184 -159zM711 360c0 10 0 18 2 27h-49v-196c0 -48 9 -79 58 -79h158c47 0 72 14 72 45c0 24 -11 42 -50 51l-42 9c-98 21 -149 65 -149 143zM213 368h32c59 0 95 36 95 102c0 67 -36 103 -95 103h-32
v-205z" />
    <glyph glyph-name="quotedblbase" unicode="&#x201e;" horiz-adv-x="476" 
d="M214 148v-142c0 -74 -52 -138 -154 -140v63c50 7 72 29 74 71h-74v148h154zM416 148v-142c0 -74 -52 -138 -154 -140v63c50 7 72 29 74 71h-74v148h154z" />
    <glyph glyph-name="quotereversed" unicode="&#x201b;" horiz-adv-x="275" 
d="M60 654v141h155v-148h-75c3 -42 24 -65 75 -71v-63c-103 2 -155 65 -155 141z" />
    <glyph glyph-name="quotesinglbase" unicode="&#x201a;" horiz-adv-x="274" 
d="M214 148v-142c0 -74 -52 -138 -154 -140v63c50 7 72 29 74 71h-74v148h154z" />
    <glyph glyph-name="racute" unicode="&#x155;" horiz-adv-x="397" 
d="M56 0v500h144v-59c30 46 75 71 129 71c20 0 41 -3 57 -11v-118c-18 6 -39 10 -62 10c-54 0 -98 -24 -124 -66v-327h-144zM330 725l-102 -161h-95l70 161h127z" />
    <glyph glyph-name="rcaron" unicode="&#x159;" horiz-adv-x="397" 
d="M56 0v500h144v-59c30 46 75 71 129 71c20 0 41 -3 57 -11v-118c-18 6 -39 10 -62 10c-54 0 -98 -24 -124 -66v-327h-144zM274 564h-112l-121 161h108l69 -70l69 70h108z" />
    <glyph glyph-name="rcommaaccent" unicode="&#x157;" horiz-adv-x="397" 
d="M56 0v500h144v-59c30 46 75 71 129 71c20 0 41 -3 57 -11v-118c-18 6 -39 10 -62 10c-54 0 -98 -24 -124 -66v-327h-144zM126 -210h-96l44 161h128z" />
    <glyph glyph-name="revlogicalnot" unicode="&#x2310;" horiz-adv-x="562" 
d="M514 382v-115h-322v-142h-141v257h463z" />
    <glyph glyph-name="sacute" unicode="&#x15b;" horiz-adv-x="492" 
d="M312 143c0 24 -13 42 -62 52l-42 9c-108 23 -159 70 -159 156c0 87 69 152 188 152c105 0 181 -52 206 -146l-131 -18c-8 33 -34 54 -68 54c-32 0 -51 -19 -51 -40c0 -23 17 -39 61 -48l43 -9c112 -22 159 -71 159 -157c0 -92 -73 -160 -198 -160
c-114 0 -193 55 -221 158l134 19c14 -45 44 -67 84 -67c35 0 57 19 57 45zM377 725l-102 -161h-95l70 161h127z" />
    <glyph glyph-name="scaron" unicode="&#x161;" horiz-adv-x="492" 
d="M312 143c0 24 -13 42 -62 52l-42 9c-108 23 -159 70 -159 156c0 87 69 152 188 152c105 0 181 -52 206 -146l-131 -18c-8 33 -34 54 -68 54c-32 0 -51 -19 -51 -40c0 -23 17 -39 61 -48l43 -9c112 -22 159 -71 159 -157c0 -92 -73 -160 -198 -160
c-114 0 -193 55 -221 158l134 19c14 -45 44 -67 84 -67c35 0 57 19 57 45zM295 564h-112l-121 161h108l69 -70l69 70h108z" />
    <glyph glyph-name="scedilla" unicode="&#x15f;" horiz-adv-x="492" 
d="M132 -197l51 67c16 -14 37 -22 57 -22s31 9 31 24c0 18 -29 30 -74 32l-10 13l33 73c-93 11 -158 64 -183 156l134 19c14 -45 44 -67 84 -67c35 0 57 19 57 45c0 24 -13 42 -62 52l-42 9c-108 23 -159 70 -159 156c0 87 69 152 188 152c105 0 181 -52 206 -146l-131 -18
c-8 33 -34 54 -68 54c-32 0 -51 -19 -51 -40c0 -23 17 -39 61 -48l43 -9c112 -22 159 -71 159 -157c0 -75 -49 -135 -135 -153l-16 -39c47 -15 74 -47 74 -95c0 -62 -45 -106 -129 -106c-45 0 -89 18 -118 48z" />
    <glyph glyph-name="scircumflex" unicode="&#x15d;" horiz-adv-x="492" 
d="M312 143c0 24 -13 42 -62 52l-42 9c-108 23 -159 70 -159 156c0 87 69 152 188 152c105 0 181 -52 206 -146l-131 -18c-8 33 -34 54 -68 54c-32 0 -51 -19 -51 -40c0 -23 17 -39 61 -48l43 -9c112 -22 159 -71 159 -157c0 -92 -73 -160 -198 -160
c-114 0 -193 55 -221 158l134 19c14 -45 44 -67 84 -67c35 0 57 19 57 45zM195 725h112l121 -161h-108l-69 70l-69 -70h-108z" />
    <glyph glyph-name="sterling" unicode="&#xa3;" horiz-adv-x="594" 
d="M322 712c133 0 217 -77 229 -210l-154 -19c-7 69 -31 93 -74 93c-44 0 -68 -32 -68 -102v-98h164v-91h-164v-38c0 -52 -12 -86 -32 -111h334v-136h-511v115c35 33 55 75 55 124v46h-59v91h59v104c0 141 78 232 221 232z" />
    <glyph glyph-name="tcaron" unicode="&#x165;" horiz-adv-x="521" 
d="M228 381v-201c0 -42 16 -61 54 -61h64v-119h-91c-119 0 -171 51 -171 167v214h-67v119h67v142h144v-142h112v-119h-112zM515 712v-129c0 -69 -47 -125 -140 -127v56c46 6 66 26 68 65h-68v135h140z" />
    <glyph glyph-name="tcommaaccent" unicode="&#x163;" horiz-adv-x="373" 
d="M79 -197l51 67c16 -14 37 -22 57 -22s31 9 31 24c0 18 -29 30 -74 32l-10 13l44 93c-65 20 -94 70 -94 157v214h-67v119h67v142h144v-142h112v-119h-112v-201c0 -42 16 -61 54 -61h64v-119h-76l-18 -44c47 -15 74 -47 74 -95c0 -62 -45 -106 -129 -106
c-45 0 -89 18 -118 48z" />
    <glyph glyph-name="tilde" unicode="&#x2dc;" horiz-adv-x="394" 
d="M177 608c-12 12 -23 20 -35 20c-16 0 -26 -15 -29 -45l-88 8c7 80 51 124 113 124c28 0 56 -9 79 -30c12 -12 23 -20 35 -20c16 0 26 15 29 45l88 -8c-7 -80 -51 -124 -113 -124c-28 0 -56 9 -79 30z" />
    <glyph glyph-name="tildecomb" unicode="&#x303;" horiz-adv-x="0" 
d="M-256 608c-12 12 -23 20 -35 20c-16 0 -26 -15 -29 -45l-88 8c7 80 51 124 113 124c28 0 56 -9 79 -30c12 -12 23 -20 35 -20c16 0 26 15 29 45l88 -8c-7 -80 -51 -124 -113 -124c-28 0 -56 9 -79 30z" />
    <glyph glyph-name="uacute" unicode="&#xfa;" horiz-adv-x="550" 
d="M50 189v311h144v-296c0 -64 25 -97 76 -97c34 0 65 22 80 56v337h144v-500h-144v50c-24 -36 -69 -62 -126 -62c-108 0 -174 75 -174 201zM398 725l-102 -161h-95l70 161h127z" />
    <glyph glyph-name="ubreve" unicode="&#x16d;" horiz-adv-x="550" 
d="M50 189v311h144v-296c0 -64 25 -97 76 -97c34 0 65 22 80 56v337h144v-500h-144v50c-24 -36 -69 -62 -126 -62c-108 0 -174 75 -174 201zM269 655c36 0 58 24 66 65l101 -17c-19 -94 -81 -138 -167 -138s-148 44 -167 138l101 17c8 -41 30 -65 66 -65z" />
    <glyph glyph-name="ucircumflex" unicode="&#xfb;" horiz-adv-x="550" 
d="M50 189v311h144v-296c0 -64 25 -97 76 -97c34 0 65 22 80 56v337h144v-500h-144v50c-24 -36 -69 -62 -126 -62c-108 0 -174 75 -174 201zM225 725h112l121 -161h-108l-69 70l-69 -70h-108z" />
    <glyph glyph-name="udieresis" unicode="&#xfc;" horiz-adv-x="550" 
d="M50 189v311h144v-296c0 -64 25 -97 76 -97c34 0 65 22 80 56v337h144v-500h-144v50c-24 -36 -69 -62 -126 -62c-108 0 -174 75 -174 201zM231 703v-120h-118v120h118zM425 703v-120h-118v120h118z" />
    <glyph glyph-name="ugrave" unicode="&#xf9;" horiz-adv-x="550" 
d="M50 189v311h144v-296c0 -64 25 -97 76 -97c34 0 65 22 80 56v337h144v-500h-144v50c-24 -36 -69 -62 -126 -62c-108 0 -174 75 -174 201zM249 564l-102 161h127l70 -161h-95z" />
    <glyph glyph-name="uhungarumlaut" unicode="&#x171;" horiz-adv-x="550" 
d="M50 189v311h144v-296c0 -64 25 -97 76 -97c34 0 65 22 80 56v337h144v-500h-144v50c-24 -36 -69 -62 -126 -62c-108 0 -174 75 -174 201zM306 725l-96 -161h-85l64 161h117zM473 725l-108 -161h-90l81 161h117z" />
    <glyph glyph-name="umacron" unicode="&#x16b;" horiz-adv-x="550" 
d="M50 189v311h144v-296c0 -64 25 -97 76 -97c34 0 65 22 80 56v337h144v-500h-144v50c-24 -36 -69 -62 -126 -62c-108 0 -174 75 -174 201zM115 598v91h308v-91h-308z" />
    <glyph glyph-name="underscoredbl" unicode="&#x2017;" horiz-adv-x="600" 
d="M47 -242v91h506v-91h-506zM47 -114v90h506v-90h-506z" />
    <glyph glyph-name="uni0191" unicode="&#x191;" horiz-adv-x="544" 
d="M67 700h455v-136h-301v-146h270v-136h-270v-329c0 -109 -45 -165 -177 -165h-65v133h46c30 0 42 18 42 49v730z" />
    <glyph glyph-name="uni02C9" unicode="&#x2c9;" horiz-adv-x="394" 
d="M43 602v91h308v-91h-308z" />
    <glyph glyph-name="uni0302" unicode="&#x302;" horiz-adv-x="0" 
d="M-281 730h112l121 -161h-108l-69 70l-69 -70h-108z" />
    <glyph glyph-name="uni0304" unicode="&#x304;" horiz-adv-x="0" 
d="M-390 603v91h308v-91h-308z" />
    <glyph glyph-name="uni0306" unicode="&#x306;" horiz-adv-x="0" 
d="M-236 660c36 0 58 24 66 65l101 -17c-19 -94 -81 -138 -167 -138s-148 44 -167 138l101 17c8 -41 30 -65 66 -65z" />
    <glyph glyph-name="uni0307" unicode="&#x307;" horiz-adv-x="0" 
d="M-175 709v-123h-122v123h122z" />
    <glyph glyph-name="uni0308" unicode="&#x308;" horiz-adv-x="0" 
d="M-274 708v-120h-118v120h118zM-80 708v-120h-118v120h118z" />
    <glyph glyph-name="uni030A" unicode="&#x30a;" horiz-adv-x="0" 
d="M-269 648c0 -22 14 -35 33 -35s33 13 33 35s-14 35 -33 35s-33 -13 -33 -35zM-348 648c0 68 49 109 112 109s112 -41 112 -109s-49 -109 -112 -109s-112 41 -112 109z" />
    <glyph glyph-name="uni030C" unicode="&#x30c;" horiz-adv-x="0" 
d="M-180 569h-112l-121 161h108l69 -70l69 70h108z" />
    <glyph glyph-name="uni0327" unicode="&#x327;" horiz-adv-x="0" 
d="M-361 -197l51 67c16 -14 37 -22 57 -22s31 9 31 24c0 18 -29 30 -74 32l-10 13l38 83h98l-18 -44c47 -15 74 -47 74 -95c0 -62 -45 -106 -129 -106c-45 0 -89 18 -118 48z" />
    <glyph glyph-name="uni0400" unicode="&#x400;" horiz-adv-x="564" 
d="M67 0v700h455v-136h-301v-137h260v-136h-260v-155h301v-136h-455zM279 763l-102 161h127l70 -161h-95z" />
    <glyph glyph-name="afii10051" unicode="&#x402;" horiz-adv-x="724" 
d="M683 252v-237c0 -109 -45 -165 -177 -165h-65v133h46c30 0 42 18 42 49v197c0 63 -26 97 -83 97c-38 0 -74 -13 -100 -35v-291h-154v564h-180v136h514v-136h-180v-148c36 26 92 46 149 46c118 0 188 -77 188 -210z" />
    <glyph glyph-name="afii10052" unicode="&#x403;" horiz-adv-x="549" 
d="M66 0v700h476v-136h-322v-564h-154zM432 924l-102 -161h-95l70 161h127z" />
    <glyph glyph-name="afii10053" unicode="&#x404;" horiz-adv-x="612" 
d="M201 418h156v-136h-156c0 -103 38 -158 113 -158c61 0 97 41 109 120l153 -19c-20 -146 -118 -237 -264 -237c-161 0 -265 117 -265 282v160c0 165 104 282 265 282c146 0 244 -91 264 -237l-153 -19c-12 79 -48 120 -109 120c-75 0 -113 -56 -113 -158z" />
    <glyph glyph-name="afii10054" unicode="&#x405;" horiz-adv-x="597" 
d="M560 203c0 -128 -93 -215 -248 -215c-133 0 -241 73 -275 218l149 19c18 -68 64 -101 125 -101c58 0 95 28 95 76c0 45 -28 69 -92 82l-55 11c-134 27 -203 97 -203 209c0 110 80 210 235 210c131 0 227 -75 252 -204l-147 -18c-14 56 -50 86 -105 86
c-53 0 -81 -31 -81 -72c0 -39 30 -66 92 -79l57 -12c137 -27 201 -98 201 -210z" />
    <glyph glyph-name="afii10055" unicode="&#x406;" horiz-adv-x="302" 
d="M228 700v-700h-154v700h154z" />
    <glyph glyph-name="afii10056" unicode="&#x407;" horiz-adv-x="302" 
d="M228 700v-700h-154v700h154zM113 902v-120h-118v120h118zM307 902v-120h-118v120h118z" />
    <glyph glyph-name="afii10057" unicode="&#x408;" horiz-adv-x="554" 
d="M344 244v456h154v-473c0 -149 -94 -239 -241 -239c-126 0 -217 73 -238 216l146 17c10 -67 41 -97 89 -97c52 0 90 35 90 120z" />
    <glyph glyph-name="afii10058" unicode="&#x409;" horiz-adv-x="1001" 
d="M814 213c0 47 -31 77 -102 77h-86v-154h86c71 0 102 30 102 77zM270 564v-409c0 -116 -52 -167 -172 -167h-82v136h45c39 0 55 19 55 61v515h510v-274h99c156 0 243 -82 243 -213s-87 -213 -243 -213h-253v564h-202z" />
    <glyph glyph-name="afii10059" unicode="&#x40a;" horiz-adv-x="948" 
d="M672 0h-253v291h-198v-291h-154v700h154v-273h198v273h154v-274h99c156 0 243 -82 243 -213s-87 -213 -243 -213zM761 213c0 47 -31 77 -102 77h-86v-154h86c71 0 102 30 102 77z" />
    <glyph glyph-name="afii10060" unicode="&#x40b;" horiz-adv-x="724" 
d="M683 0h-154v229c0 63 -26 97 -83 97c-38 0 -74 -13 -100 -35v-291h-154v564h-180v136h514v-136h-180v-148c36 26 92 46 149 46c118 0 188 -77 188 -210v-252z" />
    <glyph glyph-name="afii10061" unicode="&#x40c;" horiz-adv-x="621" 
d="M556 700v-20c0 -136 -34 -228 -139 -309l204 -371h-171l-155 287l-75 -49v-238h-154v700h154v-290l65 43c92 61 117 136 117 227v20h154zM451 924l-102 -161h-95l70 161h127z" />
    <glyph glyph-name="uni040D" unicode="&#x40d;" horiz-adv-x="669" 
d="M202 0l246 417v-417h154v700h-135l-246 -417v417h-154v-700h135zM320 763l-102 161h127l70 -161h-95z" />
    <glyph glyph-name="afii10062" unicode="&#x40e;" horiz-adv-x="568" 
d="M200 179l19 51l-202 470h163l112 -292l101 292h164l-221 -577c-38 -99 -91 -123 -177 -123h-60v136h44c27 0 45 11 57 43zM287 852c36 0 58 24 66 65l101 -17c-19 -94 -81 -138 -167 -138s-148 44 -167 138l101 17c8 -41 30 -65 66 -65z" />
    <glyph glyph-name="afii10145" unicode="&#x40f;" horiz-adv-x="640" 
d="M419 136v564h154v-700h-176v-120h-154v120h-176v700h154v-564h198z" />
    <glyph glyph-name="uni0450" unicode="&#x450;" horiz-adv-x="526" 
d="M487 205h-304v-4c0 -59 34 -94 81 -94c35 0 63 19 74 51l145 -12c-31 -100 -109 -158 -219 -158c-134 0 -225 96 -225 212v99c0 118 93 213 224 213c129 0 224 -94 224 -208v-99zM183 301h160v3c0 52 -31 89 -80 89s-80 -37 -80 -89v-3zM238 564l-102 161h127l70 -161
h-95z" />
    <glyph glyph-name="afii10099" unicode="&#x452;" horiz-adv-x="550" 
d="M356 296c0 64 -25 97 -76 97c-34 0 -65 -22 -80 -56v-337h-144v568h-59v89h59v55h144v-55h120v-89h-120v-118c24 36 69 62 126 62c108 0 174 -75 174 -201v-355c0 -117 -52 -168 -171 -168h-73v119h46c38 0 54 19 54 61v328z" />
    <glyph glyph-name="afii10100" unicode="&#x453;" horiz-adv-x="435" 
d="M201 381v-381h-144v500h361v-119h-217zM349 725l-102 -161h-95l70 161h127z" />
    <glyph glyph-name="afii10101" unicode="&#x454;" horiz-adv-x="513" 
d="M184 303h112v-108h-112c4 -62 38 -89 79 -89c38 0 69 24 77 77l142 -18c-17 -101 -102 -177 -219 -177c-131 0 -224 94 -224 212v99c0 118 93 212 224 212c117 0 202 -76 219 -177l-142 -18c-8 53 -39 77 -77 77c-41 0 -75 -28 -79 -90z" />
    <glyph glyph-name="afii10102" unicode="&#x455;" horiz-adv-x="492" 
d="M312 143c0 24 -13 42 -62 52l-42 9c-108 23 -159 70 -159 156c0 87 69 152 188 152c105 0 181 -52 206 -146l-131 -18c-8 33 -34 54 -68 54c-32 0 -51 -19 -51 -40c0 -23 17 -39 61 -48l43 -9c112 -22 159 -71 159 -157c0 -92 -73 -160 -198 -160
c-114 0 -193 55 -221 158l134 19c14 -45 44 -67 84 -67c35 0 57 19 57 45z" />
    <glyph glyph-name="afii10103" unicode="&#x456;" horiz-adv-x="276" 
d="M66 0v500h144v-500h-144zM66 580v132h144v-132h-144z" />
    <glyph glyph-name="afii10104" unicode="&#x457;" horiz-adv-x="276" 
d="M66 0v500h144v-500h-144zM100 703v-120h-118v120h118zM294 703v-120h-118v120h118z" />
    <glyph glyph-name="afii10105" unicode="&#x458;" horiz-adv-x="294" 
d="M84 580v132h144v-132h-144zM84 -32v532h144v-545c0 -116 -53 -167 -172 -167h-73v119h45c39 0 56 19 56 61z" />
    <glyph glyph-name="afii10106" unicode="&#x459;" horiz-adv-x="797" 
d="M592 0h-229v372h-127v-219c0 -111 -56 -165 -172 -165h-52v118h32c33 0 48 20 48 58v336h415v-168h85c108 0 184 -60 184 -166s-76 -166 -184 -166zM632 166c0 37 -24 50 -63 50h-62v-100h62c39 0 63 13 63 50z" />
    <glyph glyph-name="afii10107" unicode="&#x45a;" horiz-adv-x="765" 
d="M560 0h-229v192h-130v-192h-144v500h144v-180h130v180h144v-168h85c108 0 184 -60 184 -166s-76 -166 -184 -166zM600 166c0 37 -24 50 -63 50h-62v-100h62c39 0 63 13 63 50z" />
    <glyph glyph-name="afii10108" unicode="&#x45b;" horiz-adv-x="550" 
d="M-3 657h59v55h144v-55h120v-89h-120v-118c24 36 69 62 126 62c108 0 174 -75 174 -201v-311h-144v296c0 64 -25 97 -76 97c-34 0 -65 -22 -80 -56v-337h-144v568h-59v89z" />
    <glyph glyph-name="afii10109" unicode="&#x45c;" horiz-adv-x="519" 
d="M466 500v-16c0 -93 -29 -149 -101 -207l155 -277h-154l-106 204l-60 -40v-164h-144v500h144v-187l24 16c69 46 102 88 102 151v20h140zM382 725l-102 -161h-95l70 161h127z" />
    <glyph glyph-name="uni045D" unicode="&#x45d;" horiz-adv-x="542" 
d="M365 500l-170 -267v267h-138v-500h120l170 267v-267h138v500h-120zM256 564l-102 161h127l70 -161h-95z" />
    <glyph glyph-name="afii10110" unicode="&#x45e;" horiz-adv-x="511" 
d="M176 -40l23 70l-192 470h151l104 -286l91 286h151l-195 -582c-34 -102 -83 -129 -195 -129h-45v119h34c39 0 59 11 73 52zM256 655c36 0 58 24 66 65l101 -17c-19 -94 -81 -138 -167 -138s-148 44 -167 138l101 17c8 -41 30 -65 66 -65z" />
    <glyph glyph-name="afii10193" unicode="&#x45f;" horiz-adv-x="537" 
d="M480 500v-500h-140v-110h-144v110h-139v500h144v-372h135v372h144z" />
    <glyph glyph-name="afii10050" unicode="&#x490;" horiz-adv-x="549" 
d="M542 840v-276h-322v-564h-154v700h322v140h154z" />
    <glyph glyph-name="afii10098" unicode="&#x491;" horiz-adv-x="435" 
d="M275 500v108h143v-226h-219v-382h-143v500h219z" />
    <glyph glyph-name="uni2016" unicode="&#x2016;" horiz-adv-x="485" 
d="M97 -130v879h110v-879h-110zM278 -130v879h110v-879h-110z" />
    <glyph glyph-name="uni201F" unicode="&#x201f;" horiz-adv-x="476" 
d="M60 654v141h155v-148h-75c3 -42 24 -65 75 -71v-63c-103 2 -155 65 -155 141zM261 654v141h155v-148h-75c3 -42 24 -65 75 -71v-63c-103 2 -155 65 -155 141z" />
    <glyph glyph-name="uni203E" unicode="&#x203e;" horiz-adv-x="394" 
d="M43 602v91h308v-91h-308z" />
    <glyph glyph-name="zerosuperior" unicode="&#x2070;" 
d="M229 393v151c0 48 -16 64 -40 64s-40 -16 -40 -64v-151c0 -48 16 -64 40 -64s40 16 40 64zM349 548v-159c0 -101 -65 -160 -160 -160s-160 59 -160 160v159c0 101 65 160 160 160s160 -59 160 -160z" />
    <glyph glyph-name="uni2071" unicode="&#x2071;" 
d="M129 237v322h120v-322h-120zM129 602v98h120v-98h-120z" />
    <glyph glyph-name="fivesuperior" unicode="&#x2075;" 
d="M354 394c0 -101 -56 -165 -160 -165c-93 0 -160 61 -160 160l119 5v-5c0 -44 16 -63 41 -63s41 18 41 69c0 52 -17 69 -41 69c-16 0 -30 -8 -38 -21h-103v257h277v-95h-157v-53c10 6 25 9 39 9c79 0 142 -51 142 -167z" />
    <glyph glyph-name="sixsuperior" unicode="&#x2076;" 
d="M27 383c1 31 6 56 22 88l116 229h120l-83 -166c89 -6 149 -71 149 -152c0 -87 -63 -153 -162 -153s-162 67 -162 154zM139 383c0 -36 22 -57 50 -57s50 21 50 57s-22 57 -50 57s-50 -21 -50 -57z" />
    <glyph glyph-name="sevensuperior" unicode="&#x2077;" 
d="M33 605v95h312v-73l-143 -390h-123l135 368h-181z" />
    <glyph glyph-name="eightsuperior" unicode="&#x2078;" 
d="M189 446c-29 0 -50 -22 -50 -61c0 -38 21 -62 50 -62s50 24 50 62c0 39 -21 61 -50 61zM189 617c-24 0 -40 -18 -40 -45c0 -25 16 -44 40 -44s40 19 40 44c0 27 -16 45 -40 45zM189 229c-98 0 -163 65 -163 155c0 48 21 87 58 109c-24 17 -41 47 -41 85
c0 76 58 130 146 130s146 -54 146 -130c0 -38 -17 -68 -41 -85c38 -22 58 -61 58 -109c0 -90 -65 -155 -163 -155z" />
    <glyph glyph-name="ninesuperior" unicode="&#x2079;" 
d="M351 554c-1 -31 -6 -56 -22 -88l-116 -229h-120l83 166c-89 6 -149 71 -149 152c0 87 63 153 162 153s162 -67 162 -154zM239 554c0 36 -22 57 -50 57s-50 -21 -50 -57s22 -57 50 -57s50 21 50 57z" />
    <glyph glyph-name="uni207A" unicode="&#x207a;" 
d="M131 310v109h-107v100h107v109h114v-109h107v-100h-107v-109h-114z" />
    <glyph glyph-name="uni207B" unicode="&#x207b;" 
d="M352 419h-328v100h328v-100z" />
    <glyph glyph-name="uni207C" unicode="&#x207c;" 
d="M352 504h-328v100h328v-100zM352 334h-328v100h328v-100z" />
    <glyph glyph-name="uni207D" unicode="&#x207d;" 
d="M233 513v-89c0 -84 19 -124 70 -147l-33 -105c-117 40 -157 119 -157 241v111c0 122 40 201 157 241l33 -105c-51 -23 -70 -63 -70 -147z" />
    <glyph glyph-name="uni207E" unicode="&#x207e;" 
d="M145 424v89c0 84 -19 124 -70 147l33 105c117 -40 157 -119 157 -241v-111c0 -122 -40 -201 -157 -241l-33 105c51 23 70 63 70 147z" />
    <glyph glyph-name="zeroinferior" unicode="&#x2080;" 
d="M229 30v151c0 48 -16 64 -40 64s-40 -16 -40 -64v-151c0 -48 16 -64 40 -64s40 16 40 64zM349 185v-159c0 -101 -65 -160 -160 -160s-160 59 -160 160v159c0 101 65 160 160 160s160 -59 160 -160z" />
    <glyph glyph-name="fiveinferior" unicode="&#x2085;" 
d="M354 31c0 -101 -56 -165 -160 -165c-93 0 -160 61 -160 160l119 5v-5c0 -44 16 -63 41 -63s41 18 41 69c0 52 -17 69 -41 69c-16 0 -30 -8 -38 -21h-103v257h277v-95h-157v-53c10 6 25 9 39 9c79 0 142 -51 142 -167z" />
    <glyph glyph-name="sixinferior" unicode="&#x2086;" 
d="M27 20c1 31 6 56 22 88l116 229h120l-83 -166c89 -6 149 -71 149 -152c0 -87 -63 -153 -162 -153s-162 67 -162 154zM139 20c0 -36 22 -57 50 -57s50 21 50 57s-22 57 -50 57s-50 -21 -50 -57z" />
    <glyph glyph-name="seveninferior" unicode="&#x2087;" 
d="M33 242v95h312v-73l-143 -390h-123l135 368h-181z" />
    <glyph glyph-name="eightinferior" unicode="&#x2088;" 
d="M189 83c-29 0 -50 -22 -50 -61c0 -38 21 -62 50 -62s50 24 50 62c0 39 -21 61 -50 61zM189 254c-24 0 -40 -18 -40 -45c0 -25 16 -44 40 -44s40 19 40 44c0 27 -16 45 -40 45zM189 -134c-98 0 -163 65 -163 155c0 48 21 87 58 109c-24 17 -41 47 -41 85
c0 76 58 130 146 130s146 -54 146 -130c0 -38 -17 -68 -41 -85c38 -22 58 -61 58 -109c0 -90 -65 -155 -163 -155z" />
    <glyph glyph-name="nineinferior" unicode="&#x2089;" 
d="M351 191c-1 -31 -6 -56 -22 -88l-116 -229h-120l83 166c-89 6 -149 71 -149 152c0 87 63 153 162 153s162 -67 162 -154zM239 191c0 36 -22 57 -50 57s-50 -21 -50 -57s22 -57 50 -57s50 21 50 57z" />
    <glyph glyph-name="uni208A" unicode="&#x208a;" 
d="M131 -53v109h-107v100h107v109h114v-109h107v-100h-107v-109h-114z" />
    <glyph glyph-name="uni208B" unicode="&#x208b;" 
d="M352 56h-328v100h328v-100z" />
    <glyph glyph-name="uni208C" unicode="&#x208c;" 
d="M352 141h-328v100h328v-100zM352 -29h-328v100h328v-100z" />
    <glyph glyph-name="uni208D" unicode="&#x208d;" 
d="M233 150v-89c0 -84 19 -124 70 -147l-33 -105c-117 40 -157 119 -157 241v111c0 122 40 201 157 241l33 -105c-51 -23 -70 -63 -70 -147z" />
    <glyph glyph-name="uni208E" unicode="&#x208e;" 
d="M145 61v89c0 84 -19 124 -70 147l33 105c117 -40 157 -119 157 -241v-111c0 -122 -40 -201 -157 -241l-33 105c51 23 70 63 70 147z" />
    <glyph glyph-name="uni2090" unicode="&#x2090;" 
d="M31 -28v5c0 62 54 107 153 107h48v24c0 29 -22 42 -46 42c-21 0 -40 -14 -49 -37l-100 26c25 60 85 101 157 101c94 0 152 -60 152 -132v-233h-114v27c-18 -22 -53 -35 -87 -35c-64 0 -114 41 -114 105zM178 -44c20 0 44 7 54 21v30h-51c-24 0 -40 -9 -40 -24v-7
c2 -12 15 -20 37 -20z" />
    <glyph glyph-name="uni2091" unicode="&#x2091;" 
d="M351 18h-207c1 -41 20 -55 44 -55c20 0 34 10 40 28l121 -8c-14 -69 -76 -117 -161 -117c-95 0 -162 68 -162 150v69c0 84 67 151 162 151c96 0 163 -67 163 -151v-67zM144 85h88c0 39 -20 54 -44 54s-44 -15 -44 -54z" />
    <glyph glyph-name="uni2092" unicode="&#x2092;" 
d="M189 139c-25 0 -44 -18 -44 -60v-57c0 -41 19 -59 44 -59s44 18 44 59v57c0 42 -19 60 -44 60zM189 -134c-93 0 -162 65 -162 152v66c0 87 69 152 162 152s162 -65 162 -152v-66c0 -87 -69 -152 -162 -152z" />
    <glyph glyph-name="uni2093" unicode="&#x2093;" 
d="M237 -125l-47 97l-47 -97h-125l97 174l-89 168h122l42 -87l42 87h122l-89 -168l97 -174h-125z" />
    <glyph glyph-name="uni20A0" unicode="&#x20a0;" horiz-adv-x="722" 
d="M265 306c30 0 61 10 78 33v151h352v-113h-210v-71h172v-113h-172v-80h210v-113h-352v216c-16 -14 -55 -23 -91 -23c-128 0 -215 96 -215 214v96c0 117 90 209 228 209c113 0 186 -65 218 -154l-135 -22c-16 46 -46 63 -83 63c-50 0 -86 -36 -86 -115v-63
c0 -79 36 -115 86 -115z" />
    <glyph glyph-name="uni20A2" unicode="&#x20a2;" horiz-adv-x="612" 
d="M262 135v259h108v-31c15 25 42 39 70 39c14 0 29 -4 42 -10v-98c-14 6 -31 10 -47 10c-27 0 -52 -11 -65 -30v-135c28 19 45 54 53 105l153 -19c-20 -146 -118 -237 -264 -237c-161 0 -265 117 -265 282v160c0 165 104 282 265 282c146 0 244 -91 264 -237l-153 -19
c-12 79 -48 120 -109 120c-75 0 -113 -56 -113 -160v-132c0 -77 20 -127 61 -149z" />
    <glyph glyph-name="uni20A6" unicode="&#x20a6;" horiz-adv-x="669" 
d="M467 0l-245 417v-417h-154v252h-58v61h58v74h-58v61h58v252h135l245 -417v417h154v-252h57v-61h-57v-74h57v-61h-57v-252h-135z" />
    <glyph glyph-name="uni20A8" unicode="&#x20a8;" horiz-adv-x="1014" 
d="M280 250h-60v-250h-154v700h245c116 0 235 -67 235 -225c0 -105 -52 -169 -121 -201l153 -274h-172zM392 475c0 64 -42 89 -98 89h-74v-178h74c56 0 98 25 98 89zM833 143c0 25 -16 41 -57 50l-39 9c-105 23 -155 72 -155 158s68 152 184 152c103 0 176 -56 201 -146
l-136 -18c-7 33 -28 54 -58 54c-28 0 -44 -19 -44 -39c0 -23 11 -36 58 -47l40 -9c108 -25 153 -73 153 -159c0 -92 -70 -160 -194 -160c-111 0 -187 55 -216 158l140 19c14 -45 38 -67 73 -67c29 0 50 19 50 45z" />
    <glyph glyph-name="uni20A9" unicode="&#x20a9;" horiz-adv-x="947" 
d="M548 700l64 -249h102l61 249h161l-68 -249h73v-71h-92l-15 -55h107v-71h-126l-69 -254h-151l-66 254h-112l-65 -254h-151l-69 254h-126v71h107l-15 55h-92v71h72l-67 249h160l61 -249h102l65 249h149zM473 473l-38 -148h76zM631 380l34 -131l32 131h-66zM250 380l32 -131
l34 131h-66z" />
    <glyph glyph-name="afii57636" unicode="&#x20aa;" horiz-adv-x="901" 
d="M67 0v700h311c165 0 249 -91 249 -267v-175h-146v152c0 118 -35 160 -125 160h-143v-570h-146zM834 700v-700h-311c-165 0 -249 91 -249 267v175h146v-152c0 -118 35 -160 125 -160h143v570h146z" />
    <glyph glyph-name="afii61248" unicode="&#x2105;" horiz-adv-x="1008" 
d="M733 700l-342 -700h-118l342 700h118zM848 267v-99c0 -50 -29 -79 -65 -79s-65 29 -65 79v99c0 50 29 79 65 79s65 -29 65 -79zM966 163v109c0 93 -79 171 -183 171s-183 -78 -183 -171v-109c0 -93 79 -171 183 -171s183 78 183 171zM225 354c32 0 59 24 64 67l118 -11
c-15 -89 -85 -153 -182 -153c-104 0 -183 78 -183 171v109c0 93 79 171 183 171c97 0 167 -64 182 -153l-118 -11c-5 43 -32 67 -64 67c-36 0 -65 -29 -65 -79v-99c0 -50 29 -79 65 -79z" />
    <glyph glyph-name="uni2117" unicode="&#x2117;" horiz-adv-x="754" 
d="M377 -12c-196 0 -332 128 -332 342v40c0 214 136 342 332 342s332 -128 332 -342v-40c0 -214 -136 -342 -332 -342zM377 660c-173 0 -276 -113 -276 -298v-24c0 -185 103 -298 276 -298s276 113 276 298v24c0 185 -103 298 -276 298zM407 278h-61v-140h-104v421h165
c70 0 143 -45 143 -141c0 -95 -73 -140 -143 -140zM346 371h49c24 0 51 18 51 48c0 33 -21 47 -51 47h-49v-95z" />
    <glyph glyph-name="uni2120" unicode="&#x2120;" horiz-adv-x="660" 
d="M280 467c0 -68 -49 -106 -127 -106c-70 0 -125 36 -143 107l93 11c9 -27 26 -40 49 -40c19 0 33 11 33 27c0 15 -13 24 -35 29l-28 6c-61 13 -103 42 -103 101c0 55 43 104 125 104c68 0 119 -36 132 -102l-88 -11c-7 21 -22 34 -43 34s-31 -11 -31 -25
c0 -15 18 -24 39 -29l28 -7c63 -16 99 -44 99 -99zM439 441l-38 79v-154h-94v334h78l84 -168l84 168h78v-334h-94v154l-38 -79h-60z" />
    <glyph glyph-name="onefifth" unicode="&#x2155;" horiz-adv-x="960" 
d="M344 237h-277v97h79v242l-79 -34v106l107 52h91v-366h79v-97zM710 700l-342 -700h-118l342 700h118zM929 157c0 -101 -56 -165 -160 -165c-93 0 -160 61 -160 160l119 5v-5c0 -44 16 -63 41 -63s41 18 41 69c0 52 -17 69 -41 69c-16 0 -30 -8 -38 -21h-103v257h277v-95
h-157v-53c10 6 25 9 39 9c79 0 142 -51 142 -167z" />
    <glyph glyph-name="twofifths" unicode="&#x2156;" horiz-adv-x="960" 
d="M348 566c0 -45 -19 -80 -47 -112l-104 -120h151v-97h-312v75l168 197c19 22 26 39 26 56c0 33 -14 46 -38 46s-39 -15 -39 -48v-23l-117 7v17c0 84 62 144 156 144c92 0 156 -57 156 -142zM710 700l-342 -700h-118l342 700h118zM929 157c0 -101 -56 -165 -160 -165
c-93 0 -160 61 -160 160l119 5v-5c0 -44 16 -63 41 -63s41 18 41 69c0 52 -17 69 -41 69c-16 0 -30 -8 -38 -21h-103v257h277v-95h-157v-53c10 6 25 9 39 9c79 0 142 -51 142 -167z" />
    <glyph glyph-name="threefifths" unicode="&#x2157;" horiz-adv-x="960" 
d="M155 441l-53 59l86 102h-142v98h287v-84l-79 -89c65 -15 97 -68 97 -142c0 -90 -58 -156 -160 -156c-106 0 -160 70 -160 167l118 5v-15c0 -39 19 -60 42 -60c27 0 42 20 42 60c0 44 -16 65 -44 65c-9 0 -21 -2 -34 -10zM710 700l-342 -700h-118l342 700h118zM929 157
c0 -101 -56 -165 -160 -165c-93 0 -160 61 -160 160l119 5v-5c0 -44 16 -63 41 -63s41 18 41 69c0 52 -17 69 -41 69c-16 0 -30 -8 -38 -21h-103v257h277v-95h-157v-53c10 6 25 9 39 9c79 0 142 -51 142 -167z" />
    <glyph glyph-name="fourfifths" unicode="&#x2158;" horiz-adv-x="960" 
d="M128 411h64v111zM358 411v-94h-47v-80h-119v80h-172v79l172 304h119v-289h47zM710 700l-342 -700h-118l342 700h118zM929 157c0 -101 -56 -165 -160 -165c-93 0 -160 61 -160 160l119 5v-5c0 -44 16 -63 41 -63s41 18 41 69c0 52 -17 69 -41 69c-16 0 -30 -8 -38 -21
h-103v257h277v-95h-157v-53c10 6 25 9 39 9c79 0 142 -51 142 -167z" />
    <glyph glyph-name="onesixth" unicode="&#x2159;" horiz-adv-x="960" 
d="M344 237h-277v97h79v242l-79 -34v106l107 52h91v-366h79v-97zM710 700l-342 -700h-118l342 700h118zM600 146c1 31 6 56 22 88l116 229h120l-83 -166c89 -6 149 -71 149 -152c0 -87 -63 -153 -162 -153s-162 67 -162 154zM712 146c0 -36 22 -57 50 -57s50 21 50 57
s-22 57 -50 57s-50 -21 -50 -57z" />
    <glyph glyph-name="fivesixths" unicode="&#x215a;" horiz-adv-x="960" 
d="M354 394c0 -101 -56 -165 -160 -165c-93 0 -160 61 -160 160l119 5v-5c0 -44 16 -63 41 -63s41 18 41 69c0 52 -17 69 -41 69c-16 0 -30 -8 -38 -21h-103v257h277v-95h-157v-53c10 6 25 9 39 9c79 0 142 -51 142 -167zM710 700l-342 -700h-118l342 700h118zM600 146
c1 31 6 56 22 88l116 229h120l-83 -166c89 -6 149 -71 149 -152c0 -87 -63 -153 -162 -153s-162 67 -162 154zM712 146c0 -36 22 -57 50 -57s50 21 50 57s-22 57 -50 57s-50 -21 -50 -57z" />
    <glyph glyph-name="uni215F" unicode="&#x215f;" horiz-adv-x="960" 
d="M344 237h-277v97h79v242l-79 -34v106l107 52h91v-366h79v-97zM710 700l-342 -700h-118l342 700h118z" />
    <glyph glyph-name="uni2219" unicode="&#x2219;" horiz-adv-x="274" 
d="M214 417v-148h-154v148h154z" />
    <glyph glyph-name="uni2318" unicode="&#x2318;" horiz-adv-x="881" 
d="M246 472h32v33c0 40 -17 60 -49 60c-26 0 -45 -18 -45 -45c0 -32 26 -48 62 -48zM603 377v-96h37c103 0 170 -50 170 -143c0 -82 -58 -144 -158 -144c-102 0 -159 63 -159 157v34h-105v-34c0 -94 -57 -157 -159 -157c-100 0 -158 62 -158 144c0 93 67 143 170 143h37v96
h-37c-103 0 -170 50 -170 143c0 82 58 144 158 144c102 0 159 -63 159 -157v-34h105v34c0 94 57 157 159 157c100 0 158 -62 158 -144c0 -93 -67 -143 -170 -143h-37zM603 472h32c36 0 62 16 62 48c0 27 -19 45 -45 45c-32 0 -49 -20 -49 -60v-33zM278 186h-32
c-36 0 -62 -16 -62 -48c0 -27 19 -45 45 -45c32 0 49 20 49 60v33zM493 281v96h-105v-96h105zM635 186h-32v-33c0 -40 17 -60 49 -60c26 0 45 18 45 45c0 32 -26 48 -62 48z" />
    <glyph glyph-name="uogonek" unicode="&#x173;" horiz-adv-x="550" 
d="M350 0v49c-23 -36 -68 -61 -126 -61c-108 0 -174 74 -174 200v312h143v-297c0 -65 26 -97 78 -97c34 0 64 22 79 56v338h143v-500h-31c-60 -35 -82 -73 -82 -100v-5c0 -16 12 -29 30 -29c16 0 34 9 50 26c23 -23 45 -47 68 -69c-32 -37 -79 -57 -131 -57
c-77 0 -131 42 -131 107v8c0 44 32 91 84 119z" />
    <glyph glyph-name="uring" unicode="&#x16f;" horiz-adv-x="550" 
d="M50 189v311h144v-296c0 -64 25 -97 76 -97c34 0 65 22 80 56v337h144v-500h-144v50c-24 -36 -69 -62 -126 -62c-108 0 -174 75 -174 201zM237 643c0 -22 14 -35 33 -35s33 13 33 35s-14 35 -33 35s-33 -13 -33 -35zM158 643c0 68 49 109 112 109s112 -41 112 -109
s-49 -109 -112 -109s-112 41 -112 109z" />
    <glyph glyph-name="utilde" unicode="&#x169;" horiz-adv-x="550" 
d="M50 189v311h144v-296c0 -64 25 -97 76 -97c34 0 65 22 80 56v337h144v-500h-144v50c-24 -36 -69 -62 -126 -62c-108 0 -174 75 -174 201zM249 602c-12 12 -23 20 -35 20c-16 0 -26 -15 -29 -45l-88 8c7 80 51 124 113 124c28 0 56 -9 79 -30c12 -12 23 -20 35 -20
c16 0 26 15 29 45l88 -8c-7 -80 -51 -124 -113 -124c-28 0 -56 9 -79 30z" />
    <glyph glyph-name="wcircumflex" unicode="&#x175;" horiz-adv-x="800" 
d="M243 195l92 305h130l92 -305l88 305h148l-161 -500h-135l-97 322l-97 -322h-135l-161 500h148zM344 725h112l121 -161h-108l-69 70l-69 -70h-108z" />
    <glyph glyph-name="yacute" unicode="&#xfd;" horiz-adv-x="511" 
d="M176 -40l23 70l-192 470h151l104 -286l91 286h151l-195 -582c-34 -102 -83 -129 -195 -129h-45v119h34c39 0 59 11 73 52zM385 725l-102 -161h-95l70 161h127z" />
    <glyph glyph-name="ycircumflex" unicode="&#x177;" horiz-adv-x="511" 
d="M176 -40l23 70l-192 470h151l104 -286l91 286h151l-195 -582c-34 -102 -83 -129 -195 -129h-45v119h34c39 0 59 11 73 52zM214 725h112l121 -161h-108l-69 70l-69 -70h-108z" />
    <glyph glyph-name="ydieresis" unicode="&#xff;" horiz-adv-x="511" 
d="M176 -40l23 70l-192 470h151l104 -286l91 286h151l-195 -582c-34 -102 -83 -129 -195 -129h-45v119h34c39 0 59 11 73 52zM223 703v-120h-118v120h118zM417 703v-120h-118v120h118z" />
    <glyph glyph-name="yen" unicode="&#xa5;" horiz-adv-x="604" 
d="M86 318v70h100l-174 312h167l123 -235l123 235h167l-174 -312h100v-70h-139v-48h139v-70h-139v-200h-154v200h-139v70h139v48h-139z" />
    <glyph glyph-name="zacute" unicode="&#x17a;" horiz-adv-x="490" 
d="M447 500v-98l-219 -283h229v-119h-424v98l218 283h-207v119h403zM378 725l-102 -161h-95l70 161h127z" />
    <glyph glyph-name="zcaron" unicode="&#x17e;" horiz-adv-x="490" 
d="M447 500v-98l-219 -283h229v-119h-424v98l218 283h-207v119h403zM304 564h-112l-121 161h108l69 -70l69 70h108z" />
    <glyph glyph-name="zdotaccent" unicode="&#x17c;" horiz-adv-x="490" 
d="M447 500v-98l-219 -283h229v-119h-424v98l218 283h-207v119h403zM309 704v-123h-122v123h122z" />
    <glyph glyph-name="space" unicode=" " horiz-adv-x="260" 
 />
    <glyph glyph-name="ampersand" unicode="&#x26;" horiz-adv-x="692" 
d="M527 0l-42 48c-48 -38 -112 -60 -193 -60c-145 0 -234 86 -234 196c0 83 41 140 132 209c-61 72 -77 104 -77 159c0 92 69 159 175 159c107 0 173 -66 173 -159c0 -49 -17 -100 -97 -176l101 -117c12 42 17 86 18 124l127 -9c0 -84 -14 -163 -47 -228l127 -146h-163z
M296 104c45 0 80 15 106 40l-133 156c-39 -29 -75 -64 -75 -114c0 -48 42 -82 102 -82zM242 550c0 -24 15 -49 38 -76l7 -8c26 25 47 53 47 84c0 30 -21 48 -46 48c-28 0 -46 -18 -46 -48z" />
    <glyph glyph-name=".null" horiz-adv-x="0" 
 />
    <glyph glyph-name=".null" horiz-adv-x="0" 
 />
    <glyph glyph-name=".null" horiz-adv-x="0" 
 />
    <glyph glyph-name="CR" unicode="&#x9;" horiz-adv-x="237" 
 />
    <glyph glyph-name="CR" unicode="&#xd;" horiz-adv-x="237" 
 />
    <glyph glyph-name="Scommaaccent" unicode="&#x218;" horiz-adv-x="597" 
d="M560 203c0 -128 -93 -215 -248 -215c-133 0 -241 73 -275 218l149 19c18 -68 64 -101 125 -101c58 0 95 28 95 76c0 45 -28 69 -92 82l-55 11c-134 27 -203 97 -203 209c0 110 80 210 235 210c131 0 227 -75 252 -204l-147 -18c-14 56 -50 86 -105 86
c-53 0 -81 -31 -81 -72c0 -39 30 -66 92 -79l57 -12c137 -27 201 -98 201 -210zM310 -210h-96l44 161h128z" />
    <glyph glyph-name="scommaaccent" unicode="&#x219;" horiz-adv-x="492" 
d="M312 143c0 24 -13 42 -62 52l-42 9c-108 23 -159 70 -159 156c0 87 69 152 188 152c105 0 181 -52 206 -146l-131 -18c-8 33 -34 54 -68 54c-32 0 -51 -19 -51 -40c0 -23 17 -39 61 -48l43 -9c112 -22 159 -71 159 -157c0 -92 -73 -160 -198 -160
c-114 0 -193 55 -221 158l134 19c14 -45 44 -67 84 -67c35 0 57 19 57 45zM261 -210h-96l44 161h128z" />
    <glyph glyph-name="uni021A" unicode="&#x21a;" horiz-adv-x="538" 
d="M12 564v136h514v-136h-180v-564h-154v564h-180zM271 -210h-96l44 161h128z" />
    <glyph glyph-name="uni021B" unicode="&#x21b;" horiz-adv-x="373" 
d="M228 381v-201c0 -42 16 -61 54 -61h64v-119h-91c-119 0 -171 51 -171 167v214h-67v119h67v142h144v-142h112v-119h-112zM226 -210h-96l44 161h128z" />
    <glyph glyph-name="dotlessj" unicode="&#x237;" horiz-adv-x="294" 
d="M85 -33v533h143v-545c0 -116 -53 -167 -172 -167h-73v118h46c39 0 56 19 56 61z" />
    <glyph glyph-name="apostrophe" unicode="&#x2bc;" horiz-adv-x="394" 
d="M267 730v-129c0 -69 -47 -125 -140 -127v56c46 6 66 26 68 65h-68v135h140z" />
    <glyph glyph-name="Wgrave" unicode="&#x1e80;" horiz-adv-x="947" 
d="M548 700l117 -451l110 451h161l-190 -700h-151l-122 473l-121 -473h-151l-190 700h160l111 -451l117 451h149zM443 763l-102 161h127l70 -161h-95z" />
    <glyph glyph-name="wgrave" unicode="&#x1e81;" horiz-adv-x="800" 
d="M335 500l-92 -305l-88 305h-148l161 -500h135l97 322l97 -322h135l161 500h-148l-88 -305l-92 305h-130zM370 564l-102 161h127l70 -161h-95z" />
    <glyph glyph-name="Wacute" unicode="&#x1e82;" horiz-adv-x="947" 
d="M548 700l117 -451l110 451h161l-190 -700h-151l-122 473l-121 -473h-151l-190 700h160l111 -451l117 451h149zM606 924l-102 -161h-95l70 161h127z" />
    <glyph glyph-name="wacute" unicode="&#x1e83;" horiz-adv-x="800" 
d="M335 500l-92 -305l-88 305h-148l161 -500h135l97 322l97 -322h135l161 500h-148l-88 -305l-92 305h-130zM532 725l-102 -161h-95l70 161h127z" />
    <glyph glyph-name="Wdieresis" unicode="&#x1e84;" horiz-adv-x="947" 
d="M548 700l117 -451l110 451h161l-190 -700h-151l-122 473l-121 -473h-151l-190 700h160l111 -451l117 451h149zM435 902v-120h-118v120h118zM629 902v-120h-118v120h118z" />
    <glyph glyph-name="wdieresis" unicode="&#x1e85;" horiz-adv-x="800" 
d="M335 500l-92 -305l-88 305h-148l161 -500h135l97 322l97 -322h135l161 500h-148l-88 -305l-92 305h-130zM362 703v-120h-118v120h118zM556 703v-120h-118v120h118z" />
    <glyph glyph-name="Ygrave" unicode="&#x1ef2;" horiz-adv-x="604" 
d="M225 0v318l-213 382h167l123 -235l123 235h167l-213 -382v-318h-154zM290 763l-102 161h127l70 -161h-95z" />
    <glyph glyph-name="ygrave" unicode="&#x1ef3;" horiz-adv-x="511" 
d="M176 -40l23 70l-192 470h151l104 -286l91 286h151l-195 -582c-34 -102 -83 -129 -195 -129h-45v119h34c39 0 59 11 73 52zM237 564l-102 161h127l70 -161h-95z" />
    <glyph glyph-name="uni2215" unicode="&#x2215;" horiz-adv-x="174" 
d="M317 700l-342 -700h-118l342 700h118z" />
    <glyph glyph-name="fi" horiz-adv-x="625" 
d="M415 0v381h-173v-381h-144v381h-67v119h67v25c0 143 54 187 205 187h52v-119h-51c-48 0 -62 -19 -62 -71v-22h317v-500h-144zM415 580v132h144v-132h-144z" />
    <glyph glyph-name="fl" horiz-adv-x="666" 
d="M559 712v-532c0 -42 16 -61 55 -61h32v-119h-59c-119 0 -172 50 -172 167v409c-25 11 -60 17 -92 17c-63 0 -81 -19 -81 -73v-20h113v-119h-113v-381h-144v381h-67v119h67v25c0 133 61 187 189 187c44 0 95 -10 128 -25v25h144z" />
    <glyph glyph-name="commaaccent" horiz-adv-x="394" 
d="M207 -210h-96l44 161h128z" />
    <glyph glyph-name="exclam" unicode="!" horiz-adv-x="343" 
d="M119 225l-22 368v107h149v-107l-22 -368h-105zM101 0v139h141v-139h-141z" />
    <glyph glyph-name="quotedbl" unicode="&#x22;" horiz-adv-x="471" 
d="M88 476l-17 224h138l-17 -224h-104zM279 476l-17 224h138l-17 -224h-104z" />
    <glyph glyph-name="uni2010" unicode="&#x2010;" horiz-adv-x="429" 
d="M50 265v118h329v-118h-329z" />
    <glyph glyph-name="figuredash" unicode="&#x2012;" horiz-adv-x="600" 
d="M550 270h-500v112h500v-112z" />
    <glyph glyph-name="numbersign" unicode="#" horiz-adv-x="714" 
d="M84 0l35 163h-85v115h110l31 144h-107v115h132l35 163h145l-35 -163h105l35 163h145l-35 -163h85v-115h-110l-31 -144h107v-115h-132l-35 -163h-145l35 163h-105l-35 -163h-145zM320 422l-31 -144h105l31 144h-105z" />
    <glyph glyph-name="dollar" unicode="$" horiz-adv-x="597" 
d="M243 -87v82c-101 21 -178 92 -206 211l149 19c18 -68 64 -101 125 -101c58 0 95 28 95 76c0 45 -28 69 -92 82l-55 11c-134 27 -203 97 -203 209c0 94 59 181 174 204v81h128v-83c96 -21 164 -90 185 -196l-147 -18c-14 56 -50 86 -105 86c-53 0 -81 -31 -81 -72
c0 -39 30 -66 92 -79l57 -12c137 -27 201 -98 201 -210c0 -111 -70 -191 -189 -210v-80h-128z" />
    <glyph glyph-name="percent" unicode="%" horiz-adv-x="874" 
d="M362 560v-79c0 -82 -54 -152 -153 -152s-153 70 -153 152v79c0 82 54 152 153 152s153 -70 153 -152zM249 485v71c0 39 -15 58 -40 58s-40 -19 -40 -58v-71c0 -39 15 -58 40 -58s40 19 40 58zM641 700l-292 -700h-116l292 700h116zM512 140v79c0 82 54 152 153 152
s153 -70 153 -152v-79c0 -82 -54 -152 -153 -152s-153 70 -153 152zM625 215v-71c0 -39 15 -58 40 -58s40 19 40 58v71c0 39 -15 58 -40 58s-40 -19 -40 -58z" />
    <glyph glyph-name="zero.tnum" horiz-adv-x="550" 
d="M359 242v216c0 98 -40 127 -84 127s-84 -29 -84 -127v-216c0 -98 40 -127 84 -127s84 29 84 127zM504 470v-240c0 -153 -93 -242 -229 -242s-229 89 -229 242v240c0 153 93 242 229 242s229 -89 229 -242z" />
    <glyph glyph-name="one.tnum" horiz-adv-x="469" 
d="M464 0h-405v121h131v424l-131 -52v134l159 73h117v-579h129v-121z" />
    <glyph glyph-name="two.tnum" horiz-adv-x="539" 
d="M493 499c0 -71 -22 -114 -66 -165l-183 -213h249v-121h-446v97l260 304c33 38 42 65 42 97c0 62 -32 93 -79 93s-78 -31 -78 -93v-28l-145 8v21c0 123 85 213 223 213c137 0 223 -90 223 -213z" />
    <glyph glyph-name="three.tnum" horiz-adv-x="532" 
d="M263 342c-18 0 -33 -5 -48 -13l-69 75l153 175h-239v121h408v-111l-134 -153c107 -12 161 -94 161 -211c0 -135 -77 -237 -229 -237s-229 100 -229 235v4l144 8v-10c0 -79 33 -116 85 -116s85 37 85 116c0 80 -32 117 -88 117z" />
    <glyph glyph-name="four.tnum" horiz-adv-x="532" 
d="M162 254h130v225zM509 254v-120h-73v-134h-144v134h-269v110l260 456h153v-446h73z" />
    <glyph glyph-name="five.tnum" horiz-adv-x="542" 
d="M45 226l144 8v-5c0 -79 31 -121 85 -121c55 0 85 39 85 127c0 93 -34 126 -86 126c-28 0 -51 -14 -64 -34h-134v373h391v-119h-247v-127c20 18 50 28 84 28c111 0 200 -78 200 -248c0 -150 -78 -246 -229 -246c-153 0 -229 99 -229 238z" />
    <glyph glyph-name="six.tnum" horiz-adv-x="528" 
d="M32 215c0 42 11 80 28 114l184 371h148l-128 -260c141 0 238 -98 238 -226c0 -126 -94 -226 -235 -226s-235 101 -235 227zM171 215c0 -66 38 -109 96 -109s96 43 96 109s-38 109 -96 109s-96 -43 -96 -109z" />
    <glyph glyph-name="seven.tnum" horiz-adv-x="517" 
d="M37 582v118h444v-99l-220 -601h-152l214 582h-286z" />
    <glyph glyph-name="eight.tnum" horiz-adv-x="542" 
d="M271 712c124 0 209 -82 209 -191c0 -59 -28 -107 -68 -135c57 -32 93 -95 93 -171c0 -129 -93 -227 -234 -227s-234 99 -234 227c0 77 36 140 93 171c-40 29 -68 76 -68 135c0 109 85 191 209 191zM271 438c44 0 75 32 75 78s-31 79 -75 79s-75 -33 -75 -79
s31 -78 75 -78zM272 106c57 0 96 44 96 111s-39 111 -96 111s-96 -44 -96 -111s39 -111 96 -111z" />
    <glyph glyph-name="nine.tnum" horiz-adv-x="528" 
d="M496 485c0 -42 -11 -80 -28 -114l-184 -371h-148l128 260c-141 0 -238 98 -238 226c0 126 94 226 235 226s235 -101 235 -227zM357 485c0 66 -38 109 -96 109s-96 -43 -96 -109s38 -109 96 -109s96 43 96 109z" />
    <glyph glyph-name="thinspace" unicode="&#x2009;" horiz-adv-x="200" 
 />
    <glyph glyph-name="parenleft.case" horiz-adv-x="346" 
d="M313 23l-40 -126c-123 41 -199 137 -199 272v362c0 135 76 232 199 273l40 -127c-54 -23 -95 -77 -95 -165v-324c0 -88 41 -141 95 -165z" />
    <glyph glyph-name="parenright.case" horiz-adv-x="346" 
d="M73 -103l-40 126c54 24 95 77 95 165v324c0 88 -41 142 -95 165l40 127c123 -41 199 -138 199 -273v-362c0 -135 -76 -231 -199 -272z" />
    <glyph glyph-name="hyphen.case" horiz-adv-x="429" 
d="M50 289v118h329v-118h-329z" />
    <glyph glyph-name="at.case" horiz-adv-x="756" 
d="M275 303v52c0 113 52 206 182 206c52 0 99 -25 122 -61v8c0 120 -93 187 -201 187s-201 -68 -201 -190v-312c0 -118 93 -189 201 -189c42 0 81 7 112 26l52 -90c-52 -29 -107 -41 -164 -41c-165 0 -312 119 -312 279v342c0 164 147 280 312 280s312 -116 312 -277v-206
c0 -136 -71 -223 -208 -223s-207 89 -207 209zM579 320v79c-16 30 -50 50 -87 50c-59 0 -93 -40 -93 -113v-17c0 -76 26 -113 88 -113c55 0 92 36 92 114z" />
    <glyph glyph-name="bracketleft.case" horiz-adv-x="352" 
d="M73 -88v876h246v-118h-101v-640h101v-118h-246z" />
    <glyph glyph-name="bracketright.case" horiz-adv-x="352" 
d="M279 788v-876h-246v118h102v640h-102v118h246z" />
    <glyph glyph-name="braceleft.case" horiz-adv-x="355" 
d="M40 293v114h23c36 0 53 20 53 51v178c0 113 57 152 191 152h29v-114h-33c-30 0 -43 -16 -43 -52v-173c0 -39 -20 -84 -68 -99c48 -15 68 -60 68 -99v-173c0 -36 13 -52 43 -52h33v-114h-29c-134 0 -191 39 -191 152v178c0 31 -17 51 -53 51h-23z" />
    <glyph glyph-name="braceright.case" horiz-adv-x="355" 
d="M315 407v-114h-23c-36 0 -53 -20 -53 -51v-178c0 -113 -57 -152 -191 -152h-29v114h33c30 0 43 16 43 52v173c0 39 20 84 68 99c-48 15 -68 60 -68 99v173c0 36 -13 52 -43 52h-33v114h29c134 0 191 -39 191 -152v-178c0 -31 17 -51 53 -51h23z" />
    <glyph glyph-name="exclamdown.case" horiz-adv-x="343" 
d="M97 107l22 368h105l22 -368v-107h-149v107zM101 561v139h141v-139h-141z" />
    <glyph glyph-name="guillemotleft.case" horiz-adv-x="535" 
d="M268 423l-123 -74l123 -74v-118l-238 157v70l238 157v-118zM505 423l-123 -74l123 -74v-118l-238 157v70l238 157v-118z" />
    <glyph glyph-name="periodcentered.case" horiz-adv-x="274" 
d="M214 441v-148h-154v148h154z" />
    <glyph glyph-name="guillemotright.case" horiz-adv-x="535" 
d="M390 349l-123 74v118l238 -157v-70l-238 -157v118zM153 349l-123 74v118l238 -157v-70l-238 -157v118z" />
    <glyph glyph-name="questiondown.case" horiz-adv-x="537" 
d="M267 -11c-130 0 -210 88 -210 201c0 82 28 136 90 185c42 33 55 57 55 102v25h140v-34c0 -80 -16 -117 -89 -174c-42 -32 -56 -57 -56 -96c0 -49 25 -82 73 -82c47 0 77 30 82 88l138 -9c-8 -122 -90 -206 -223 -206zM342 701v-136h-140v136h140z" />
    <glyph glyph-name="endash.case" horiz-adv-x="500" 
d="M500 294h-500v112h500v-112z" />
    <glyph glyph-name="emdash.case" horiz-adv-x="1000" 
d="M1000 295h-1000v112h1000v-112z" />
    <glyph glyph-name="bullet.case" 
d="M47 350c0 78 64 142 142 142s142 -64 142 -142s-64 -142 -142 -142s-142 64 -142 142z" />
    <glyph glyph-name="guilsinglleft.case" horiz-adv-x="298" 
d="M268 423l-123 -74l123 -74v-118l-238 157v70l238 157v-118z" />
    <glyph glyph-name="guilsinglright.case" horiz-adv-x="298" 
d="M153 349l-123 74v118l238 -157v-70l-238 -157v118z" />
    <glyph glyph-name="zero.numerator" 
d="M229 393v151c0 48 -16 64 -40 64s-40 -16 -40 -64v-151c0 -48 16 -64 40 -64s40 16 40 64zM349 548v-159c0 -101 -65 -160 -160 -160s-160 59 -160 160v159c0 101 65 160 160 160s160 -59 160 -160z" />
    <glyph glyph-name="one.numerator" 
d="M344 237h-277v97h79v242l-79 -34v106l107 52h91v-366h79v-97z" />
    <glyph glyph-name="two.numerator" 
d="M348 566c0 -45 -19 -80 -47 -112l-104 -120h151v-97h-312v75l168 197c19 22 26 39 26 56c0 33 -14 46 -38 46s-39 -15 -39 -48v-23l-117 7v17c0 84 62 144 156 144c92 0 156 -57 156 -142z" />
    <glyph glyph-name="three.numerator" 
d="M155 441l-53 59l86 102h-142v98h287v-84l-79 -89c65 -15 97 -68 97 -142c0 -90 -58 -156 -160 -156c-106 0 -160 70 -160 167l118 5v-15c0 -39 19 -60 42 -60c27 0 42 20 42 60c0 44 -16 65 -44 65c-9 0 -21 -2 -34 -10z" />
    <glyph glyph-name="four.numerator" 
d="M128 411h64v111zM358 411v-94h-47v-80h-119v80h-172v79l172 304h119v-289h47z" />
    <glyph glyph-name="five.numerator" 
d="M354 394c0 -101 -56 -165 -160 -165c-93 0 -160 61 -160 160l119 5v-5c0 -44 16 -63 41 -63s41 18 41 69c0 52 -17 69 -41 69c-16 0 -30 -8 -38 -21h-103v257h277v-95h-157v-53c10 6 25 9 39 9c79 0 142 -51 142 -167z" />
    <glyph glyph-name="six.numerator" 
d="M27 383c1 31 6 56 22 88l116 229h120l-83 -166c89 -6 149 -71 149 -152c0 -87 -63 -153 -162 -153s-162 67 -162 154zM139 383c0 -36 22 -57 50 -57s50 21 50 57s-22 57 -50 57s-50 -21 -50 -57z" />
    <glyph glyph-name="seven.numerator" 
d="M33 605v95h312v-73l-143 -390h-123l135 368h-181z" />
    <glyph glyph-name="eight.numerator" 
d="M189 446c-29 0 -50 -22 -50 -61c0 -38 21 -62 50 -62s50 24 50 62c0 39 -21 61 -50 61zM189 617c-24 0 -40 -18 -40 -45c0 -25 16 -44 40 -44s40 19 40 44c0 27 -16 45 -40 45zM189 229c-98 0 -163 65 -163 155c0 48 21 87 58 109c-24 17 -41 47 -41 85
c0 76 58 130 146 130s146 -54 146 -130c0 -38 -17 -68 -41 -85c38 -22 58 -61 58 -109c0 -90 -65 -155 -163 -155z" />
    <glyph glyph-name="nine.numerator" 
d="M351 554c-1 -31 -6 -56 -22 -88l-116 -229h-120l83 166c-89 6 -149 71 -149 152c0 87 63 153 162 153s162 -67 162 -154zM239 554c0 36 -22 57 -50 57s-50 -21 -50 -57s22 -57 50 -57s50 21 50 57z" />
    <glyph glyph-name="zero.denominator" 
d="M229 156v151c0 48 -16 64 -40 64s-40 -16 -40 -64v-151c0 -48 16 -64 40 -64s40 16 40 64zM349 311v-159c0 -101 -65 -160 -160 -160s-160 59 -160 160v159c0 101 65 160 160 160s160 -59 160 -160z" />
    <glyph glyph-name="one.denominator" 
d="M344 0h-277v97h79v242l-79 -34v106l107 52h91v-366h79v-97z" />
    <glyph glyph-name="two.denominator" 
d="M348 329c0 -45 -19 -80 -47 -112l-104 -120h151v-97h-312v75l168 197c19 22 26 39 26 56c0 33 -14 46 -38 46s-39 -15 -39 -48v-23l-117 7v17c0 84 62 144 156 144c92 0 156 -57 156 -142z" />
    <glyph glyph-name="three.denominator" 
d="M155 204l-53 59l86 102h-142v98h287v-84l-79 -89c65 -15 97 -68 97 -142c0 -90 -58 -156 -160 -156c-106 0 -160 70 -160 167l118 5v-15c0 -39 19 -60 42 -60c27 0 42 20 42 60c0 44 -16 65 -44 65c-9 0 -21 -2 -34 -10z" />
    <glyph glyph-name="four.denominator" 
d="M128 174h64v111zM358 174v-94h-47v-80h-119v80h-172v79l172 304h119v-289h47z" />
    <glyph glyph-name="five.denominator" 
d="M354 157c0 -101 -56 -165 -160 -165c-93 0 -160 61 -160 160l119 5v-5c0 -44 16 -63 41 -63s41 18 41 69c0 52 -17 69 -41 69c-16 0 -30 -8 -38 -21h-103v257h277v-95h-157v-53c10 6 25 9 39 9c79 0 142 -51 142 -167z" />
    <glyph glyph-name="six.denominator" 
d="M27 146c1 31 6 56 22 88l116 229h120l-83 -166c89 -6 149 -71 149 -152c0 -87 -63 -153 -162 -153s-162 67 -162 154zM139 146c0 -36 22 -57 50 -57s50 21 50 57s-22 57 -50 57s-50 -21 -50 -57z" />
    <glyph glyph-name="seven.denominator" 
d="M33 368v95h312v-73l-143 -390h-123l135 368h-181z" />
    <glyph glyph-name="eight.denominator" 
d="M189 209c-29 0 -50 -22 -50 -61c0 -38 21 -62 50 -62s50 24 50 62c0 39 -21 61 -50 61zM189 380c-24 0 -40 -18 -40 -45c0 -25 16 -44 40 -44s40 19 40 44c0 27 -16 45 -40 45zM189 -8c-98 0 -163 65 -163 155c0 48 21 87 58 109c-24 17 -41 47 -41 85
c0 76 58 130 146 130s146 -54 146 -130c0 -38 -17 -68 -41 -85c38 -22 58 -61 58 -109c0 -90 -65 -155 -163 -155z" />
    <glyph glyph-name="nine.denominator" 
d="M351 317c-1 -31 -6 -56 -22 -88l-116 -229h-120l83 166c-89 6 -149 71 -149 152c0 87 63 153 162 153s162 -67 162 -154zM239 317c0 36 -22 57 -50 57s-50 -21 -50 -57s22 -57 50 -57s50 21 50 57z" />
    <glyph glyph-name="uni03A9" unicode="&#x3a9;" horiz-adv-x="644" 
d="M322 576c-67 0 -110 -48 -110 -145v-148c0 -77 22 -121 78 -151v-132h-227v136h69c-47 30 -74 71 -74 139v169c0 161 106 268 264 268s264 -107 264 -268v-169c0 -68 -27 -109 -74 -139h69v-136h-227v132c56 30 78 74 78 151v148c0 97 -43 145 -110 145z" />
    <glyph glyph-name="H18533" unicode="&#x25cf;" horiz-adv-x="1000" 
d="M162 326c0 186 152 338 338 338s338 -152 338 -338s-152 -338 -338 -338s-338 152 -338 338z" />
    <glyph glyph-name="V" unicode="V" horiz-adv-x="614" 
d="M227 0l-220 700h162l138 -474l138 474h162l-220 -700h-160z" />
    <glyph glyph-name="uni2094" unicode="&#x2094;" 
d="M26 84h207c-1 41 -20 55 -44 55c-20 0 -34 -10 -40 -28l-121 8c14 69 76 117 161 117c95 0 162 -68 162 -150v-69c0 -84 -67 -151 -162 -151c-96 0 -163 67 -163 151v67zM233 17h-88c0 -39 20 -54 44 -54s44 15 44 54z" />
    <glyph glyph-name="IJ" unicode="&#x132;" horiz-adv-x="856" 
d="M228 700v-700h-154v700h154zM646 244v456h154v-473c0 -149 -94 -239 -241 -239c-126 0 -217 73 -238 216l146 17c10 -67 41 -97 89 -97c52 0 90 35 90 120z" />
    <glyph glyph-name="ij" unicode="&#x133;" horiz-adv-x="570" 
d="M66 0v500h144v-500h-144zM66 580v132h144v-132h-144zM360 580v132h144v-132h-144zM360 -32v532h144v-545c0 -116 -53 -167 -172 -167h-73v119h45c39 0 56 19 56 61z" />
    </font>
</defs>
</svg>
