<?xml version="1.0" encoding="utf-8"?>
<!-- Generator: Adobe Illustrator 19.2.1, SVG Export Plug-In . SVG Version: 6.00 Build 0)  -->
<svg version="1.1" id="Layer_1" xmlns="http://www.w3.org/2000/svg" xmlns:xlink="http://www.w3.org/1999/xlink" x="0px" y="0px"
	 viewBox="0 0 114 91" style="enable-background:new 0 0 114 91;" xml:space="preserve">
<style type="text/css">
	.st0{fill:#FFFFFF;}
</style>
<g>
	<g>
		<path class="st0" d="M57,80.8c0,2-1.2,3.8-3,4.7c-0.7,0.3-1.4,0.5-2.2,0.5c-1.2,0-2.3-0.4-3.3-1.2l-28-23.3H5.6
			c-2.8,0-5.1-2.3-5.1-5.1V35.8c0-2.8,2.3-5.1,5.1-5.1h14.9l28-23.3c1.5-1.3,3.7-1.5,5.5-0.7c1.8,0.8,2.9,2.7,2.9,4.7V80.8z
			 M76.8,72.7c-0.1,0-0.2,0-0.4,0c-1.4,0-2.7-0.5-3.6-1.5l-0.7-0.7c-1.8-1.8-2-4.7-0.5-6.7c3.8-5.2,5.9-11.3,5.9-17.8
			c0-6.9-2.3-13.5-6.7-18.8c-1.7-2-1.5-5,0.3-6.9l0.7-0.7c1-1,2.4-1.6,3.9-1.5c1.4,0.1,2.8,0.8,3.7,1.9c6,7.4,9.2,16.4,9.2,26
			c0,9-2.8,17.5-8.2,24.6C79.6,71.9,78.2,72.6,76.8,72.7L76.8,72.7z M98,88.6c-0.9,1.1-2.3,1.8-3.7,1.8c-0.1,0-0.1,0-0.2,0
			c-1.4,0-2.7-0.5-3.6-1.5l-0.7-0.7c-1.9-1.9-2-4.9-0.3-6.9c8.3-9.9,12.8-22.4,12.8-35.3c0-13.4-4.9-26.3-13.7-36.3
			c-1.8-2-1.7-5.1,0.2-7L89.4,2c1-1,2.3-1.6,3.8-1.5c1.4,0,2.7,0.7,3.7,1.7c10.7,12.1,16.6,27.7,16.6,43.8
			C113.5,61.6,108,76.7,98,88.6L98,88.6z M98,88.6"/>
	</g>
</g>
</svg>
