<?xml version="1.0" encoding="utf-8"?>
<!-- Generator: Adobe Illustrator 19.2.1, SVG Export Plug-In . SVG Version: 6.00 Build 0)  -->
<svg version="1.1" id="Layer_1" xmlns="http://www.w3.org/2000/svg" xmlns:xlink="http://www.w3.org/1999/xlink" x="0px" y="0px"
	 viewBox="0 0 80 80" style="enable-background:new 0 0 80 80;" xml:space="preserve">
<style type="text/css">
	.st0{fill:#FFFFFF;}
</style>
<path class="st0" d="M0,0v80h42.4V53.3h-8.6c-0.7,0-1.3-0.6-1.3-1.3V41.1c0-0.7,0.6-1.3,1.3-1.3h8.6v-7.5c0-9.9,6.2-16.2,15.8-16.2
	h8.5c0.7,0,1.3,0.6,1.3,1.3v10.1c0,0.7-0.6,1.3-1.3,1.3H61c-4,0-4.7,1.5-4.7,4.6v6.3h10.1c0.4,0,0.7,0.1,1,0.4
	c0.2,0.3,0.4,0.6,0.4,1v10.8c0,0.7-0.6,1.3-1.3,1.3H56.3V80H80V0H0z"/>
</svg>
