<?xml version="1.0" encoding="utf-8"?>
<!-- Generator: Adobe Illustrator 19.2.1, SVG Export Plug-In . SVG Version: 6.00 Build 0)  -->
<svg version="1.1" id="Layer_1" xmlns="http://www.w3.org/2000/svg" xmlns:xlink="http://www.w3.org/1999/xlink" x="0px" y="0px"
	 viewBox="0 0 80 80" style="enable-background:new 0 0 80 80;" xml:space="preserve">
<style type="text/css">
	.st0{fill:#FFFFFF;}
</style>
<g>
	<path class="st0" d="M43.3,35.9L43.3,35.9C43.3,35.9,43.3,35.9,43.3,35.9L43.3,35.9z"/>
	<path class="st0" d="M0,0v80h80V0H0z M24.9,66.5H13V30.8h11.9V66.5z M18.9,25.9L18.9,25.9c-4.1,0-6.6-2.7-6.6-6.2s2.7-6.2,6.7-6.2
		c4.1,0,6.6,2.7,6.6,6.2C25.7,23.1,23.1,25.9,18.9,25.9z M67.7,66.5H55.8V47.4c0-4.8-1.7-8.1-6-8.1c-3.3,0-5.2,2.2-6.1,4.3
		c-0.3,0.8-0.4,1.8-0.4,2.9v19.9H31.4c0,0,0.2-32.4,0-35.7h11.9v5.1c1.6-2.4,4.4-5.9,10.7-5.9c7.8,0,13.7,5.1,13.7,16.1V66.5z"/>
</g>
</svg>
