<?xml version="1.0" encoding="utf-8"?>
<!-- Generator: Adobe Illustrator 19.2.1, SVG Export Plug-In . SVG Version: 6.00 Build 0)  -->
<svg version="1.1" id="Layer_1" xmlns="http://www.w3.org/2000/svg" xmlns:xlink="http://www.w3.org/1999/xlink" x="0px" y="0px"
	 viewBox="0 0 80 80" style="enable-background:new 0 0 80 80;" xml:space="preserve">
<style type="text/css">
	.st0{fill:#FFFFFF;}
</style>
<g>
	<path class="st0" d="M0,0v80h80V0H0z M62,28.7c0,0.5,0,1,0,1.5c0,15-11.4,32.3-32.3,32.3c-6.4,0-12.4-1.9-17.4-5.1
		c0.9,0.1,1.8,0.2,2.7,0.2c5.3,0,10.2-1.8,14.1-4.9c-5-0.1-9.2-3.4-10.6-7.9c0.7,0.1,1.4,0.2,2.1,0.2c1,0,2-0.1,3-0.4
		c-5.2-1-9.1-5.6-9.1-11.1v-0.1c1.5,0.9,3.3,1.4,5.1,1.4c-3-2-5.1-5.5-5.1-9.5c0-2.1,0.6-4,1.5-5.7c5.6,6.9,14,11.4,23.4,11.9
		c-0.2-0.8-0.3-1.7-0.3-2.6c0-6.3,5.1-11.4,11.4-11.4c3.3,0,6.2,1.4,8.3,3.6c2.6-0.5,5-1.5,7.2-2.8c-0.8,2.7-2.6,4.9-5,6.3
		c2.3-0.3,4.5-0.9,6.5-1.8C66.2,25.1,64.2,27.1,62,28.7L62,28.7z"/>
</g>
</svg>
