<?xml version="1.0" encoding="utf-8"?>
<!-- Generator: Adobe Illustrator 19.2.1, SVG Export Plug-In . SVG Version: 6.00 Build 0)  -->
<svg version="1.1" id="Layer_1" xmlns="http://www.w3.org/2000/svg" xmlns:xlink="http://www.w3.org/1999/xlink" x="0px" y="0px"
	 viewBox="0 0 38 42" style="enable-background:new 0 0 38 42;" xml:space="preserve">
<style type="text/css">
	.st0{fill:#B5B5B5;}
</style>
<g>
	<g>
		<path class="st0" d="M19.1,21.3c5.4,0,9.9-4.7,9.9-10.5S27.5,0.3,19.1,0.3S9.2,5,9.2,10.8C9.3,16.6,13.7,21.3,19.1,21.3z
			 M0.5,36.1C0.5,35.7,0.5,36,0.5,36.1L0.5,36.1z M37.7,35.7c-0.2-10.1-1.7-13-13.2-14.8l-5.4,8l-5.4-8c-11.4,1.8-13,4.6-13.2,14.5
			c0,0.8,0,0.8,0,0.8c0,0.2,0,0.5,0,1.1c0,0,2.7,4.8,18.6,4.8s18.6-4.8,18.6-4.8c0-0.4,0-0.6,0-0.8C37.7,36.4,37.7,36.3,37.7,35.7z"
			/>
	</g>
</g>
</svg>
