<?xml version="1.0" encoding="utf-8"?>
<!-- Generator: Adobe Illustrator 19.2.1, SVG Export Plug-In . SVG Version: 6.00 Build 0)  -->
<svg version="1.1" id="Layer_1" xmlns="http://www.w3.org/2000/svg" xmlns:xlink="http://www.w3.org/1999/xlink" x="0px" y="0px"
	 viewBox="0 0 186 43" style="enable-background:new 0 0 186 43;" xml:space="preserve">
<style type="text/css">
	.st0{fill:#BC7205;}
	.st1{fill:#FFB960;}
	.st2{fill:#FFE25C;}
	.st3{fill:#583D00;}
	.st4{fill:#AC8621;}
	.st5{fill:#987400;}
	.st6{fill:#1F144C;}
</style>
<path class="st0" d="M25.5,12.9L23,16.2c7.1,6.9,5.2,17.4-1.9,19.7c0,0,4.5-0.6,7.7-3.7C32.8,28.3,35.4,20.9,25.5,12.9z"/>
<path class="st1" d="M25.5,12.9c0,0,13.4,4.9,14.5,18.3c0.4,4.7-3,9.9-7.9,11.3c-5,1.4-10.7-0.1-12.8-2.5
	c-5.5-6.3,12.5-1.2,12.9-16.2C32.2,18.2,25.5,12.9,25.5,12.9z"/>
<path class="st2" d="M18.5,17.4c-1.3,2.3-4.6,7.7-10.6,13.8c1.6,2.3,4.3,3.8,7.4,3.8c5,0,9.1-4.1,9.1-9.1
	C24.3,22,21.9,18.7,18.5,17.4z"/>
<path class="st3" d="M25.3,12.7c1.4,0.9,2.7,2.5,4,4.1l-3.7,2.7c-0.7-1.2-1.4-2.2-2.8-3.2L25.3,12.7z"/>
<path class="st4" d="M10.4,29c1,1.1,2.5,1.7,3.6,2l-0.4,3.3c0,0-2.7-0.1-5.1-3.5L10.4,29z"/>
<path class="st4" d="M18.9,17.7c0,0,5.1,2.3,4.9,8.3c-0.2,7,0,0,0,0h-3.5c0.2-2-1-4.4-3.1-5.5L18.9,17.7z"/>
<path class="st3" d="M19,21.6l1.7-2.4c0.4,0.3,1.7,1.6,1.9,2.6c0.3,1.3,0,0,0,0l-2.5,1.8C20.2,23.6,19.6,22.3,19,21.6z"/>
<path class="st5" d="M22.6,21.5c0.1,0,1.2,2.5,0.9,4.5h-3.2c-0.1,0,0-1.1-0.5-2.6L22.6,21.5z"/>
<path d="M17,20.2c-0.8,1.5-2.7,4.5-6.7,8.7c1,1.4,2.7,2.2,4.5,2.2c3.1,0,5.7-2.5,5.7-5.7C20.5,23.1,19,21.1,17,20.2z"/>
<path d="M18.9,16.7c-0.2,0.3-0.3,0.6-0.5,0.9c3.1,1.2,5.2,4.6,5.2,8.2c0,4.7-4,8.3-8.6,8.3c-3,0-5.2-1.5-6.7-3.9
	C8,30.5,7.7,30.8,7.5,31c1.7,2.4,4.5,4,7.7,4c5.2,0,9.4-4.3,9.4-9.5C24.6,21.6,22.2,18.2,18.9,16.7z"/>
<path class="st6" d="M5.8,6.9c0,0,8-0.4,13.7,3.1c0,0-6,12.4-17.1,21.5L5.8,6.9z"/>
<g>
	<path d="M77.3,35.9h-3.2l-3.1-7H59.7l-3.1,7h-3.2l12-26.2L77.3,35.9z M69.9,26.3L65.3,16l-4.5,10.2L69.9,26.3L69.9,26.3z"/>
	<path d="M101.4,23.2c0,3.4-1,6.2-3,8.5c-2.4,2.8-6,4.2-10.7,4.2H81V10.6h6.8c4.4,0,7.8,1.3,10.3,3.8
		C100.3,16.6,101.4,19.6,101.4,23.2z M98.2,23.2c0-3.1-0.9-5.6-2.7-7.3c-1.8-1.8-4.5-2.7-7.9-2.7H84v19.9h3.5c3.7,0,6.4-1,8.3-2.9
		C97.4,28.6,98.2,26.3,98.2,23.2z"/>
	<path d="M136.9,10.6l-8.6,26.2l-7.7-20.2l-7.7,20.1l-8.6-26.2h3l5.9,18.6l7.3-19.4l7.3,19.4l5.9-18.5
		C133.7,10.6,136.9,10.6,136.9,10.6z"/>
	<path d="M144.2,35.9h-3.1V10.6h3.1V35.9z"/>
	<path d="M166.3,28.8c0,2.2-0.7,4.1-2.2,5.6c-1.6,1.5-3.6,2.3-6.1,2.3s-4.6-0.7-6.1-2.2c-1.5-1.4-2.3-3.3-2.3-5.7h3.2
		c0,3.5,1.7,5.2,5.1,5.2c1.6,0,2.9-0.5,3.8-1.4c0.9-0.9,1.4-2.1,1.4-3.7c0-1.2-0.3-2.1-1-2.8c-0.7-0.8-2.3-1.7-4.5-2.8
		c-2.4-1.1-4.1-2.2-5.1-3.3c-1.1-1.1-1.6-2.5-1.6-4c0-1.7,0.6-3.2,1.8-4.3c1.3-1.2,3-1.9,5.2-1.9c2.1,0,3.8,0.5,5.2,1.6
		s2.1,2.7,2.1,4.6H162c0-2.3-1.4-3.5-4.1-3.5c-2.6,0-3.9,1.1-3.9,3.4c0,1.1,0.4,1.9,1.1,2.6c0.7,0.7,2.1,1.5,4.2,2.5
		c2.7,1.3,4.6,2.5,5.6,3.6C165.8,25.6,166.3,27.1,166.3,28.8z"/>
	<path d="M185.6,35.9h-13.8V10.6h13.8v2.7h-10.7v7.5h10v2.7h-10v9.7h10.7V35.9z"/>
</g>
<path d="M7.8,31.4c0,0,6.1-4.7,11.9-14.4C26.4,5.9,27,2.9,37,2.9V0.3c0,0-6.5-0.6-10.6,3.5c-4.2,4.3-8.6,15.9-19.1,26.8L7.8,31.4z"
	/>
<path d="M27,8c0,0,3-4.5,10-4.1v1.5C37,5.3,31.3,5,27,8z"/>
<path d="M5.2,32.4c0,0,1.8,3.2,5.3,3.8c0,0-6.4-0.6-9.4,5.5L1.9,36L5.2,32.4z"/>
</svg>
