<?xml version="1.0" encoding="utf-8"?>
<!-- Generator: Adobe Illustrator 19.2.1, SVG Export Plug-In . SVG Version: 6.00 Build 0)  -->
<svg version="1.1" id="Слой_1" xmlns="http://www.w3.org/2000/svg" xmlns:xlink="http://www.w3.org/1999/xlink" x="0px" y="0px"
	 viewBox="0 0 188 45" style="enable-background:new 0 0 188 45;" xml:space="preserve">
<style type="text/css">
	.st0{fill:#BC7205;}
	.st1{fill:#FFB960;}
	.st2{fill:#FFE25C;}
	.st3{fill:#583D00;}
	.st4{fill:#AC8621;}
	.st5{fill:#987400;}
	.st6{fill:#1F144C;}
	.st7{fill:#FFC21D;}
	.st8{font-family:'FuturaPTBold';}
	.st9{font-size:28.7805px;}
</style>
<g id="Layer_2">
	<path class="st0" d="M36.9,12.9l-2.5,3.3c7.1,6.9,5.2,17.4-1.9,19.7c0,0,4.5-0.6,7.7-3.7C44.2,28.3,46.8,20.9,36.9,12.9z"/>
	<path class="st1" d="M36.9,12.9c0,0,13.4,4.9,14.5,18.3c0.4,4.7-3,9.9-7.9,11.3c-5,1.4-10.7-0.1-12.8-2.5
		c-5.5-6.3,12.5-1.2,12.9-16.2C43.6,18.2,36.9,12.9,36.9,12.9z"/>
	<path class="st2" d="M29.9,17.4c-1.3,2.3-4.6,7.7-10.6,13.8c1.6,2.3,4.3,3.8,7.4,3.8c5,0,9.1-4.1,9.1-9.1
		C35.7,22,33.3,18.7,29.9,17.4z"/>
	<path class="st3" d="M36.7,12.7c1.4,0.9,2.7,2.5,4,4.1L37,19.5c-0.7-1.2-1.4-2.2-2.8-3.2L36.7,12.7z"/>
	<path class="st4" d="M21.8,29c1,1.1,2.5,1.7,3.6,2L25,34.3c0,0-2.7-0.1-5.1-3.5L21.8,29z"/>
	<path class="st4" d="M30.3,17.7c0,0,5.1,2.3,4.9,8.3c-0.2,7,0,0,0,0h-3.5c0.2-2-1-4.4-3.1-5.5L30.3,17.7z"/>
	<path class="st3" d="M30.4,21.6l2.1-2.7c0.4,0.3,1.3,1.9,1.5,2.9c0.3,1.3,0,0,0,0l-2.5,1.8C31.6,23.6,31,22.3,30.4,21.6z"/>
	<path class="st5" d="M34,21.5c0.1,0,1.2,2.5,0.9,4.5h-3.2c-0.1,0,0-1.1-0.5-2.6L34,21.5z"/>
	<path d="M28.4,20.2c-0.8,1.5-2.7,4.5-6.7,8.7c1,1.4,2.7,2.2,4.5,2.2c3.1,0,5.7-2.5,5.7-5.7C31.9,23.1,30.4,21.1,28.4,20.2z"/>
	<path d="M30.3,16.7c-0.2,0.3-0.3,0.6-0.5,0.9c3.1,1.2,5.2,4.6,5.2,8.2c0,4.7-4,8.3-8.6,8.3c-3,0-5.2-1.5-6.7-3.9
		c-0.3,0.3-0.6,0.6-0.8,0.8c1.7,2.4,4.5,4,7.7,4c5.2,0,9.4-4.3,9.4-9.5C36,21.6,33.6,18.2,30.3,16.7z"/>
	<path class="st6" d="M17.2,6.9c0,0,8-0.4,13.7,3.1c0,0-6,12.4-17.1,21.5L17.2,6.9z"/>
	<path d="M19.2,31.4c0,0,6.1-4.7,11.9-14.4C37.8,5.9,38.4,2.9,48.4,2.9V0.3c0,0-6.5-0.6-10.6,3.5c-4.2,4.3-8.6,15.9-19.1,26.8
		L19.2,31.4z"/>
	<path d="M38.4,8c0,0,3-4.5,10-4.1v1.5C48.4,5.3,42.7,5,38.4,8z"/>
	<path d="M16.6,32.4c0,0,1.8,3.2,5.3,3.8c0,0-6.4-0.6-9.4,5.5l0.8-5.7L16.6,32.4z"/>
</g>
<g id="Layer_3">
	<text transform="matrix(1 0 0 1 66.6245 34.7549)" class="st7 st8 st9">adwise</text>
</g>
</svg>
