<?xml version="1.0" encoding="utf-8"?>
<!-- Generator: Adobe Illustrator 19.2.1, SVG Export Plug-In . SVG Version: 6.00 Build 0)  -->
<svg version="1.1" id="Layer_1" xmlns="http://www.w3.org/2000/svg" xmlns:xlink="http://www.w3.org/1999/xlink" x="0px" y="0px"
	 viewBox="0 0 30 30" style="enable-background:new 0 0 30 30;" xml:space="preserve">
<style type="text/css">
	.st0{fill:#C1C2C3;}
</style>
<g>
	<g>
		<path class="st0" d="M15,0C9.5,0,5,4.7,5,10.5c0,0.5,0,0.9,0.1,1.3C6,20,14.4,29.5,14.4,29.5c0.1,0.2,0.3,0.3,0.4,0.4l0,0l0.3,0.1
			l0.3-0.1l0,0c0.1-0.1,0.3-0.2,0.4-0.4c0,0,8.3-9.5,9.1-17.7c0-0.4,0.1-0.9,0.1-1.3C25,4.7,20.5,0,15,0L15,0z M15,17.3
			c-3.5,0-6.4-3-6.4-6.8s2.9-6.8,6.4-6.8s6.4,3,6.4,6.8S18.5,17.3,15,17.3L15,17.3z"/>
	</g>
</g>
</svg>
