<?xml version="1.0" encoding="utf-8"?>
<!-- Generator: Adobe Illustrator 19.2.1, SVG Export Plug-In . SVG Version: 6.00 Build 0)  -->
<svg version="1.1" id="Layer_1" xmlns="http://www.w3.org/2000/svg" xmlns:xlink="http://www.w3.org/1999/xlink" x="0px" y="0px"
	 viewBox="0 0 144 100" style="enable-background:new 0 0 144 100;" xml:space="preserve">
<style type="text/css">
	.st0{fill:none;}
	.st1{fill:#D6C688;}
	.st2{fill:none;stroke:#231F20;stroke-miterlimit:10;}
	.st3{display:none;}
	.st4{display:inline;fill:#231F20;}
	.st5{fill:#231F20;}
	.st6{fill:url(#SVGID_2_);}
	.st7{fill:#FFFFFF;}
</style>
<pattern  y="100" width="100" height="100" patternUnits="userSpaceOnUse" id="SVGID_1_" viewBox="100.4 -200.4 100 100" style="overflow:visible;">
	<g>
		<rect x="100.4" y="-200.4" class="st0" width="100" height="100"/>
		<g>
			<rect x="100.4" y="-200.4" class="st0" width="100" height="100"/>
			<g>
				<rect x="150.4" y="-292.1" class="st1" width="100" height="100"/>
				<line class="st2" x1="300.4" y1="-200.4" x2="200.4" y2="-300.4"/>
				<line class="st2" x1="275" y1="-200.4" x2="175" y2="-300.4"/>
			</g>
			<g>
				<rect x="50.4" y="-292.1" class="st1" width="100" height="100"/>
				<line class="st2" x1="200.4" y1="-200.4" x2="100.4" y2="-300.4"/>
				<line class="st2" x1="175" y1="-200.4" x2="75" y2="-300.4"/>
				<line class="st2" x1="225" y1="-200.4" x2="125" y2="-300.4"/>
			</g>
			<g>
				<line class="st2" x1="100.4" y1="-200.4" x2="0.4" y2="-300.4"/>
				<line class="st2" x1="125" y1="-200.4" x2="25" y2="-300.4"/>
			</g>
			<g>
				<rect x="150.4" y="-192.1" class="st1" width="100" height="100"/>
				<line class="st2" x1="300.4" y1="-100.4" x2="200.4" y2="-200.4"/>
				<line class="st2" x1="275" y1="-100.4" x2="175" y2="-200.4"/>
				<line class="st2" x1="250.4" y1="-101.4" x2="150.4" y2="-201.4"/>
			</g>
			<g>
				<rect x="50.4" y="-192.1" class="st1" width="100" height="100"/>
				<line class="st2" x1="200.4" y1="-100.4" x2="100.4" y2="-200.4"/>
				<line class="st2" x1="175" y1="-100.4" x2="75" y2="-200.4"/>
				<line class="st2" x1="225" y1="-100.4" x2="125" y2="-200.4"/>
				<line class="st2" x1="150.4" y1="-101.4" x2="50.4" y2="-201.4"/>
			</g>
			<g>
				<line class="st2" x1="100.4" y1="-100.4" x2="0.4" y2="-200.4"/>
				<line class="st2" x1="125" y1="-100.4" x2="25" y2="-200.4"/>
			</g>
			<g>
				<line class="st2" x1="300.4" y1="-0.4" x2="200.4" y2="-100.4"/>
				<line class="st2" x1="275" y1="-0.4" x2="175" y2="-100.4"/>
				<line class="st2" x1="250.4" y1="-1.4" x2="150.4" y2="-101.4"/>
			</g>
			<g>
				<line class="st2" x1="200.4" y1="-0.4" x2="100.4" y2="-100.4"/>
				<line class="st2" x1="175" y1="-0.4" x2="75" y2="-100.4"/>
				<line class="st2" x1="225" y1="-0.4" x2="125" y2="-100.4"/>
				<line class="st2" x1="150.4" y1="-1.4" x2="50.4" y2="-101.4"/>
			</g>
			<g>
				<line class="st2" x1="100.4" y1="-0.4" x2="0.4" y2="-100.4"/>
				<line class="st2" x1="125" y1="-0.4" x2="25" y2="-100.4"/>
			</g>
		</g>
	</g>
</pattern>
<g class="st3">
	<path class="st4" d="M89.1,84.6c3,0,5.4,2.4,5.4,5.4s-2.4,5.4-5.4,5.4h-3.8c-3,0-5.4-2.4-5.4-5.4s2.4-5.4,5.4-5.4H89.1 M89.1,83.1
		h-3.8c-3.8,0-6.9,3.1-6.9,6.9l0,0c0,3.8,3.1,6.9,6.9,6.9h3.8c3.8,0,6.9-3.1,6.9-6.9l0,0C95.9,86.2,92.8,83.1,89.1,83.1L89.1,83.1z"
		/>
</g>
<path class="st5" d="M99.4,96.9c0.4,0,0.8,0.4,0.8,0.8s-0.4,0.8-0.8,0.8H44.6c-0.4,0-0.8-0.4-0.8-0.8s0.4-0.8,0.8-0.8H99.4
	 M99.4,95.4H44.6c-1.3,0-2.3,1-2.3,2.3l0,0c0,1.3,1,2.3,2.3,2.3h54.9c1.3,0,2.3-1,2.3-2.3l0,0C101.7,96.5,100.7,95.4,99.4,95.4
	L99.4,95.4z"/>
<path class="st5" d="M87.2,95.4h-1.9c-3,0-5.4-2.4-5.4-5.4s2.4-5.4,5.4-5.4h1.9v-1.5h-1.9c-3.8,0-6.9,3.1-6.9,6.9l0,0
	c0,3.8,3.1,6.9,6.9,6.9h1.9V95.4z"/>
<path class="st5" d="M58.8,83.1h-1.9v1.5h1.9c3,0,5.4,2.4,5.4,5.4s-2.4,5.4-5.4,5.4h-1.9v1.5h1.9c3.8,0,6.9-3.1,6.9-6.9l0,0
	C65.6,86.2,62.5,83.1,58.8,83.1z"/>
<g>
	<pattern  id="SVGID_2_" xlink:href="#SVGID_1_" patternTransform="matrix(1 0 0 -1 -113.4 -17073.1074)">
	</pattern>
	<path class="st6" d="M62,70c-3,0-5.5-2.5-5.5-5.5V32.8c0-3,2.5-5.5,5.5-5.5h54.2c3,0,5.5,2.5,5.5,5.5v31.7c0,3-2.5,5.5-5.5,5.5H62z
		"/>
	<g>
		<path class="st5" d="M116.1,28.8c2.2,0,4,1.8,4,4v31.7c0,2.2-1.8,4-4,4H62c-2.2,0-4-1.8-4-4V32.8c0-2.2,1.8-4,4-4H116.1
			 M116.1,25.8H61.9c-3.9,0-7,3.1-7,7v31.7c0,3.9,3.1,7,7,7h54.2c3.9,0,7-3.1,7-7V32.8C123.1,29,120,25.8,116.1,25.8L116.1,25.8z"/>
	</g>
</g>
<g>
	<path class="st7" d="M27.9,58.1c-3.4,0-6.2-2.8-6.2-6.2V20.1c0-3.4,2.8-6.2,6.2-6.2H82c3.4,0,6.3,2.8,6.3,6.3v31.7
		c0,3.4-2.8,6.2-6.2,6.2C82.1,58.1,27.9,58.1,27.9,58.1z"/>
	<path class="st5" d="M82,14.7c3,0,5.5,2.5,5.5,5.5v31.7c0,3-2.5,5.5-5.5,5.5H27.9c-3,0-5.5-2.5-5.5-5.5V20.1c0-3,2.5-5.5,5.5-5.5
		L82,14.7 M82,13.2H27.8c-3.9,0-7,3.1-7,7v31.7c0,3.9,3.1,7,7,7H82c3.9,0,7-3.1,7-7V20.2C89,16.3,85.9,13.2,82,13.2L82,13.2z"/>
</g>
<g>
	<path class="st5" d="M129.1,7.1c4.7,0,8.5,3.8,8.5,8.5v54c0,4.7-3.8,8.5-8.5,8.5H15c-4.7,0-8.5-3.8-8.5-8.5v-54
		c0-4.7,3.8-8.5,8.5-8.5L129.1,7.1 M129.1,5.6H15c-5.5,0-10,4.5-10,10v54c0,5.5,4.5,10,10,10h114c5.5,0,10-4.5,10-10v-54
		C139.1,10.1,134.6,5.6,129.1,5.6L129.1,5.6z"/>
</g>
<g>
	<path class="st5" d="M130.1,2.1c6.9,0,12.5,5.6,12.5,12.5v56c0,6.9-5.6,12.5-12.5,12.5H14c-6.9,0-12.5-5.6-12.5-12.5v-56
		C1.6,7.7,7.2,2.1,14,2.1H130.1 M130.1,0.6H14c-7.7,0-14,6.3-14,14v56c0,7.7,6.3,14,14,14h116c7.7,0,14-6.3,14-14v-56
		C144.1,6.9,137.8,0.6,130.1,0.6L130.1,0.6z"/>
</g>
</svg>
