<?xml version="1.0" encoding="utf-8"?>
<!-- Generator: Adobe Illustrator 19.2.1, SVG Export Plug-In . SVG Version: 6.00 Build 0)  -->
<svg version="1.1" id="Layer_1" xmlns="http://www.w3.org/2000/svg" xmlns:xlink="http://www.w3.org/1999/xlink" x="0px" y="0px"
	 viewBox="0 0 250 187" style="enable-background:new 0 0 250 187;" xml:space="preserve">
<style type="text/css">
	.st0{fill:#231F20;}
	.st1{fill:#FFFFFF;}
</style>
<path class="st0" d="M192.6,182.6h-1.9c-3,0-5.4-2.4-5.4-5.4c0-3,2.4-5.4,5.4-5.4h1.9v-1.5h-1.9c-3.8,0-6.9,3.1-6.9,6.9v0
	c0,3.8,3.1,6.9,6.9,6.9h1.9V182.6z"/>
<path class="st0" d="M164.2,170.4h-1.9v1.5h1.9c3,0,5.4,2.4,5.4,5.4c0,3-2.4,5.4-5.4,5.4h-1.9v1.5h1.9c3.8,0,6.9-3.1,6.9-6.9v0
	C171,173.5,167.9,170.4,164.2,170.4z"/>
<g>
	<path class="st1" d="M175.6,96.4c1.7,8.1,2.4,16.5,2,24.9c-0.4,8.2-1.9,16.3-4.5,24.2c-2.4,7.5-5.9,14.7-10.2,21.4h21.3
		c2.8-5.5,5.1-11.3,7-17.2c2.9-9.5,4.6-19.2,5-29c0.4-9.4-0.4-18.7-2.3-27.8h-18.9C175.1,94,175.4,95.2,175.6,96.4z"/>
	<path class="st1" d="M146.9,104.2c1.1,5.6,1.4,11.4,0.9,17.2c-0.4,5.6-1.6,11.1-3.5,16.5c-1.8,5.2-4.4,10.1-7.6,14.7
		c-3.1,4.4-6.7,8.5-10.9,12c-0.9,0.8-1.9,1.5-2.8,2.2h26.1c1.4-1.8,2.8-3.7,4.1-5.6c3.9-6,7-12.5,9.2-19.3c2.3-7,3.6-14.1,4-21.3
		c0.4-7.4-0.2-14.8-1.7-21.9c-0.4-2-0.9-3.9-1.5-5.8h-19.4C145.1,96.5,146.2,100.3,146.9,104.2z"/>
	<path class="st1" d="M207.3,121.2c-0.4,10.8-2.3,21.5-5.5,31.9c-1.5,4.7-3.2,9.3-5.2,13.8h20c1.2-3.1,2.3-6.2,3.2-9.4
		c3.6-12,5.6-24.3,6-36.7c0.3-9.4-0.3-18.7-1.8-27.9h-18.8C207,102.2,207.7,111.7,207.3,121.2z"/>
	<path class="st1" d="M112.6,96.4c1.3,2,2.4,4.2,3.3,6.4c1.2,3,2,6.3,2.4,9.5c0.4,3.1,0.3,6.4-0.2,9.5c-0.5,3-1.4,6-2.6,8.8
		c-1.2,2.6-2.8,5.2-4.7,7.5c-0.2,0.2-0.4,0.4-0.6,0.6v18.1c0,1.6,0.4,3,1,4.3c2.6-1.5,5.1-3.2,7.4-5.2c3.4-2.9,6.4-6.2,8.9-9.8
		c2.6-3.8,4.7-7.9,6.2-12.1c1.6-4.4,2.6-9,2.9-13.6c0.4-4.8,0.1-9.6-0.8-14.2c-0.9-4.7-2.3-9.2-4.3-13.4h-11.5
		C117.1,92.9,114.4,94.2,112.6,96.4z"/>
	<path class="st1" d="M234.1,166.9c5.5,0,10-4.5,10-10v-54c0-5.1-3.8-9.3-8.7-9.9c1.4,9.3,2,18.7,1.7,28.1
		c-0.4,13.4-2.6,26.7-6.5,39.6c-0.6,2.1-1.3,4.1-2,6.2H234.1z"/>
</g>
<path class="st0" d="M234.1,94.4c4.7,0,8.5,3.8,8.5,8.5v54c0,4.7-3.8,8.5-8.5,8.5h-114c-4.7,0-8.5-3.8-8.5-8.5v-54
	c0-4.7,3.8-8.5,8.5-8.5H234.1 M234.1,92.9h-114c-5.5,0-10,4.5-10,10v54c0,5.5,4.5,10,10,10h114c5.5,0,10-4.5,10-10v-54
	C244.1,97.4,239.7,92.9,234.1,92.9L234.1,92.9z"/>
<path class="st0" d="M235.1,89.4c6.9,0,12.5,5.6,12.5,12.5v56c0,6.9-5.6,12.5-12.5,12.5h-116c-6.9,0-12.5-5.6-12.5-12.5v-56
	c0-6.9,5.6-12.5,12.5-12.5H235.1 M235.1,87.9h-116c-7.7,0-14,6.3-14,14v56c0,7.7,6.3,14,14,14h116c7.7,0,14-6.3,14-14v-56
	C249.1,94.2,242.9,87.9,235.1,87.9L235.1,87.9z"/>
<path class="st0" d="M204.8,184.2c0.4,0,0.8,0.4,0.8,0.8c0,0.4-0.4,0.8-0.8,0.8H150c-0.4,0-0.8-0.4-0.8-0.8c0-0.4,0.4-0.8,0.8-0.8
	H204.8 M204.8,182.7H150c-1.3,0-2.3,1-2.3,2.3v0c0,1.3,1,2.3,2.3,2.3h54.9c1.3,0,2.3-1,2.3-2.3v0
	C207.1,183.7,206.1,182.7,204.8,182.7L204.8,182.7z"/>
<path class="st0" d="M88.7,88.8c1.9,0,3.5,1.6,3.5,3.5v51c0,1.9-1.6,3.5-3.5,3.5h-22c-1.9,0-3.5-1.6-3.5-3.5v-51
	c0-1.9,1.6-3.5,3.5-3.5H88.7 M88.7,87.3h-22c-2.8,0-5,2.2-5,5v51c0,2.8,2.2,5,5,5h22c2.8,0,5-2.2,5-5v-51
	C93.7,89.5,91.5,87.3,88.7,87.3L88.7,87.3z"/>
<path class="st0" d="M82.2,91.3L82.2,91.3v1l-9,0v-1H82.2 M82.2,90.3h-9c-0.6,0-1,0.4-1,1v1c0,0.6,0.4,1,1,1h9c0.6,0,1-0.4,1-1v-1
	C83.2,90.7,82.7,90.3,82.2,90.3L82.2,90.3z"/>
<g>
	<path class="st1" d="M67,140.1c-0.8-1-1.5-2-2.2-3.1c-0.2-0.3-0.4-0.7-0.6-1.1v0.4C64.2,138.1,65.4,139.6,67,140.1z"/>
	<path class="st1" d="M87.2,95.3h-19c-2.2,0-4,1.8-4,4v16.2c0.2-0.4,0.5-0.8,0.7-1.2c0.9-1.4,2.2-2.8,3.5-3.9c1.2-1,2.8-1.9,4.3-2.5
		c1.3-0.6,3.1-1,4.6-1.1c1.6-0.1,3.4,0.1,4.5,0.3c1.5,0.4,3,1.1,3.9,1.6c1.2,0.7,2.4,1.9,3,2.7c0.9,1.1,1.5,2.6,1.8,3.5
		c0.4,1.2,0.5,2.9,0.4,3.9c-0.1,1.2-0.8,2.9-1.3,3.7c-0.6,1-2.1,2.3-2.9,2.8c-0.8,0.4-1.4,0.6-2.7,0.9c-3,0.7-6.1-1.1-6.8-4.1
		c-0.4-1.5-0.1-3,0.7-4.3c-0.3,0.1-0.7,0.2-0.9,0.3c-0.5,0.2-1.1,0.6-1.4,0.8c-0.5,0.4-1,1-1.3,1.5c-0.4,0.6-0.8,1.4-1,2.1
		c-0.3,0.8-0.4,1.8-0.4,2.6c0,1,0.1,2.1,0.3,2.9c0.3,1.1,0.7,2.2,1.3,3c0.6,1,1.4,2.1,2.3,2.8c1,0.9,2.1,1.7,3.2,2.3
		c1.3,0.7,2.7,1.2,4,1.4c1.5,0.3,3.1,0.4,4.6,0.3c0.8-0.1,1.6-0.2,2.4-0.3c0.2-0.5,0.3-1,0.3-1.5v-37C91.2,97.1,89.4,95.3,87.2,95.3
		z"/>
</g>
<g>
	<path class="st0" d="M87.2,96.8c1.4,0,2.5,1.1,2.5,2.5v37c0,1.4-1.1,2.5-2.5,2.5h-19c-1.4,0-2.5-1.1-2.5-2.5v-37
		c0-1.4,1.1-2.5,2.5-2.5H87.2 M87.2,95.3h-19c-2.2,0-4,1.8-4,4v37c0,2.2,1.8,4,4,4h19c2.2,0,4-1.8,4-4v-37
		C91.2,97.1,89.4,95.3,87.2,95.3L87.2,95.3z"/>
</g>
<path class="st0" d="M77.7,142c0.8,0,1.5,0.7,1.5,1.5c0,0.8-0.7,1.5-1.5,1.5s-1.5-0.7-1.5-1.5C76.2,142.7,76.9,142,77.7,142
	 M77.7,141c-1.4,0-2.5,1.1-2.5,2.5c0,1.4,1.1,2.5,2.5,2.5c1.4,0,2.5-1.1,2.5-2.5C80.2,142.2,79.1,141,77.7,141L77.7,141z"/>
<path class="st0" d="M182.2,69.6c0.4,0,0.7,0.3,0.7,0.7v3.2c0,0.4-0.3,0.7-0.7,0.7H63.9c-0.4,0-0.7-0.3-0.7-0.7v-3.2
	c0-0.4,0.3-0.7,0.7-0.7H182.2 M182.2,68.1H63.9c-1.2,0-2.2,1-2.2,2.2v3.2c0,1.2,1,2.2,2.2,2.2h118.3c1.2,0,2.2-1,2.2-2.2v-3.2
	C184.4,69.1,183.4,68.1,182.2,68.1L182.2,68.1z"/>
<g>
	<path class="st1" d="M132.9,34.6c-7.4-4.8-15.4-8.6-23.7-11.2c-8.5-2.7-17.3-4.3-26.1-4.8c-3.2-0.2-6.5-0.2-9.7,0v11.2
		c3-0.2,6.1-0.2,9.2,0c7.8,0.4,15.7,1.8,23.3,4.2c7.4,2.4,14.5,5.7,21.1,10c6.4,4.1,12.3,9.2,17.5,14.9c1.5,1.7,2.9,3.4,4.3,5.2
		h13.8c-2.9-4.5-6.1-8.8-9.7-12.7C146.8,45,140.1,39.3,132.9,34.6z"/>
	<path class="st1" d="M147.7,8.9c-1.7-1.1-3.4-2.1-5.1-3h-27.8c9.4,3,18.5,7.2,26.9,12.5c8.7,5.4,16.6,12.1,23.7,19.6
		c2.6,2.8,5.1,5.8,7.4,8.9V29.5C165.3,21.6,156.9,14.6,147.7,8.9z"/>
	<path class="st1" d="M101.6,52.2c-6-2.1-12.2-3.3-18.4-3.8c-3.3-0.2-6.6-0.2-9.8,0v5.8c0,2,0.6,3.8,1.6,5.4c2.5-0.1,5-0.1,7.5,0.1
		c5.2,0.4,10.5,1.4,15.6,3.2c1.2,0.4,2.4,0.9,3.5,1.3h21.6c-1.6-1.3-3.2-2.5-4.9-3.7C113,57,107.4,54.2,101.6,52.2z"/>
</g>
<path class="st0" d="M162.8,7.3c4.7,0,8.5,3.8,8.5,8.5v38.3c0,4.7-3.8,8.5-8.5,8.5H83.3c-4.7,0-8.5-3.8-8.5-8.5V15.8
	c0-4.7,3.8-8.5,8.5-8.5H162.8 M162.8,5.8H83.3c-5.5,0-10,4.5-10,10v38.3c0,5.5,4.5,10,10,10h79.5c5.5,0,10-4.5,10-10V15.8
	C172.8,10.3,168.3,5.8,162.8,5.8L162.8,5.8z"/>
<path class="st0" d="M163.8,2.3c6.9,0,12.5,5.6,12.5,12.5v40.3c0,6.9-5.6,12.5-12.5,12.5H82.3c-6.9,0-12.5-5.6-12.5-12.5V14.8
	c0-6.9,5.6-12.5,12.5-12.5H163.8 M163.8,0.8H82.3c-7.7,0-14,6.3-14,14v40.3c0,7.7,6.3,14,14,14h81.5c7.7,0,14-6.3,14-14V14.8
	C177.8,7.1,171.6,0.8,163.8,0.8L163.8,0.8z"/>
<g>
	<path class="st1" d="M5.5,104.4c0.4-1.4,0.8-2.8,1.3-4.1c2.2-6.4,5.2-12.6,9-18.3c3.7-5.6,8.2-10.6,13.3-15.1
		c4.6-4,9.6-7.4,15.1-10.3c-0.4-1.8-2-3.1-3.9-3.1h-24c-0.3,0.2-0.5,0.4-0.8,0.7c-3.7,3.4-7.1,7-10.2,10.9v38.2
		C5.3,103.6,5.4,104,5.5,104.4z"/>
	<path class="st1" d="M25.2,88.1c-3.3,4.9-5.9,10.2-7.7,15.7c-0.4,1.1-0.7,2.2-1,3.4h19.4c1.5-3.7,3.5-7.3,5.9-10.6
		c0.8-1.1,1.7-2.2,2.6-3.2v-24c-2.8,1.8-5.4,3.7-7.8,5.9C32.1,79,28.3,83.4,25.2,88.1z"/>
</g>
<path class="st0" d="M44.7,49.1c1.9,0,3.5,1.6,3.5,3.5v60.2c0,1.9-1.6,3.5-3.5,3.5H4.9c-1.9,0-3.5-1.6-3.5-3.5V52.6
	c0-1.9,1.6-3.5,3.5-3.5H44.7 M44.7,47.6H4.9c-2.8,0-5,2.2-5,5v60.2c0,2.8,2.2,5,5,5h39.8c2.8,0,5-2.2,5-5V52.6
	C49.7,49.8,47.5,47.6,44.7,47.6L44.7,47.6z"/>
<g>
	<path class="st0" d="M40.3,54.9c1.4,0,2.5,1.1,2.5,2.5v45.8c0,1.4-1.1,2.5-2.5,2.5h-31c-1.4,0-2.5-1.1-2.5-2.5V57.4
		c0-1.4,1.1-2.5,2.5-2.5H40.3 M40.3,53.4h-31c-2.2,0-4,1.8-4,4v45.8c0,2.2,1.8,4,4,4h31c2.2,0,4-1.8,4-4V57.4
		C44.3,55.2,42.5,53.4,40.3,53.4L40.3,53.4z"/>
</g>
<path class="st0" d="M24.8,110.4c0.8,0,1.5,0.7,1.5,1.5c0,0.8-0.7,1.5-1.5,1.5s-1.5-0.7-1.5-1.5C23.3,111,24,110.4,24.8,110.4
	 M24.8,109.4c-1.4,0-2.5,1.1-2.5,2.5c0,1.4,1.1,2.5,2.5,2.5c1.4,0,2.5-1.1,2.5-2.5C27.3,110.5,26.2,109.4,24.8,109.4L24.8,109.4z"/>
</svg>
