<?xml version="1.0" encoding="utf-8"?>
<!-- Generator: Adobe Illustrator 19.2.1, SVG Export Plug-In . SVG Version: 6.00 Build 0)  -->
<svg version="1.1" id="Layer_1" xmlns="http://www.w3.org/2000/svg" xmlns:xlink="http://www.w3.org/1999/xlink" x="0px" y="0px"
	 viewBox="0 0 84 85" style="enable-background:new 0 0 84 85;" xml:space="preserve">
<style type="text/css">
	.st0{fill:#231F20;}
</style>
<g>
	<path class="st0" d="M60.5,25.2l-9.1-1.3c-1.1-0.2-2.5-1.2-3-2.2l-4.1-8.2c-0.5-1-1.3-1.6-2.2-1.6s-1.7,0.6-2.2,1.6l-4.1,8.2
		c-0.5,1-1.9,2-3,2.2l-9.1,1.3c-1.1,0.2-2,0.7-2.2,1.6c-0.3,0.8,0,1.8,0.9,2.6l6.6,6.4c0.8,0.8,1.3,2.4,1.2,3.5l-1.6,9
		c-0.2,1.2,0.1,1.9,0.5,2.3c0.7,0.8,1.9,1,3.1,0.3l8.1-4.3c0.9-0.5,2.8-0.5,3.7,0l8.1,4.3c0.5,0.3,1,0.4,1.5,0.4
		c0.6,0,1.2-0.3,1.6-0.7c0.3-0.4,0.7-1.1,0.5-2.3l-1.6-9c-0.2-1.1,0.3-2.8,1.2-3.5l6.6-6.4c0.8-0.8,1.1-1.8,0.9-2.6
		C62.5,25.9,61.7,25.3,60.5,25.2z M60.3,27.7l-6.6,6.4c-1.3,1.3-2.1,3.7-1.8,5.5l1.6,9c0,0.2,0,0.3,0,0.3c-0.1,0-0.2-0.1-0.3-0.1
		L45,44.7c-0.8-0.4-1.8-0.6-2.9-0.6c-1.1,0-2.1,0.2-2.9,0.6L31.1,49c-0.1,0.1-0.2,0.1-0.3,0.1c0-0.1,0-0.2,0-0.3l1.6-9
		c0.3-1.8-0.5-4.3-1.8-5.5L24,27.9c-0.1-0.1-0.2-0.2-0.2-0.3c0.1,0,0.2-0.1,0.3-0.1l9.1-1.3c1.8-0.3,3.9-1.8,4.7-3.4l4.1-8.2
		c0.1-0.1,0.1-0.2,0.2-0.3c0.1,0.1,0.1,0.2,0.2,0.3l4.1,8.2c0.8,1.7,2.9,3.2,4.7,3.4l9.1,1.3c0.2,0,0.3,0.1,0.3,0.1
		C60.5,27.6,60.4,27.6,60.3,27.7z"/>
	<path class="st0" d="M84,50.9v-37c0-4.3-1.3-7.8-3.9-10.2C76-0.3,70.2,0,70.1,0H13.4C9.3,0,5.9,1.3,3.6,3.7
		c-3.7,3.9-3.5,9.3-3.5,9.4v38.2c0,4.8,1.5,8.6,4.4,11.3c2.4,2.2,5.3,3.2,7.6,3.6L5,84.1l43-17.7h20.6c5.4,0,9.5-1.6,12.3-4.7
		C84.8,57.1,84.1,50.9,84,50.9z M76.6,58.1C74.9,60,72.2,61,68.5,61H46.8l-32,13.2l5.3-13.3l-4.3,0.3c-0.1,0-4.7,0.3-7.7-2.5
		c-1.7-1.6-2.6-4.1-2.6-7.3V13.1c0,0-0.1-3.4,2-5.6c1.3-1.3,3.3-2,5.8-2h56.8c0,0,3.7-0.1,6.1,2.2c1.4,1.4,2.2,3.5,2.2,6.3v37.3
		C78.6,51.3,79.1,55.4,76.6,58.1z"/>
</g>
</svg>
