<?xml version="1.0" encoding="utf-8"?>
<!-- Generator: Adobe Illustrator 19.2.1, SVG Export Plug-In . SVG Version: 6.00 Build 0)  -->
<svg version="1.1" id="Layer_1" xmlns="http://www.w3.org/2000/svg" xmlns:xlink="http://www.w3.org/1999/xlink" x="0px" y="0px"
	 viewBox="0 0 90 85" style="enable-background:new 0 0 90 85;" xml:space="preserve">
<path d="M87.2,32.9c-3.6-4.2-9.2-4.2-9.4-4.2H58.6v-14c0-5.7-1.6-9.8-4.8-12.2c-5-3.9-12-2-12.3-1.9l0,0C40.3,0.9,40.3,2,40.3,2v0.2
	v15.2c0,6.2-3,11.1-8.8,14.4c-2.7,1.6-5.5,2.5-7.3,2.9v-1.5c0-1.5-1.2-2.6-2.6-2.6h-19c-1.5,0-2.6,1.2-2.6,2.6v46.9
	c0,1.5,1.2,2.6,2.6,2.6h19c1.2,0,2.2-0.8,2.5-1.9c0.2,0.2,0.4,0.4,0.6,0.6c3.5,3.3,8.3,3.6,9.8,3.6c0.2,0,0.3,0,0.4,0h36.7
	c4.9,0,8.9-2.3,11.3-6.7c1.7-3,2.1-6,2.2-6.4c0.1-0.7,2.2-12.5,4.5-26.7C90.5,39.9,89.7,35.8,87.2,32.9z M19,77.4H5.3V35.8H19V77.4z
	 M86.7,44.7c-2.4,14.6-4.5,26.6-4.5,26.7v0.1c0,0-0.3,2.7-1.8,5.4c-1.9,3.4-4.9,5.2-8.7,5.2H34.9h-0.1c0,0-4.9,0.2-8.1-2.7
	c-1.3-1.3-2.2-3-2.5-5.1V37.8c1.9-0.4,5.3-1.4,8.7-3.3c6.8-3.9,10.4-9.8,10.4-17.1V3.2c1.8-0.3,5.6-0.6,8.6,1.7
	c2.4,1.9,3.7,5.2,3.7,9.9v15.5l0,0c0,0.8,0.7,1.5,1.5,1.5c0.1,0,0.2,0,0.2,0h20.4l0,0c0.1,0,4.5,0,7.2,3.2
	C86.8,37.1,87.4,40.4,86.7,44.7z"/>
</svg>
