<?xml version="1.0" encoding="utf-8"?>
<!-- Generator: Adobe Illustrator 19.2.1, SVG Export Plug-In . SVG Version: 6.00 Build 0)  -->
<svg version="1.1" id="Layer_1" xmlns="http://www.w3.org/2000/svg" xmlns:xlink="http://www.w3.org/1999/xlink" x="0px" y="0px"
	 viewBox="0 0 144 100" style="enable-background:new 0 0 144 100;" xml:space="preserve">
<style type="text/css">
	.st0{fill:none;}
	.st1{fill:#D6C688;}
	.st2{fill:none;stroke:#231F20;stroke-miterlimit:10;}
	.st3{fill:#231F20;}
	.st4{fill:url(#SVGID_1_);}
	.st5{fill:url(#SVGID_2_);}
	.st6{fill:url(#SVGID_3_);}
</style>
<pattern  y="100" width="100" height="100" patternUnits="userSpaceOnUse" id="SVGID_4_" viewBox="100.4 -200.4 100 100" style="overflow:visible;">
	<g>
		<rect x="100.4" y="-200.4" class="st0" width="100" height="100"/>
		<g>
			<rect x="100.4" y="-200.4" class="st0" width="100" height="100"/>
			<g>
				<rect x="100.4" y="-200.4" class="st0" width="100" height="100"/>
				<g>
					<rect x="150.4" y="-108.7" class="st1" width="100" height="100"/>
					<line class="st2" x1="300.4" y1="-100.4" x2="200.4" y2="-0.4"/>
					<line class="st2" x1="275" y1="-100.4" x2="175" y2="-0.4"/>
				</g>
				<g>
					<rect x="50.4" y="-108.7" class="st1" width="100" height="100"/>
					<line class="st2" x1="200.4" y1="-100.4" x2="100.4" y2="-0.4"/>
					<line class="st2" x1="175" y1="-100.4" x2="75" y2="-0.4"/>
					<line class="st2" x1="225" y1="-100.4" x2="125" y2="-0.4"/>
				</g>
				<g>
					<line class="st2" x1="100.4" y1="-100.4" x2="0.4" y2="-0.4"/>
					<line class="st2" x1="125" y1="-100.4" x2="25" y2="-0.4"/>
				</g>
				<g>
					<rect x="150.4" y="-208.7" class="st1" width="100" height="100"/>
					<line class="st2" x1="300.4" y1="-200.4" x2="200.4" y2="-100.4"/>
					<line class="st2" x1="275" y1="-200.4" x2="175" y2="-100.4"/>
					<line class="st2" x1="250.4" y1="-199.4" x2="150.4" y2="-99.4"/>
				</g>
				<g>
					<rect x="50.4" y="-208.7" class="st1" width="100" height="100"/>
					<line class="st2" x1="200.4" y1="-200.4" x2="100.4" y2="-100.4"/>
					<line class="st2" x1="175" y1="-200.4" x2="75" y2="-100.4"/>
					<line class="st2" x1="225" y1="-200.4" x2="125" y2="-100.4"/>
					<line class="st2" x1="150.4" y1="-199.4" x2="50.4" y2="-99.4"/>
				</g>
				<g>
					<line class="st2" x1="100.4" y1="-200.4" x2="0.4" y2="-100.4"/>
					<line class="st2" x1="125" y1="-200.4" x2="25" y2="-100.4"/>
				</g>
				<g>
					<line class="st2" x1="300.4" y1="-300.4" x2="200.4" y2="-200.4"/>
					<line class="st2" x1="275" y1="-300.4" x2="175" y2="-200.4"/>
					<line class="st2" x1="250.4" y1="-299.4" x2="150.4" y2="-199.4"/>
				</g>
				<g>
					<line class="st2" x1="200.4" y1="-300.4" x2="100.4" y2="-200.4"/>
					<line class="st2" x1="175" y1="-300.4" x2="75" y2="-200.4"/>
					<line class="st2" x1="225" y1="-300.4" x2="125" y2="-200.4"/>
					<line class="st2" x1="150.4" y1="-299.4" x2="50.4" y2="-199.4"/>
				</g>
				<g>
					<line class="st2" x1="100.4" y1="-300.4" x2="0.4" y2="-200.4"/>
					<line class="st2" x1="125" y1="-300.4" x2="25" y2="-200.4"/>
				</g>
			</g>
		</g>
	</g>
</pattern>
<pattern  y="100" width="100" height="100" patternUnits="userSpaceOnUse" id="SVGID_5_" viewBox="100.4 -200.4 100 100" style="overflow:visible;">
	<g>
		<rect x="100.4" y="-200.4" class="st0" width="100" height="100"/>
		<g>
			<rect x="100.4" y="-200.4" class="st0" width="100" height="100"/>
			<g>
				<rect x="100.4" y="-200.4" class="st0" width="100" height="100"/>
				<g>
					<rect x="150.4" y="-108.7" class="st1" width="100" height="100"/>
					<line class="st2" x1="300.4" y1="-100.4" x2="200.4" y2="-0.4"/>
					<line class="st2" x1="275" y1="-100.4" x2="175" y2="-0.4"/>
				</g>
				<g>
					<rect x="50.4" y="-108.7" class="st1" width="100" height="100"/>
					<line class="st2" x1="200.4" y1="-100.4" x2="100.4" y2="-0.4"/>
					<line class="st2" x1="175" y1="-100.4" x2="75" y2="-0.4"/>
					<line class="st2" x1="225" y1="-100.4" x2="125" y2="-0.4"/>
				</g>
				<g>
					<line class="st2" x1="100.4" y1="-100.4" x2="0.4" y2="-0.4"/>
					<line class="st2" x1="125" y1="-100.4" x2="25" y2="-0.4"/>
				</g>
				<g>
					<rect x="150.4" y="-208.7" class="st1" width="100" height="100"/>
					<line class="st2" x1="300.4" y1="-200.4" x2="200.4" y2="-100.4"/>
					<line class="st2" x1="275" y1="-200.4" x2="175" y2="-100.4"/>
					<line class="st2" x1="250.4" y1="-199.4" x2="150.4" y2="-99.4"/>
				</g>
				<g>
					<rect x="50.4" y="-208.7" class="st1" width="100" height="100"/>
					<line class="st2" x1="200.4" y1="-200.4" x2="100.4" y2="-100.4"/>
					<line class="st2" x1="175" y1="-200.4" x2="75" y2="-100.4"/>
					<line class="st2" x1="225" y1="-200.4" x2="125" y2="-100.4"/>
					<line class="st2" x1="150.4" y1="-199.4" x2="50.4" y2="-99.4"/>
				</g>
				<g>
					<line class="st2" x1="100.4" y1="-200.4" x2="0.4" y2="-100.4"/>
					<line class="st2" x1="125" y1="-200.4" x2="25" y2="-100.4"/>
				</g>
				<g>
					<line class="st2" x1="300.4" y1="-300.4" x2="200.4" y2="-200.4"/>
					<line class="st2" x1="275" y1="-300.4" x2="175" y2="-200.4"/>
					<line class="st2" x1="250.4" y1="-299.4" x2="150.4" y2="-199.4"/>
				</g>
				<g>
					<line class="st2" x1="200.4" y1="-300.4" x2="100.4" y2="-200.4"/>
					<line class="st2" x1="175" y1="-300.4" x2="75" y2="-200.4"/>
					<line class="st2" x1="225" y1="-300.4" x2="125" y2="-200.4"/>
					<line class="st2" x1="150.4" y1="-299.4" x2="50.4" y2="-199.4"/>
				</g>
				<g>
					<line class="st2" x1="100.4" y1="-300.4" x2="0.4" y2="-200.4"/>
					<line class="st2" x1="125" y1="-300.4" x2="25" y2="-200.4"/>
				</g>
			</g>
		</g>
	</g>
</pattern>
<pattern  y="100" width="100" height="100" patternUnits="userSpaceOnUse" id="SVGID_6_" viewBox="100.4 -200.4 100 100" style="overflow:visible;">
	<g>
		<rect x="100.4" y="-200.4" class="st0" width="100" height="100"/>
		<g>
			<rect x="100.4" y="-200.4" class="st0" width="100" height="100"/>
			<g>
				<rect x="100.4" y="-200.4" class="st0" width="100" height="100"/>
				<g>
					<rect x="150.4" y="-108.7" class="st1" width="100" height="100"/>
					<line class="st2" x1="300.4" y1="-100.4" x2="200.4" y2="-0.4"/>
					<line class="st2" x1="275" y1="-100.4" x2="175" y2="-0.4"/>
				</g>
				<g>
					<rect x="50.4" y="-108.7" class="st1" width="100" height="100"/>
					<line class="st2" x1="200.4" y1="-100.4" x2="100.4" y2="-0.4"/>
					<line class="st2" x1="175" y1="-100.4" x2="75" y2="-0.4"/>
					<line class="st2" x1="225" y1="-100.4" x2="125" y2="-0.4"/>
				</g>
				<g>
					<line class="st2" x1="100.4" y1="-100.4" x2="0.4" y2="-0.4"/>
					<line class="st2" x1="125" y1="-100.4" x2="25" y2="-0.4"/>
				</g>
				<g>
					<rect x="150.4" y="-208.7" class="st1" width="100" height="100"/>
					<line class="st2" x1="300.4" y1="-200.4" x2="200.4" y2="-100.4"/>
					<line class="st2" x1="275" y1="-200.4" x2="175" y2="-100.4"/>
					<line class="st2" x1="250.4" y1="-199.4" x2="150.4" y2="-99.4"/>
				</g>
				<g>
					<rect x="50.4" y="-208.7" class="st1" width="100" height="100"/>
					<line class="st2" x1="200.4" y1="-200.4" x2="100.4" y2="-100.4"/>
					<line class="st2" x1="175" y1="-200.4" x2="75" y2="-100.4"/>
					<line class="st2" x1="225" y1="-200.4" x2="125" y2="-100.4"/>
					<line class="st2" x1="150.4" y1="-199.4" x2="50.4" y2="-99.4"/>
				</g>
				<g>
					<line class="st2" x1="100.4" y1="-200.4" x2="0.4" y2="-100.4"/>
					<line class="st2" x1="125" y1="-200.4" x2="25" y2="-100.4"/>
				</g>
				<g>
					<line class="st2" x1="300.4" y1="-300.4" x2="200.4" y2="-200.4"/>
					<line class="st2" x1="275" y1="-300.4" x2="175" y2="-200.4"/>
					<line class="st2" x1="250.4" y1="-299.4" x2="150.4" y2="-199.4"/>
				</g>
				<g>
					<line class="st2" x1="200.4" y1="-300.4" x2="100.4" y2="-200.4"/>
					<line class="st2" x1="175" y1="-300.4" x2="75" y2="-200.4"/>
					<line class="st2" x1="225" y1="-300.4" x2="125" y2="-200.4"/>
					<line class="st2" x1="150.4" y1="-299.4" x2="50.4" y2="-199.4"/>
				</g>
				<g>
					<line class="st2" x1="100.4" y1="-300.4" x2="0.4" y2="-200.4"/>
					<line class="st2" x1="125" y1="-300.4" x2="25" y2="-200.4"/>
				</g>
			</g>
		</g>
	</g>
</pattern>
<path class="st3" d="M99.4,96.9c0.4,0,0.8,0.4,0.8,0.8s-0.4,0.8-0.8,0.8H44.6c-0.4,0-0.8-0.4-0.8-0.8s0.4-0.8,0.8-0.8H99.4
	 M99.4,95.4H44.6c-1.3,0-2.3,1-2.3,2.3l0,0c0,1.3,1,2.3,2.3,2.3h54.9c1.3,0,2.3-1,2.3-2.3l0,0C101.7,96.5,100.7,95.4,99.4,95.4
	L99.4,95.4z"/>
<path class="st3" d="M87.2,95.4h-1.9c-3,0-5.4-2.4-5.4-5.4s2.4-5.4,5.4-5.4h1.9v-1.5h-1.9c-3.8,0-6.9,3.1-6.9,6.9l0,0
	c0,3.8,3.1,6.9,6.9,6.9h1.9V95.4z"/>
<path class="st3" d="M58.8,83.1h-1.9v1.5h1.9c3,0,5.4,2.4,5.4,5.4s-2.4,5.4-5.4,5.4h-1.9v1.5h1.9c3.8,0,6.9-3.1,6.9-6.9l0,0
	C65.6,86.2,62.5,83.1,58.8,83.1z"/>
<g>
	<g>
		<pattern  id="SVGID_1_" xlink:href="#SVGID_4_" patternTransform="matrix(1 0 0 1 -217.3 16751.7363)">
		</pattern>
		<path class="st4" d="M29,32.8c-2.5,0-4.6-2.1-4.6-4.6v-4.6c0-2.5,2.1-4.6,4.6-4.6h53.7c2.5,0,4.6,2.1,4.6,4.6v4.6
			c0,2.5-2.1,4.6-4.6,4.6H29z"/>
	</g>
	<g>
		<path class="st3" d="M82.7,20.5c1.7,0,3.1,1.4,3.1,3.1v4.6c0,1.7-1.4,3.1-3.1,3.1H29c-1.7,0-3.1-1.4-3.1-3.1v-4.6
			c0-1.7,1.4-3.1,3.1-3.1H82.7 M82.7,17.5H29c-3.4,0-6.1,2.7-6.1,6.1v4.6c0,3.4,2.7,6.1,6.1,6.1h53.7c3.4,0,6.1-2.7,6.1-6.1v-4.6
			C88.8,20.3,86,17.5,82.7,17.5L82.7,17.5z"/>
	</g>
</g>
<g>
	<g>
		<pattern  id="SVGID_2_" xlink:href="#SVGID_5_" patternTransform="matrix(1 0 0 1 -217.3 16751.7363)">
		</pattern>
		<path class="st5" d="M29,65.2c-2.5,0-4.6-2.1-4.6-4.6V45.4c0-2.5,2.1-4.6,4.6-4.6h54.5c2.5,0,4.6,2.1,4.6,4.6v15.2
			c0,2.5-2.1,4.6-4.6,4.6C83.5,65.2,29,65.2,29,65.2z"/>
	</g>
	<g>
		<path class="st3" d="M83.5,42.3c1.7,0,3.1,1.4,3.1,3.1v15.2c0,1.7-1.4,3.1-3.1,3.1H29c-1.7,0-3.1-1.4-3.1-3.1V45.4
			c0-1.7,1.4-3.1,3.1-3.1L83.5,42.3 M83.5,39.3H29c-3.4,0-6.1,2.7-6.1,6.1v15.2c0,3.4,2.7,6.1,6.1,6.1h54.5c3.4,0,6.1-2.7,6.1-6.1
			V45.4C89.6,42,86.9,39.3,83.5,39.3L83.5,39.3z"/>
	</g>
</g>
<g>
	<g>
		<pattern  id="SVGID_3_" xlink:href="#SVGID_6_" patternTransform="matrix(1 0 0 1 -217.3 16751.7363)">
		</pattern>
		<path class="st6" d="M100.7,65.6c-2.5,0-4.6-2.1-4.6-4.6V23.7c0-2.5,2.1-4.6,4.6-4.6H115c2.5,0,4.6,2.1,4.6,4.6V61
			c0,2.5-2.1,4.6-4.6,4.6H100.7z"/>
	</g>
	<g>
		<path class="st3" d="M115,20.6c1.7,0,3.1,1.4,3.1,3.1V61c0,1.7-1.4,3.1-3.1,3.1h-14.3c-1.7,0-3.1-1.4-3.1-3.1V23.7
			c0-1.7,1.4-3.1,3.1-3.1H115 M115,17.6h-14.3c-3.4,0-6.1,2.7-6.1,6.1V61c0,3.4,2.7,6.1,6.1,6.1H115c3.4,0,6.1-2.7,6.1-6.1V23.7
			C121,20.3,118.3,17.6,115,17.6L115,17.6z"/>
	</g>
</g>
<g>
	<path class="st3" d="M129.1,7.1c4.7,0,8.5,3.8,8.5,8.5v54c0,4.7-3.8,8.5-8.5,8.5H15c-4.7,0-8.5-3.8-8.5-8.5v-54
		c0-4.7,3.8-8.5,8.5-8.5H129.1 M129.1,5.6H15c-5.5,0-10,4.5-10,10v54c0,5.5,4.5,10,10,10h114c5.5,0,10-4.5,10-10v-54
		C139.1,10.1,134.6,5.6,129.1,5.6L129.1,5.6z"/>
</g>
<g>
	<path class="st3" d="M130.1,2.1c6.9,0,12.5,5.6,12.5,12.5v56c0,6.9-5.6,12.5-12.5,12.5H14c-6.9,0-12.5-5.6-12.5-12.5v-56
		C1.6,7.7,7.2,2.1,14,2.1H130.1 M130.1,0.6H14c-7.7,0-14,6.3-14,14v56c0,7.7,6.3,14,14,14h116c7.7,0,14-6.3,14-14v-56
		C144.1,6.9,137.8,0.6,130.1,0.6L130.1,0.6z"/>
</g>
</svg>
