<?xml version="1.0" encoding="utf-8"?>
<!-- Generator: Adobe Illustrator 19.2.1, SVG Export Plug-In . SVG Version: 6.00 Build 0)  -->
<svg version="1.1" id="Layer_1" xmlns="http://www.w3.org/2000/svg" xmlns:xlink="http://www.w3.org/1999/xlink" x="0px" y="0px"
	 viewBox="0 0 126 113" style="enable-background:new 0 0 126 113;" xml:space="preserve">
<style type="text/css">
	.st0{fill:#231F20;}
</style>
<g>
	<path class="st0" d="M77.2,54.8l-0.5-15.4C67.2,28.7,70.8,15,76.5,8.6c6.4-7.1,16.5-9.9,29.2-8c13.7,2,18.3,13.8,18.6,14.6
		c0.4,0.9,5.7,14.4-4.4,26.1c-9.7,11.2-25.5,7.8-28.2,7.1L77.2,54.8z M98.2,2.5c-8.6,0-15.4,2.7-20.1,7.8C73,16,69.8,28.4,78.6,38.1
		l0.3,0.3l0.4,12.8l12.1-5.3l0.4,0.1c0.2,0,16.9,4.7,26.4-6.3c9.4-10.9,4.1-23.3,4-23.4v-0.1C122,15.7,117.9,4.9,105.4,3
		C102.9,2.7,100.5,2.5,98.2,2.5z"/>
</g>
<g>
	<path class="st0" d="M74.9,54.8l-15-0.2c-1-0.7-2-1.2-3.1-1.8l-0.2-0.1c-1.5-0.7-3-1.2-4.6-1.6c-1.6-0.3-3.2-0.5-4.8-0.5
		s-3.2,0.2-4.8,0.5c-1.6,0.4-3.1,0.9-4.6,1.6l0,0c-2.9,1.3-5.5,3.2-7.7,5.6c-1,1.1-1.9,2.2-2.7,3.5c-0.8,1.2-1.5,2.5-2.1,3.9
		c-1.4,3.2-1.8,6-2.2,8.8L23,74.9c-1.2,0.2-2.3,0.2-3.5,0c-1.6-0.4-3.1-1.2-4.3-2.5l0,0L15,71.9l0,0l-0.3-0.4
		c-0.5-0.7-1.2-1.2-2.1-1.3c-1.5-0.1-2.8,1.1-3,2.7c-0.3,3.6,0.2,7.3,1.3,10.8c0.8,2.4,1.8,4.6,3.2,6.7c-1,0.6-2,1.1-3.1,1.5
		c-2.7,1-5.3,1.1-8,0.8c-0.7-0.1-1.5,0.1-2.1,0.7c-1.1,1.1-1.3,3-0.3,4.2c1.9,2.4,4,4.6,6.3,6.5s4.8,3.6,7.5,4.9
		c2.3,1.2,4.6,2,7.1,2.7c8.8,2.3,18.5,1.5,27-2.3c10.7-4.7,19.4-14.1,22.2-26.3c0.2-1,0.4-2.1,0.5-3.1c0.1-1.1,0.2-2.1,0.2-3.1
		c0-0.8,0-1.5-0.1-2.3c0.1-0.2,0.2-0.4,0.3-0.7l5.6-15c0.2-0.3,0.2-0.7,0.3-1.1C77.6,56.3,76.4,54.8,74.9,54.8z M65.8,79.3
		c-0.1,0.8-0.2,1.6-0.4,2.4C63.1,92,55.6,100,46.5,103.9c-7.5,3.3-16,4.1-23.7,2c-2.1-0.5-4.1-1.3-6-2.3c-2.3-1.2-4.5-2.6-6.5-4.3
		c-0.3-0.3-0.7-0.6-1-0.9c1.2-0.2,2.3-0.5,3.4-0.9c2.6-0.9,4.9-2.4,7.1-4.2c1.2-1,1.4-2.9,0.5-4.2l-0.2-0.2l0,0
		c-1.9-2.1-3.2-4.6-4-7.2c-0.2-0.7-0.4-1.5-0.6-2.2c1,0.5,2,0.8,3,1.1c2.6,0.6,5.4,0.4,8-0.7c1-0.4,1.6-1.3,1.8-2.4
		c0.1-0.6,0.2-1.5,0.3-2.2c0.4-2.4,0.7-4.7,1.8-7.2c0.5-1.1,1-2.1,1.6-3c0.6-1,1.3-1.8,2.1-2.7c1.7-1.8,3.7-3.3,5.9-4.4
		c1.1-0.5,2.3-0.9,3.5-1.2c1.2-0.2,2.4-0.4,3.7-0.4s2.5,0.1,3.7,0.4c1.2,0.3,2.4,0.7,3.5,1.2l0.2,0.1c1,0.5,2,1.1,3,1.8
		s1.9,1.6,2.8,2.5c1.7,1.9,3.1,4,4,6.4c0.5,1.2,0.8,2.5,1.1,3.8c0.2,1.3,0.4,2.6,0.4,4.1C65.9,77.7,65.9,78.5,65.8,79.3z M69,65.3
		c-0.8-1.8-1.8-3.4-2.9-4.9h4.7L69,65.3z"/>
	<path class="st0" d="M54.8,63.3c-4.1,0-7.5,3.7-7.5,8.1c0,4.5,3.4,8.1,7.5,8.1s7.5-3.7,7.5-8.1S58.9,63.3,54.8,63.3z M54.8,73.6
		c-1.1,0-2-1-2-2.2s0.9-2.2,2-2.2s2,1,2,2.2C56.8,72.7,55.9,73.6,54.8,73.6z"/>
</g>
</svg>
