<?xml version="1.0" encoding="utf-8"?>
<!-- Generator: Adobe Illustrator 19.2.1, SVG Export Plug-In . SVG Version: 6.00 Build 0)  -->
<svg version="1.1" id="Layer_1" xmlns="http://www.w3.org/2000/svg" xmlns:xlink="http://www.w3.org/1999/xlink" x="0px" y="0px"
	 viewBox="0 0 50 100" style="enable-background:new 0 0 50 100;" xml:space="preserve">
<style type="text/css">
	.st0{fill:#231F20;}
	.st1{clip-path:url(#SVGID_2_);}
	.st2{clip-path:url(#SVGID_4_);}
	.st3{fill:none;}
	.st4{fill:#D6C688;}
	.st5{fill:none;stroke:#231F20;stroke-miterlimit:10;}
	.st6{clip-path:url(#SVGID_6_);}
</style>
<g>
	<g>
		<path class="st0" d="M42.2,4c3.5,0,6.3,2.8,6.3,6.3V90c0,3.5-2.8,6.3-6.3,6.3H7.8c-3.5,0-6.3-2.8-6.3-6.3V10.3
			C1.5,6.9,4.3,4,7.8,4H42.2 M42.2,2.5H7.8C3.5,2.5,0,6,0,10.3V90c0,4.3,3.5,7.8,7.8,7.8h34.4c4.3,0,7.8-3.5,7.8-7.8V10.3
			C50,6,46.5,2.5,42.2,2.5L42.2,2.5z"/>
	</g>
</g>
<g>
	<g>
		<path class="st0" d="M32,8.2c0.3,0,0.6,0.3,0.6,0.6v1.6c0,0.3-0.3,0.6-0.6,0.6H18c-0.3,0-0.6-0.3-0.6-0.6V8.8
			c0-0.3,0.3-0.6,0.6-0.6H32 M32,7.2H18c-0.9,0-1.6,0.7-1.6,1.6v1.6c0,0.9,0.7,1.6,1.6,1.6h14c0.9,0,1.6-0.7,1.6-1.6V8.8
			C33.6,7.9,32.9,7.2,32,7.2L32,7.2z"/>
	</g>
</g>
<g>
	<g>
		<g>
			<g>
				<defs>
					<path id="SVGID_1_" d="M10.2,83.8c-2.6,0-4.8-2.1-4.8-4.8V21.3c0-2.6,2.1-4.8,4.8-4.8h29.7c2.6,0,4.8,2.1,4.8,4.8v57.8
						c0,2.6-2.1,4.8-4.8,4.8L10.2,83.8L10.2,83.8z"/>
				</defs>
				<clipPath id="SVGID_2_">
					<use xlink:href="#SVGID_1_"  style="overflow:visible;"/>
				</clipPath>
				<g class="st1">
					<g>
						<defs>
							<rect id="SVGID_3_" x="-6.1" y="79.5" width="100" height="100"/>
						</defs>
						<clipPath id="SVGID_4_">
							<use xlink:href="#SVGID_3_"  style="overflow:visible;"/>
						</clipPath>
						<g class="st2">
							<rect x="-6.1" y="79.5" class="st3" width="100" height="100"/>
							<g>
								<rect x="9.6" y="176.8" class="st4" width="100" height="100"/>
								<line class="st5" x1="162.3" y1="179.5" x2="62.3" y2="279.5"/>
								<line class="st5" x1="137" y1="179.5" x2="37" y2="279.5"/>
								<line class="st5" x1="187" y1="179.5" x2="87" y2="279.5"/>
							</g>
							<g>
								<rect x="-90.4" y="176.8" class="st4" width="100" height="100"/>
								<line class="st5" x1="62.3" y1="179.5" x2="-37.7" y2="279.5"/>
								<line class="st5" x1="37" y1="179.5" x2="-63" y2="279.5"/>
								<line class="st5" x1="87" y1="179.5" x2="-13" y2="279.5"/>
							</g>
							<g>
								<rect x="9.6" y="76.8" class="st4" width="100" height="100"/>
								<line class="st5" x1="162.3" y1="79.5" x2="62.3" y2="179.5"/>
								<line class="st5" x1="137" y1="79.5" x2="37" y2="179.5"/>
								<line class="st5" x1="187" y1="79.5" x2="87" y2="179.5"/>
								<line class="st5" x1="112.3" y1="80.5" x2="12.3" y2="180.5"/>
							</g>
							<g>
								<rect x="-90.4" y="76.8" class="st4" width="100" height="100"/>
								<line class="st5" x1="62.3" y1="79.5" x2="-37.7" y2="179.5"/>
								<line class="st5" x1="37" y1="79.5" x2="-63" y2="179.5"/>
								<line class="st5" x1="87" y1="79.5" x2="-13" y2="179.5"/>
								<line class="st5" x1="12.3" y1="80.5" x2="-87.7" y2="180.5"/>
							</g>
							<g>
								<line class="st5" x1="162.3" y1="-20.5" x2="62.3" y2="79.5"/>
								<line class="st5" x1="137" y1="-20.5" x2="37" y2="79.5"/>
								<line class="st5" x1="187" y1="-20.5" x2="87" y2="79.5"/>
								<line class="st5" x1="112.3" y1="-19.5" x2="12.3" y2="80.5"/>
							</g>
							<g>
								<line class="st5" x1="62.3" y1="-20.5" x2="-37.7" y2="79.5"/>
								<line class="st5" x1="37" y1="-20.5" x2="-63" y2="79.5"/>
								<line class="st5" x1="87" y1="-20.5" x2="-13" y2="79.5"/>
								<line class="st5" x1="12.3" y1="-19.5" x2="-87.7" y2="80.5"/>
							</g>
						</g>
					</g>
				</g>
				<g class="st1">
					<g>
						<defs>
							<rect id="SVGID_5_" x="-6.1" y="-20.5" width="100" height="100"/>
						</defs>
						<clipPath id="SVGID_6_">
							<use xlink:href="#SVGID_5_"  style="overflow:visible;"/>
						</clipPath>
						<g class="st6">
							<rect x="-6.1" y="-20.5" class="st3" width="100" height="100"/>
							<g>
								<rect x="9.6" y="76.8" class="st4" width="100" height="100"/>
								<line class="st5" x1="162.3" y1="79.5" x2="62.3" y2="179.5"/>
								<line class="st5" x1="137" y1="79.5" x2="37" y2="179.5"/>
								<line class="st5" x1="187" y1="79.5" x2="87" y2="179.5"/>
							</g>
							<g>
								<rect x="-90.4" y="76.8" class="st4" width="100" height="100"/>
								<line class="st5" x1="62.3" y1="79.5" x2="-37.7" y2="179.5"/>
								<line class="st5" x1="37" y1="79.5" x2="-63" y2="179.5"/>
								<line class="st5" x1="87" y1="79.5" x2="-13" y2="179.5"/>
							</g>
							<g>
								<rect x="9.6" y="-23.2" class="st4" width="100" height="100"/>
								<line class="st5" x1="162.3" y1="-20.5" x2="62.3" y2="79.5"/>
								<line class="st5" x1="137" y1="-20.5" x2="37" y2="79.5"/>
								<line class="st5" x1="187" y1="-20.5" x2="87" y2="79.5"/>
								<line class="st5" x1="112.3" y1="-19.5" x2="12.3" y2="80.5"/>
							</g>
							<g>
								<rect x="-90.4" y="-23.2" class="st4" width="100" height="100"/>
								<line class="st5" x1="62.3" y1="-20.5" x2="-37.7" y2="79.5"/>
								<line class="st5" x1="37" y1="-20.5" x2="-63" y2="79.5"/>
								<line class="st5" x1="87" y1="-20.5" x2="-13" y2="79.5"/>
								<line class="st5" x1="12.3" y1="-19.5" x2="-87.7" y2="80.5"/>
							</g>
							<g>
								<line class="st5" x1="162.3" y1="-120.5" x2="62.3" y2="-20.5"/>
								<line class="st5" x1="137" y1="-120.5" x2="37" y2="-20.5"/>
								<line class="st5" x1="187" y1="-120.5" x2="87" y2="-20.5"/>
								<line class="st5" x1="112.3" y1="-119.5" x2="12.3" y2="-19.5"/>
							</g>
							<g>
								<line class="st5" x1="62.3" y1="-120.5" x2="-37.7" y2="-20.5"/>
								<line class="st5" x1="37" y1="-120.5" x2="-63" y2="-20.5"/>
								<line class="st5" x1="87" y1="-120.5" x2="-13" y2="-20.5"/>
								<line class="st5" x1="12.3" y1="-119.5" x2="-87.7" y2="-19.5"/>
							</g>
						</g>
					</g>
				</g>
			</g>
		</g>
	</g>
	<g>
		<g>
			<path class="st0" d="M39.8,18c1.8,0,3.3,1.5,3.3,3.2V79c0,1.8-1.5,3.3-3.3,3.3H10.2c-1.8,0-3.3-1.5-3.3-3.3V21.3
				c0-1.8,1.5-3.2,3.3-3.2L39.8,18 M39.8,15H10.2c-3.5,0-6.3,2.8-6.3,6.2V79c0,3.5,2.8,6.3,6.3,6.3h29.7c3.5,0,6.3-2.8,6.3-6.3V21.3
				C46.1,17.8,43.3,15,39.8,15L39.8,15z"/>
		</g>
	</g>
</g>
<g>
	<g>
		<path class="st0" d="M25,87.4c1.6,0,2.9,1.3,2.9,2.9s-1.3,2.9-2.9,2.9s-2.9-1.3-2.9-2.9C22.1,88.7,23.4,87.4,25,87.4 M25,86.4
			c-2.2,0-3.9,1.7-3.9,3.9c0,2.2,1.7,3.9,3.9,3.9s3.9-1.7,3.9-3.9S27.2,86.4,25,86.4L25,86.4z"/>
	</g>
</g>
</svg>
