<?xml version="1.0" encoding="utf-8"?>
<!-- Generator: Adobe Illustrator 19.2.1, SVG Export Plug-In . SVG Version: 6.00 Build 0)  -->
<svg version="1.1" id="Layer_1" xmlns="http://www.w3.org/2000/svg" xmlns:xlink="http://www.w3.org/1999/xlink" x="0px" y="0px"
	 viewBox="0 0 70 104" style="enable-background:new 0 0 70 104;" xml:space="preserve">
<style type="text/css">
	.st0{opacity:0.25;fill:#3C3C3B;enable-background:new    ;}
	.st1{fill:#3C3C3B;}
</style>
<g>
	<path class="st0" d="M70,34.9C70,15.7,54.3,0,35,0S0,15.7,0,34.9C0,44.3,3.6,53,10.2,59.7c8,8,6.6,19.4,6.6,19.6c0,0.1,0,0.1,0,0.2
		s0,0.1,0,0.2v12.1c0,6.2,5,11.2,11.3,11.2h13.8c6.2,0,11.3-5,11.3-11.2V79.6c0-0.1,0-0.1,0-0.2s0-0.1,0-0.2s-1.5-11.5,6.6-19.6
		C66.4,53,70,44.3,70,34.9z M47.9,91.7c0,3.3-2.7,6-6,6H28.1c-3.3,0-6-2.7-6-6v-9.5H48L47.9,91.7L47.9,91.7z M25.5,40
		c2.8,1.3,6.1,2.4,9.5,2.4c3.3,0,6.5-0.8,9.3-2c-6.1,10.1-6.1,23.5-6,36.5V77h-6.6v-0.1C31.7,63.7,31.7,50.2,25.5,40z M47.8,76.9
		h-6.9v-0.1c0-15-0.1-30.6,9.6-40.2c0-0.1,0.1-0.1,0.1-0.2c0.1-0.1,0.1-0.1,0.1-0.2c0-0.1,0.1-0.2,0.1-0.2c0-0.1,0-0.2,0-0.2
		c0-0.1,0-0.2,0-0.3s0-0.2,0-0.2c0-0.1-0.1-0.2-0.1-0.2c0-0.1-0.1-0.1-0.1-0.2l0,0l0,0c-0.1-0.1-0.1-0.1-0.2-0.1
		c-0.1-0.1-0.1-0.1-0.2-0.1c-0.1,0-0.2-0.1-0.3-0.1s-0.1,0-0.2,0c-0.1,0-0.2,0-0.3,0s-0.1,0-0.2,0c-0.1,0-0.2,0.1-0.2,0.1
		c-0.1,0-0.1,0-0.2,0.1c-2.9,2.4-8.4,5.1-13.7,5.1c-5.7,0-11.2-3.5-13.9-5.2c0,0-0.1,0-0.1-0.1c-0.1,0-0.2-0.1-0.3-0.1
		c-0.1,0-0.2,0-0.2,0c-0.1,0-0.2,0-0.3,0c-0.1,0-0.2,0-0.2,0.1c-0.1,0-0.1,0.1-0.2,0.1s-0.1,0.1-0.2,0.1c0,0-0.1,0-0.1,0.1L19.5,35
		l-0.1,0.1v0.1c-0.1,0.1-0.1,0.2-0.1,0.2c0,0.1,0,0.2-0.1,0.2c0,0.1,0,0.2,0,0.2c0,0.1,0,0.2,0.1,0.2c0,0.1,0.1,0.1,0.1,0.2
		c0,0.1,0.1,0.1,0.1,0.2c0,0,0,0.1,0.1,0.1c9.6,9.6,9.6,25.1,9.6,40.2v0.1h-6.9c0-4.6-1-13.8-8.2-21c-5.6-5.6-8.7-13.1-8.7-21
		C5.2,18.6,18.6,5.2,35,5.2s29.8,13.3,29.8,29.7c0,7.9-3.1,15.4-8.7,21C48.8,63.2,47.8,72.3,47.8,76.9z"/>
	<path class="st1" d="M70,34.9C70,15.7,54.3,0,35,0S0,15.7,0,34.9C0,44.3,3.6,53,10.2,59.7c8,8,6.6,19.4,6.6,19.6c0,0.1,0,0.1,0,0.2
		s0,0.1,0,0.2v12.1c0,6.2,5,11.2,11.3,11.2h13.8c6.2,0,11.3-5,11.3-11.2V79.6c0-0.1,0-0.1,0-0.2s0-0.1,0-0.2s-1.5-11.5,6.6-19.6
		C66.4,53,70,44.3,70,34.9z M47.9,91.7c0,3.3-2.7,6-6,6H28.1c-3.3,0-6-2.7-6-6v-9.5H48L47.9,91.7L47.9,91.7z M25.5,40
		c2.8,1.3,6.1,2.4,9.5,2.4c3.3,0,6.5-0.8,9.3-2c-6.1,10.1-6.1,23.5-6,36.5V77h-6.6v-0.1C31.7,63.7,31.7,50.2,25.5,40z M47.8,76.9
		h-6.9v-0.1c0-15-0.1-30.6,9.6-40.2c0-0.1,0.1-0.1,0.1-0.2c0.1-0.1,0.1-0.1,0.1-0.2c0-0.1,0.1-0.2,0.1-0.2c0-0.1,0-0.2,0-0.2
		c0-0.1,0-0.2,0-0.3s0-0.2,0-0.2c0-0.1-0.1-0.2-0.1-0.2c0-0.1-0.1-0.1-0.1-0.2l0,0l0,0c-0.1-0.1-0.1-0.1-0.2-0.1
		c-0.1-0.1-0.1-0.1-0.2-0.1c-0.1,0-0.2-0.1-0.3-0.1s-0.1,0-0.2,0c-0.1,0-0.2,0-0.3,0s-0.1,0-0.2,0c-0.1,0-0.2,0.1-0.2,0.1
		c-0.1,0-0.1,0-0.2,0.1c-2.9,2.4-8.4,5.1-13.7,5.1c-5.7,0-11.2-3.5-13.9-5.2c0,0-0.1,0-0.1-0.1c-0.1,0-0.2-0.1-0.3-0.1
		c-0.1,0-0.2,0-0.2,0c-0.1,0-0.2,0-0.3,0c-0.1,0-0.2,0-0.2,0.1c-0.1,0-0.1,0.1-0.2,0.1s-0.1,0.1-0.2,0.1c0,0-0.1,0-0.1,0.1L19.5,35
		l-0.1,0.1v0.1c-0.1,0.1-0.1,0.2-0.1,0.2c0,0.1,0,0.2-0.1,0.2c0,0.1,0,0.2,0,0.2c0,0.1,0,0.2,0.1,0.2c0,0.1,0.1,0.1,0.1,0.2
		c0,0.1,0.1,0.1,0.1,0.2c0,0,0,0.1,0.1,0.1c9.6,9.6,9.6,25.1,9.6,40.2v0.1h-6.9c0-4.6-1-13.8-8.2-21c-5.6-5.6-8.7-13.1-8.7-21
		C5.2,18.6,18.6,5.2,35,5.2s29.8,13.3,29.8,29.7c0,7.9-3.1,15.4-8.7,21C48.8,63.2,47.8,72.3,47.8,76.9z"/>
</g>
</svg>
