<?xml version="1.0" encoding="utf-8"?>
<!-- Generator: Adobe Illustrator 19.2.1, SVG Export Plug-In . SVG Version: 6.00 Build 0)  -->
<svg version="1.1" id="Layer_1" xmlns="http://www.w3.org/2000/svg" xmlns:xlink="http://www.w3.org/1999/xlink" x="0px" y="0px"
	 viewBox="0 0 104 87" style="enable-background:new 0 0 104 87;" xml:space="preserve">
<style type="text/css">
	.st0{fill:#231F20;}
</style>
<path class="st0" d="M102.4,51.2c0-10.6-6.9-20.2-17.8-25.1C79.5,11.1,63.2,0,43.9,0C20.6,0,1.6,16.1,1.6,35.9
	c0,9.1,3.9,17.7,11.1,24.3L8.8,75c-0.3,1.1,0.1,2.3,0.9,3c0.6,0.5,1.3,0.8,2,0.8c0.4,0,0.7,0,1.1-0.2l21.1-7.8
	c3.4,0.7,6.7,1.1,10,1.1c0.5,0,0.9-0.1,1.4-0.1c8.2,6.6,19.9,9.6,31.5,7.1l16.3,7.9c0.2,0.1,0.4,0.2,0.7,0.2c0.3,0,0.6-0.1,0.9-0.3
	c0.5-0.4,0.7-0.9,0.6-1.5L93,71C99.1,65.7,102.4,58.7,102.4,51.2z M32.6,64.8l-16.4,6.1L19.1,60c0.3-1.2-0.1-2.4-1-3.1
	c-6.7-5.7-10.4-13.1-10.4-21C7.7,19.5,24,6.1,43.9,6.1c20,0,36.2,13.4,36.2,29.9S63.9,65.9,43.9,65.9c-3.1,0-6.4-0.4-9.6-1.1
	C33.8,64.6,33.2,64.6,32.6,64.8z M91.8,82.8l-14.1-6.9c-0.2-0.1-0.4-0.2-0.7-0.2c-0.1,0-0.2,0-0.3,0C67,78,57.4,76.2,50,71.5
	C70.5,69,86.2,54,86.2,35.9c0-2-0.2-3.9-0.6-5.8c8.4,4.7,13.7,12.5,13.7,21.1c0,6.8-3.2,13.1-8.9,17.9c-0.4,0.3-0.6,0.9-0.5,1.4
	L91.8,82.8z"/>
</svg>
