<?xml version="1.0" encoding="utf-8"?>
<!-- Generator: Adobe Illustrator 19.2.1, SVG Export Plug-In . SVG Version: 6.00 Build 0)  -->
<svg version="1.1" id="Layer_1" xmlns="http://www.w3.org/2000/svg" xmlns:xlink="http://www.w3.org/1999/xlink" x="0px" y="0px"
	 viewBox="0 0 144 100" style="enable-background:new 0 0 144 100;" xml:space="preserve">
<style type="text/css">
	.st0{fill:none;}
	.st1{fill:#D6C688;}
	.st2{fill:none;stroke:#231F20;stroke-miterlimit:10;}
	.st3{display:none;fill:#231F20;}
	.st4{fill:url(#SVGID_1_);}
	.st5{fill:#231F20;}
	.st6{fill:#FFFFFF;}
</style>
<pattern  y="100" width="100" height="100" patternUnits="userSpaceOnUse" id="SVGID_2_" viewBox="100.4 -200.4 100 100" style="overflow:visible;">
	<g>
		<rect x="100.4" y="-200.4" class="st0" width="100" height="100"/>
		<g>
			<rect x="100.4" y="-200.4" class="st0" width="100" height="100"/>
			<g>
				<rect x="100.4" y="-200.4" class="st0" width="100" height="100"/>
				<g>
					<rect x="100.4" y="-200.4" class="st0" width="100" height="100"/>
					<g>
						<rect x="150.4" y="-292.1" class="st1" width="100" height="100"/>
						<line class="st2" x1="300.4" y1="-200.4" x2="200.4" y2="-300.4"/>
						<line class="st2" x1="275" y1="-200.4" x2="175" y2="-300.4"/>
					</g>
					<g>
						<rect x="50.4" y="-292.1" class="st1" width="100" height="100"/>
						<line class="st2" x1="200.4" y1="-200.4" x2="100.4" y2="-300.4"/>
						<line class="st2" x1="175" y1="-200.4" x2="75" y2="-300.4"/>
						<line class="st2" x1="225" y1="-200.4" x2="125" y2="-300.4"/>
					</g>
					<g>
						<line class="st2" x1="100.4" y1="-200.4" x2="0.4" y2="-300.4"/>
						<line class="st2" x1="125" y1="-200.4" x2="25" y2="-300.4"/>
					</g>
					<g>
						<rect x="150.4" y="-192.1" class="st1" width="100" height="100"/>
						<line class="st2" x1="300.4" y1="-100.4" x2="200.4" y2="-200.4"/>
						<line class="st2" x1="275" y1="-100.4" x2="175" y2="-200.4"/>
						<line class="st2" x1="250.4" y1="-101.4" x2="150.4" y2="-201.4"/>
					</g>
					<g>
						<rect x="50.4" y="-192.1" class="st1" width="100" height="100"/>
						<line class="st2" x1="200.4" y1="-100.4" x2="100.4" y2="-200.4"/>
						<line class="st2" x1="175" y1="-100.4" x2="75" y2="-200.4"/>
						<line class="st2" x1="225" y1="-100.4" x2="125" y2="-200.4"/>
						<line class="st2" x1="150.4" y1="-101.4" x2="50.4" y2="-201.4"/>
					</g>
					<g>
						<line class="st2" x1="100.4" y1="-100.4" x2="0.4" y2="-200.4"/>
						<line class="st2" x1="125" y1="-100.4" x2="25" y2="-200.4"/>
					</g>
					<g>
						<line class="st2" x1="300.4" y1="-0.4" x2="200.4" y2="-100.4"/>
						<line class="st2" x1="275" y1="-0.4" x2="175" y2="-100.4"/>
						<line class="st2" x1="250.4" y1="-1.4" x2="150.4" y2="-101.4"/>
					</g>
					<g>
						<line class="st2" x1="200.4" y1="-0.4" x2="100.4" y2="-100.4"/>
						<line class="st2" x1="175" y1="-0.4" x2="75" y2="-100.4"/>
						<line class="st2" x1="225" y1="-0.4" x2="125" y2="-100.4"/>
						<line class="st2" x1="150.4" y1="-1.4" x2="50.4" y2="-101.4"/>
					</g>
					<g>
						<line class="st2" x1="100.4" y1="-0.4" x2="0.4" y2="-100.4"/>
						<line class="st2" x1="125" y1="-0.4" x2="25" y2="-100.4"/>
					</g>
				</g>
			</g>
		</g>
	</g>
</pattern>
<path class="st3" d="M128.7,1.5c7.6,0,13.8,6.2,13.8,13.8v54c0,7.6-6.2,13.8-13.8,13.8H15.3C7.7,83.2,1.5,77,1.5,69.3v-54
	c0-7.6,6.2-13.8,13.8-13.8L128.7,1.5 M128.7,0H15.3C6.8,0,0,6.9,0,15.3v54c0,8.5,6.9,15.3,15.3,15.3h113.4c8.5,0,15.3-6.9,15.3-15.3
	v-54C144,6.9,137.2,0,128.7,0L128.7,0z"/>
<g>
	<g>
		<pattern  id="SVGID_1_" xlink:href="#SVGID_2_" patternTransform="matrix(1 0 0 -1 -430.2 -33969.8125)">
		</pattern>
		<path class="st4" d="M14.9,78.7c-4.9,0-9-4-9-9V15c0-4.9,4-9,9-9H129c4.9,0,9,4.1,9,9v54.7c0,4.9-4.1,9-9,9H14.9z"/>
	</g>
	<g>
		<path class="st3" d="M125.8,7.5c5.9,0,10.7,4.8,10.7,10.7v51.5c0,4.1-3.4,7.5-7.5,7.5H14.9c-4.1,0-7.5-3.4-7.5-7.5V15
			c0-4.1,3.4-7.5,7.5-7.5H125.8 M125.8,4.5H14.9C9.1,4.5,4.4,9.2,4.4,15v54.7c0,5.8,4.7,10.5,10.5,10.5H129
			c5.8,0,10.5-4.7,10.5-10.5V18.2C139.5,10.6,133.4,4.5,125.8,4.5L125.8,4.5z"/>
	</g>
</g>
<path class="st5" d="M99.4,96.9c0.4,0,0.8,0.4,0.8,0.8s-0.4,0.8-0.8,0.8H44.6c-0.4,0-0.8-0.4-0.8-0.8s0.4-0.8,0.8-0.8H99.4
	 M99.4,95.4H44.6c-1.3,0-2.3,1-2.3,2.3l0,0c0,1.3,1,2.3,2.3,2.3h54.9c1.3,0,2.3-1,2.3-2.3l0,0C101.7,96.5,100.7,95.4,99.4,95.4
	L99.4,95.4z"/>
<path class="st5" d="M87.2,95.4h-1.9c-3,0-5.4-2.4-5.4-5.4s2.4-5.4,5.4-5.4h1.9v-1.5h-1.9c-3.8,0-6.9,3.1-6.9,6.9l0,0
	c0,3.8,3.1,6.9,6.9,6.9h1.9V95.4z"/>
<path class="st5" d="M58.8,83.1h-1.9v1.5h1.9c3,0,5.4,2.4,5.4,5.4s-2.4,5.4-5.4,5.4h-1.9v1.5h1.9c3.8,0,6.9-3.1,6.9-6.9l0,0
	C65.6,86.2,62.5,83.1,58.8,83.1z"/>
<g>
	<path class="st6" d="M32.1,77.9V36.4c0-3.4,2.8-6.2,6.2-6.2h67.3c3.4,0,6.3,2.8,6.3,6.3v41.4H32.1z"/>
	<path class="st5" d="M105.6,31c3,0,5.5,2.5,5.5,5.5v40.7H32.9V36.4c0-3,2.5-5.5,5.5-5.5L105.6,31 M105.6,29.5H38.4
		c-3.9,0-7,3.1-7,7v42.2h81.2V36.5C112.6,32.6,109.5,29.5,105.6,29.5L105.6,29.5z"/>
</g>
<g>
	<path class="st5" d="M129.1,7.1c4.7,0,8.5,3.8,8.5,8.5v54c0,4.7-3.8,8.5-8.5,8.5H15c-4.7,0-8.5-3.8-8.5-8.5v-54
		c0-4.7,3.8-8.5,8.5-8.5L129.1,7.1 M129.1,5.6H15c-5.5,0-10,4.5-10,10v54c0,5.5,4.5,10,10,10h114c5.5,0,10-4.5,10-10v-54
		C139.1,10,134.6,5.6,129.1,5.6L129.1,5.6z"/>
	<path class="st5" d="M128.4,8.2c4.6,0,8.2,3.7,8.2,8.2v52.4c0,4.6-3.7,8.2-8.2,8.2H15.7c-4.6,0-8.2-3.7-8.2-8.2V16.4
		c0-4.6,3.7-8.2,8.2-8.2L128.4,8.2 M128.4,6.7H15.7c-5.3,0-9.7,4.4-9.7,9.7v52.4c0,5.3,4.4,9.7,9.7,9.7h112.6c5.3,0,9.7-4.4,9.7-9.7
		V16.4C138.1,11,133.7,6.7,128.4,6.7L128.4,6.7z"/>
	<path class="st5" d="M128.4,8.2c4.6,0,8.2,3.7,8.2,8.2v52.4c0,4.6-3.7,8.2-8.2,8.2H15.7c-4.6,0-8.2-3.7-8.2-8.2V16.4
		c0-4.6,3.7-8.2,8.2-8.2L128.4,8.2 M128.4,6.7H15.7c-5.3,0-9.7,4.4-9.7,9.7v52.4c0,5.3,4.4,9.7,9.7,9.7h112.6c5.3,0,9.7-4.4,9.7-9.7
		V16.4C138.1,11,133.7,6.7,128.4,6.7L128.4,6.7z"/>
</g>
<g>
	<path class="st5" d="M130.1,2.1c6.9,0,12.5,5.6,12.5,12.5v56c0,6.9-5.6,12.5-12.5,12.5H14c-6.9,0-12.5-5.6-12.5-12.5v-56
		C1.6,7.7,7.2,2.1,14,2.1H130.1 M130.1,0.6H14c-7.7,0-14,6.3-14,14v56c0,7.7,6.3,14,14,14h116c7.7,0,14-6.3,14-14v-56
		C144.1,6.8,137.8,0.6,130.1,0.6L130.1,0.6z"/>
</g>
</svg>
