<?xml version="1.0" encoding="utf-8"?>
<!-- Generator: Adobe Illustrator 19.2.1, SVG Export Plug-In . SVG Version: 6.00 Build 0)  -->
<svg version="1.1" id="Layer_1" xmlns="http://www.w3.org/2000/svg" xmlns:xlink="http://www.w3.org/1999/xlink" x="0px" y="0px"
	 viewBox="0 0 96 94" style="enable-background:new 0 0 96 94;" xml:space="preserve">
<g>
	<path d="M62.4,33.3H7.5c-4.1,0-7.5,3.3-7.5,7.5v45.1c0,4.1,3.3,7.5,7.5,7.5h54.9c4.1,0,7.5-3.3,7.5-7.5V40.8
		C69.8,36.7,66.5,33.3,62.4,33.3z M64.6,85.9c0,1.2-1,2.2-2.2,2.2H7.5c-1.2,0-2.2-1-2.2-2.2V40.8c0-1.2,1-2.2,2.2-2.2h54.9
		c1.2,0,2.2,1,2.2,2.2V85.9z"/>
	<path d="M94.1,35.1c-0.7-0.4-2.3-0.7-4.3,0.8l-12,9c-2.6,1.9-4.6,5.9-4.6,9.1v15.1c0,3.2,2,7.2,4.6,9.1l12,9
		c1.1,0.8,2.1,1.1,2.9,1.1c0.6,0,1.1-0.2,1.4-0.3c0.7-0.4,2-1.4,2-3.9V39C96,36.5,94.8,35.5,94.1,35.1z M93.2,84.2
		c0,1-0.3,1.3-0.4,1.4s-0.6,0.1-1.4-0.5l-12-9c-1.8-1.4-3.5-4.6-3.5-6.9V54.1c0-2.3,1.6-5.5,3.5-6.9l12-9c0.6-0.4,1-0.6,1.2-0.6
		c0.1,0,0.1,0,0.2,0c0.1,0.1,0.4,0.5,0.4,1.4C93.2,39,93.2,84.2,93.2,84.2z"/>
	<path d="M12.6,27.9c6.3,0,11.4-5.1,11.4-11.4S18.9,5,12.6,5S1.2,10.1,1.2,16.4S6.3,27.9,12.6,27.9z M12.6,7.8
		c4.8,0,8.6,3.9,8.6,8.6S17.3,25,12.6,25S4,21.2,4,16.4S7.9,7.8,12.6,7.8z"/>
	<path d="M42.7,27.9c7.7,0,13.9-6.3,13.9-13.9S50.4,0,42.7,0S28.8,6.2,28.8,13.9S35.1,27.9,42.7,27.9z M42.7,2.8
		c6.1,0,11.1,5,11.1,11.2c0,6.1-5,11.2-11.1,11.2s-11.2-5-11.2-11.2C31.6,7.8,36.6,2.8,42.7,2.8z"/>
</g>
</svg>
