<?xml version="1.0" encoding="utf-8"?>
<!-- Generator: Adobe Illustrator 19.2.1, SVG Export Plug-In . SVG Version: 6.00 Build 0)  -->
<svg version="1.1" id="Layer_1" xmlns="http://www.w3.org/2000/svg" xmlns:xlink="http://www.w3.org/1999/xlink" x="0px" y="0px"
	 viewBox="0 0 40 34" style="enable-background:new 0 0 40 34;" xml:space="preserve">
<style type="text/css">
	.st0{fill:#FFFFFF;}
</style>
<path class="st0" d="M13.8,16.8c-0.9-1.3-1.4-2.9-1.4-4.5c0-0.4,0-0.8,0.1-1.1c-0.7,0.3-1.5,0.4-2.3,0.4c-2.4,0-4.2-1.5-4.5-1.5
	c-2.2,0-2.2,4.7-2.2,6.1c0,1.9,1.6,2.8,3.4,2.8h2.3C10.4,17.6,12,16.9,13.8,16.8z M32.5,27.9c0-3.9-0.9-10-6-10
	c-0.6,0-2.8,2.4-6.2,2.4s-5.6-2.4-6.2-2.4c-5.1,0-6,6-6,10c0,2.8,1.9,4.5,4.6,4.5h15.2C30.6,32.4,32.5,30.7,32.5,27.9z M14.7,5.7
	c0-2.5-2-4.5-4.5-4.5s-4.5,2-4.5,4.5s2,4.5,4.5,4.5C12.7,10.1,14.7,8.1,14.7,5.7z M26.9,12.3c0-3.7-3-6.7-6.7-6.7s-6.7,3-6.7,6.7
	s3,6.7,6.7,6.7S26.9,16,26.9,12.3z M37,16.3c0-1.4,0.1-6.1-2.2-6.1c-0.4,0-2.2,1.5-4.5,1.5c-0.8,0-1.6-0.1-2.3-0.4c0,0.3,0,0.7,0,1
	c0,1.6-0.5,3.2-1.4,4.5c1.8,0.1,3.4,0.8,4.6,2.2h2.3C35.3,19,37,18.2,37,16.3z M34.7,5.7c0-2.5-2-4.5-4.5-4.5s-4.5,2-4.5,4.5
	s2,4.5,4.5,4.5S34.7,8.1,34.7,5.7z"/>
</svg>
