<?xml version="1.0" encoding="utf-8"?>
<!-- Generator: Adobe Illustrator 19.2.1, SVG Export Plug-In . SVG Version: 6.00 Build 0)  -->
<svg version="1.1" id="Layer_1" xmlns="http://www.w3.org/2000/svg" xmlns:xlink="http://www.w3.org/1999/xlink" x="0px" y="0px"
	 viewBox="0 0 40 34" style="enable-background:new 0 0 40 34;" xml:space="preserve">
<style type="text/css">
	.st0{fill:#231F20;}
</style>
<path class="st0" d="M27.8,3.4c-5.7,2.8-9.5,2.5-15.4,0C2.1,3.4-3.8,30.6,3.9,30.6c6.5,0,7.4-8,16.3-8c7.2,0,11.5,7.9,16.3,7.9
	C44.2,30.5,36.4,3.4,27.8,3.4z M12.5,17c-2.9,0-5.2-2.3-5.2-5.1c0-2.8,2.3-5.1,5.2-5.1c2.9,0,5.2,2.3,5.2,5.1
	C17.7,14.7,15.3,17,12.5,17z M25.4,12.5c-0.8-0.3-1.3-1.1-1-2c0.3-0.8,1.2-1.3,2-1c0.8,0.3,1.3,1.1,1.1,2
	C27.2,12.3,26.3,12.7,25.4,12.5z M33.6,13.8c-0.3,0.8-1.2,1.3-2,1c-0.8-0.3-1.3-1.1-1.1-2c0.3-0.8,1.2-1.3,2-1
	C33.4,12.1,33.8,12.9,33.6,13.8z M31.5,10.1c-0.3,0.8-1.2,1.3-2,1c-0.8-0.3-1.3-1.1-1.1-2c0.3-0.8,1.2-1.3,2-1
	C31.3,8.4,31.8,9.3,31.5,10.1z M29.3,15c-0.3,0.8-1.2,1.3-2,1c-0.8-0.3-1.3-1.1-1.1-2c0.3-0.8,1.2-1.3,2-1
	C29.1,13.3,29.6,14.1,29.3,15z M15.1,12c0,1.4-1.2,2.6-2.7,2.6c-1.5,0-2.7-1.2-2.7-2.6c0-1.4,1.2-2.6,2.7-2.6
	C13.9,9.4,15.1,10.6,15.1,12z"/>
</svg>
