<?xml version="1.0" encoding="utf-8"?>
<!-- Generator: Adobe Illustrator 19.2.1, SVG Export Plug-In . SVG Version: 6.00 Build 0)  -->
<svg version="1.1" id="Layer_1" xmlns="http://www.w3.org/2000/svg" xmlns:xlink="http://www.w3.org/1999/xlink" x="0px" y="0px"
	 viewBox="0 0 460 239" style="enable-background:new 0 0 460 239;" xml:space="preserve">
<style type="text/css">
	.st0{fill:#231F20;}
</style>
<g>
	<g>
		<path class="st0" d="M0,228v3.6c0,5.3,4,7.4,9.3,7.4h441.1c5.3,0,9.5-3,9.5-8.3v-2.8L0,228z M268.1,233.5c0,2.7-1.5,2.8-4.2,2.8
			h-69.1c-2.7,0-4.2-0.2-4.2-2.9v-0.8H268v0.9H268.1z M58.1,222.5h343.6c5.3,0,10-4.3,10-9.6V9.6c0-5.3-4.7-9.6-10-9.6H58.1
			c-5.3,0-9.7,4.3-9.7,9.6v203.3C48.4,218.2,52.8,222.5,58.1,222.5z M229.4,1.8c1.3,0,2.3,1,2.3,2.3s-1,2.3-2.3,2.3s-2.3-1-2.3-2.3
			C227.1,2.8,228.1,1.8,229.4,1.8z M56.7,15.1c0-3.8,3.1-6.9,6.9-6.9h332.9c3.8,0,6.7,4.6,6.7,8.5v191.8c0,3.8-2.8,5.8-6.7,5.8H63.6
			c-3.8,0-6.9-3.1-6.9-6.9C56.7,207.4,56.7,15.1,56.7,15.1z"/>
	</g>
</g>
</svg>
