<?xml version="1.0" encoding="utf-8"?>
<!-- Generator: Adobe Illustrator 19.2.1, SVG Export Plug-In . SVG Version: 6.00 Build 0)  -->
<svg version="1.1" id="Layer_1" xmlns="http://www.w3.org/2000/svg" xmlns:xlink="http://www.w3.org/1999/xlink" x="0px" y="0px"
	 viewBox="0 0 122 254" style="enable-background:new 0 0 122 254;" xml:space="preserve">
<style type="text/css">
	.st0{fill:#231F20;}
</style>
<g>
	<g>
		<path class="st0" d="M101.3,0.5H20.9C10.5,0.5,0.5,9.8,0.5,20.3v215.2c0,10.5,10,19,20.4,19h80.3c10.5,0,21.2-8.5,21.2-19V20.3
			C122.5,9.8,111.8,0.5,101.3,0.5z M61.5,8.3c1.8,0,3.2,1.5,3.2,3.3s-1.4,3.3-3.2,3.3s-3.2-1.5-3.2-3.3C58.2,9.8,59.7,8.3,61.5,8.3z
			 M56.6,21.2h17.2c1.5,0,2.7,1.4,2.7,2.9s-1.2,2.7-2.7,2.7H56.6c-1.5,0-2.7-1.2-2.7-2.7C54,22.6,55.2,21.2,56.6,21.2z M45.7,21.3
			c1.5,0,2.8,1.3,2.8,2.8c0,1.6-1.2,2.8-2.8,2.8c-1.5,0-2.8-1.3-2.8-2.8C42.9,22.5,44.1,21.3,45.7,21.3z M61.5,246.5
			c-5,0-9.1-4.1-9.1-9.2c0-5.1,4.1-9.2,9.1-9.2s9.1,4.1,9.1,9.2C70.7,242.4,66.6,246.5,61.5,246.5z M112.8,219.9H10.3V35h102.5
			V219.9z"/>
	</g>
</g>
</svg>
