<?xml version="1.0" encoding="utf-8"?>
<!-- Generator: Adobe Illustrator 19.2.1, SVG Export Plug-In . SVG Version: 6.00 Build 0)  -->
<svg version="1.1" id="Layer_1" xmlns="http://www.w3.org/2000/svg" xmlns:xlink="http://www.w3.org/1999/xlink" x="0px" y="0px"
	 viewBox="0 0 32 32" style="enable-background:new 0 0 32 32;" xml:space="preserve">
<style type="text/css">
	.st0{fill:#231F20;}
</style>
<path class="st0" d="M32,0.1L19.5,0v4.4h5.1l-4,3.9C15.5,4.9,8.4,5.4,3.9,9.9C1.4,12.3,0,15.6,0,19.1s1.4,6.7,3.9,9.2
	c5.1,5.1,13.5,5.1,18.7,0c2.5-2.5,3.9-5.7,3.9-9.2c0-2.8-0.9-5.5-2.6-7.7l3.8-3.7v4.8H32C32,12.4,32,0.1,32,0.1z M19.4,12.9
	c1.7,1.6,2.6,3.8,2.6,6.1s-0.9,4.5-2.6,6.1c-3.4,3.4-9,3.4-12.4,0c-3.3-3.3-3.3-9,0-12.2C10.4,9.6,16,9.6,19.4,12.9z"/>
</svg>
